<svg xmlns="http://www.w3.org/2000/svg" xmlns:xlink="http://www.w3.org/1999/xlink" xmlns:lucid="lucid" width="4425.85" height="942.32"><g transform="translate(-399.12345679012344 -180)" lucid:page-tab-id="0_0"><path d="M0 0h5000.05v1354.94H0z" fill="#fff"/><path d="M920 220c0 11.05-8.95 20-20 20s-20-8.95-20-20 8.95-20 20-20 20 8.95 20 20z" stroke="#666"/><path d="M900 241v32.62" stroke="#333" fill="none"/><path d="M899.98 240.5l.52-.02v.53h-1v-.56z" fill="#333"/><path d="M900 288.38l-4.64-14.26h9.28z" stroke="#333" fill="#333"/><path d="M836 290c-8.84 0-16 7.16-16 16v48c0 8.84 7.16 16 16 16h128c8.84 0 16-7.16 16-16v-48c0-8.84-7.16-16-16-16z" stroke="#000" stroke-opacity="0" fill="#00b098"/><use xlink:href="#a" transform="matrix(1,0,0,1,828,298) translate(7.901234567901252 37.15555555555556)"/><path d="M900 370.5v22.62" stroke="#333" fill="none"/><path d="M900.5 370.5h-1v-.5h1z" fill="#333"/><path d="M900 407.88l-4.64-14.26h9.28z" stroke="#333" fill="#333"/><path d="M820 418c0-4.42 3.58-8 8-8h144c4.42 0 8 3.58 8 8v4c0 4.42-3.58 8-8 8H828c-4.42 0-8-3.58-8-8z" stroke="#666"/><path d="M860 430.5V443c0 6.63-5.37 12-12 12H652c-6.63 0-12 5.37-12 12v16.62" stroke="#333" fill="none"/><path d="M860.5 430.5h-1 1z" fill="#333"/><path d="M640 498.38l-4.64-14.26h9.28z" stroke="#333" fill="#333"/><path d="M576 500c-8.84 0-16 7.16-16 16v48c0 8.84 7.16 16 16 16h128c8.84 0 16-7.16 16-16v-48c0-8.84-7.16-16-16-16z" stroke="#000" stroke-opacity="0" fill="#00c2a8"/><use xlink:href="#b" transform="matrix(1,0,0,1,568,508) translate(-2.469135802469115 37.15555555555556)"/><path d="M940 430.5V443c0 6.63 5.37 12 12 12h196c6.63 0 12 5.37 12 12v16.62" stroke="#333" fill="none"/><path d="M940.5 430.5h-1 1z" fill="#333"/><path d="M1160 498.38l-4.64-14.26h9.28z" stroke="#333" fill="#333"/><path d="M1096 500c-8.84 0-16 7.16-16 16v48c0 8.84 7.16 16 16 16h128c8.84 0 16-7.16 16-16v-48c0-8.84-7.16-16-16-16z" stroke="#000" stroke-opacity="0" fill="#00c2a8"/><use xlink:href="#c" transform="matrix(1,0,0,1,1088,508) translate(-6.913580246913558 37.15555555555556)"/><path d="M634.34 625.66c3.13-3.13 8.2-3.13 11.32 0l8.68 8.68c3.13 3.13 3.13 8.2 0 11.32l-8.68 8.68c-3.13 3.13-8.2 3.13-11.32 0l-8.68-8.68c-3.13-3.13-3.13-8.2 0-11.32z" stroke="#009985" stroke-width="4" fill="#fff"/><path d="M640 580.5v24.4" stroke="#333" fill="none"/><path d="M640.5 580.5h-1v-.5h1z" fill="#333"/><path d="M640 619.68l-4.64-14.27h9.28z" stroke="#333" fill="#333"/><path d="M500.5 713.62h-1v-36.3h1zm120.3-73.12H512.03l-3 .4-2.77 1.14-2.4 1.83-1.82 2.4-1.14 2.75-.4 3v6.65h-1v-6.7l.42-3.2 1.24-3 2-2.6 2.6-2 3-1.25 3.2-.42H620.8z" fill="#333"/><path d="M621.3 640l.06.5h-.58v-1h.58zM500 728.38l-4.64-14.26h9.28z" fill="#333"/><path d="M500 730l-5.32-16.38h10.64zm-3.95-15.38l3.95 12.14 3.95-12.14z" fill="#333"/><use xlink:href="#d" transform="matrix(1,0,0,1,444.0432098765432,658.666666547024) translate(0 12.444444444444446)"/><use xlink:href="#e" transform="matrix(1,0,0,1,444.0432098765432,658.666666547024) translate(58.72222222222222 12.444444444444446)"/><use xlink:href="#f" transform="matrix(1,0,0,1,444.0432098765432,658.666666547024) translate(81.19135802469135 12.444444444444446)"/><path d="M436 730c-8.84 0-16 7.16-16 16v48c0 8.84 7.16 16 16 16h128c8.84 0 16-7.16 16-16v-48c0-8.84-7.16-16-16-16z" stroke="#000" stroke-opacity="0" fill="#77e5d7"/><use xlink:href="#g" transform="matrix(1,0,0,1,428,738) translate(-7.876543209876534 37.15555555555556)"/><path d="M780.5 878.03l-.42 3.2-1.24 3-2 2.6-2.6 2-3 1.25-3.2.42h-92.95v-1h92.87l3-.4 2.77-1.14 2.4-1.83 1.82-2.4 1.14-2.75.4-3V677.1h1zm-9.26-238.1l3 1.23 2.6 2 2 2.6 1.24 3 .42 3.2v6.5h-1v-6.43l-.4-3-1.14-2.77-1.83-2.4-2.4-1.82-2.75-1.14-3-.4H659.2v-1h108.83z" fill="#333"/><path d="M659.22 640.5h-.58l.06-.5-.06-.5h.58zM674.6 894.64L660.3 890l14.27-4.64z" fill="#333"/><path d="M675.1 895.32L658.7 890l16.4-5.32zM661.93 890l12.15 3.95v-7.9z" fill="#333"/><use xlink:href="#d" transform="matrix(1,0,0,1,720.4351851851852,658.445567663111) translate(0 12.444444444444446)"/><use xlink:href="#e" transform="matrix(1,0,0,1,720.4351851851852,658.445567663111) translate(58.72222222222222 12.444444444444446)"/><use xlink:href="#h" transform="matrix(1,0,0,1,720.4351851851852,658.445567663111) translate(81.19135802469135 12.444444444444446)"/><path d="M634.34 875.66c3.13-3.13 8.2-3.13 11.32 0l8.68 8.68c3.13 3.13 3.13 8.2 0 11.32l-8.68 8.68c-3.13 3.13-8.2 3.13-11.32 0l-8.68-8.68c-3.13-3.13-3.13-8.2 0-11.32z" stroke="#009985" stroke-width="4" fill="#fff"/><path d="M500 810.5V878c0 6.63 5.37 12 12 12h92.9" stroke="#333" fill="none"/><path d="M500.5 810.5h-1v-.5h1z" fill="#333"/><path d="M619.68 890l-14.27 4.64v-9.28z" stroke="#333" fill="#333"/><path d="M820 978c0-4.42 3.58-8 8-8h144c4.42 0 8 3.58 8 8v4c0 4.42-3.58 8-8 8H828c-4.42 0-8-3.58-8-8z" stroke="#666"/><path d="M640 909.2v18.15c0 6.63 5.37 12 12 12h196c6.63 0 12 5.37 12 12v2.27" stroke="#333" fill="none"/><path d="M640.5 909.22h-1v-.58l.5.06.5-.06z" fill="#333"/><path d="M860 968.38l-4.64-14.26h9.28z" stroke="#333" fill="#333"/><path d="M900 991v21.25" stroke="#333" fill="none"/><path d="M900.5 991h-1v-.5h1z" fill="#333"/><path d="M900 1027.02l-4.64-14.27h9.28z" stroke="#333" fill="#333"/><path d="M920 1049.14c0 11.04-8.95 20-20 20s-20-8.96-20-20c0-11.05 8.95-20 20-20s20 8.95 20 20z" stroke="#666" fill="#fff"/><path d="M912 1049.14c0 6.62-5.37 12-12 12s-12-5.38-12-12c0-6.63 5.37-12 12-12s12 5.37 12 12z" stroke="#666"/><path d="M1154.34 625.66c3.13-3.13 8.2-3.13 11.32 0l8.68 8.68c3.13 3.13 3.13 8.2 0 11.32l-8.68 8.68c-3.13 3.13-8.2 3.13-11.32 0l-8.68-8.68c-3.13-3.13-3.13-8.2 0-11.32z" stroke="#009985" stroke-width="4" fill="#fff"/><path d="M1160 580.5v24.4M1160 580.5v-.5" stroke="#333" fill="none"/><path d="M1160 619.68l-4.64-14.27h9.28z" stroke="#333" fill="#333"/><path d="M1020.9 630.98l1.14 2.76 1.83 2.4 2.4 1.82 2.75 1.14 3 .4h108.78v1h-108.83l-3.2-.42-3-1.24-2.6-2-2-2.6-1.25-3-.16-1.26h1zm42.72-90.48h-31.6l-3 .4-2.76 1.14-2.4 1.83-1.82 2.4-1.14 2.75-.4 3v59.3h-1v-59.35l.42-3.2 1.24-3 2-2.6 2.6-2 3-1.25 3.2-.42h31.66z" fill="#333"/><path d="M1141.3 640l.06.5h-.58v-1h.58zM1078.38 540l-14.26 4.64v-9.28z" fill="#333"/><path d="M1080 540l-16.38 5.32v-10.64zm-15.38 3.95l12.14-3.95-12.14-3.95z" fill="#333"/><use xlink:href="#i" transform="matrix(1,0,0,1,960.1543209876543,611.3149251507496) translate(0 12.444444444444446)"/><use xlink:href="#e" transform="matrix(1,0,0,1,960.1543209876543,611.3149251507496) translate(66.5 12.444444444444446)"/><use xlink:href="#f" transform="matrix(1,0,0,1,960.1543209876543,611.3149251507496) translate(88.96913580246914 12.444444444444446)"/><path d="M1236 720c-8.84 0-16 7.16-16 16v48c0 8.84 7.16 16 16 16h128c8.84 0 16-7.16 16-16v-48c0-8.84-7.16-16-16-16z" stroke="#000" stroke-opacity="0" fill="#77e5d7"/><use xlink:href="#j" transform="matrix(1,0,0,1,1228,728) translate(44.41975308641976 37.15555555555556)"/><path d="M1294.34 875.66c3.13-3.13 8.2-3.13 11.32 0l8.68 8.68c3.13 3.13 3.13 8.2 0 11.32l-8.68 8.68c-3.13 3.13-8.2 3.13-11.32 0l-8.68-8.68c-3.13-3.13-3.13-8.2 0-11.32z" stroke="#009985" stroke-width="4" fill="#fff"/><path d="M1300.5 703.62h-1v-20.54h1zm-9.26-63.7l3 1.24 2.6 2 2 2.6 1.24 3 .42 3.2v9.52h-1v-9.45l-.4-3-1.14-2.77-1.83-2.4-2.4-1.82-2.75-1.14-3-.4H1179.2v-1h108.83z" fill="#333"/><path d="M1179.22 640.5h-.58l.06-.5-.06-.5h.58zM1300 718.38l-4.64-14.26h9.28z" fill="#333"/><path d="M1300 720l-5.32-16.38h10.64zm-3.95-15.38l3.95 12.14 3.95-12.14z" fill="#333"/><use xlink:href="#k" transform="matrix(1,0,0,1,1226.575,661.480781227881) translate(0.0049999999999954525 14.4)"/><use xlink:href="#l" transform="matrix(1,0,0,1,1226.575,661.480781227881) translate(76.955 14.4)"/><use xlink:href="#m" transform="matrix(1,0,0,1,1226.575,661.480781227881) translate(102.955 14.4)"/><path d="M1300 800.5v54.4" stroke="#333" fill="none"/><path d="M1300.5 800.5h-1v-.5h1z" fill="#333"/><path d="M1300 869.68l-4.64-14.27h9.28z" stroke="#333" fill="#333"/><path d="M1300 909.2v18.15c0 6.63-5.37 12-12 12H952c-6.63 0-12 5.37-12 12v2.27" stroke="#333" fill="none"/><path d="M1300.5 909.22h-1v-.58l.5.06.5-.06z" fill="#333"/><path d="M940 968.38l-4.64-14.26h9.28z" stroke="#333" fill="#333"/><path d="M2000 220c0 11.05-8.95 20-20 20s-20-8.95-20-20 8.95-20 20-20 20 8.95 20 20z" stroke="#666"/><path d="M1980 241v32.62" stroke="#333" fill="none"/><path d="M1979.98 240.5l.52-.02v.53h-1v-.56z" fill="#333"/><path d="M1980 288.38l-4.64-14.26h9.28z" stroke="#333" fill="#333"/><path d="M1916 290c-8.84 0-16 7.16-16 16v48c0 8.84 7.16 16 16 16h128c8.84 0 16-7.16 16-16v-48c0-8.84-7.16-16-16-16z" stroke="#000" stroke-opacity="0" fill="#00b098"/><use xlink:href="#n" transform="matrix(1,0,0,1,1908,298) translate(3.975308641975314 37.15555555555556)"/><path d="M1980 370.5v113.12" stroke="#333" fill="none"/><path d="M1980.5 370.5h-1v-.5h1z" fill="#333"/><path d="M1980 498.38l-4.64-14.26h9.28z" stroke="#333" fill="#333"/><path d="M1916 500c-8.84 0-16 7.16-16 16v48c0 8.84 7.16 16 16 16h128c8.84 0 16-7.16 16-16v-48c0-8.84-7.16-16-16-16z" stroke="#000" stroke-opacity="0" fill="#00c2a8"/><use xlink:href="#o" transform="matrix(1,0,0,1,1908,508) translate(6.913580246913593 37.15555555555556)"/><path d="M1974.34 636.7c3.13-3.1 8.2-3.1 11.32 0l8.68 8.7c3.13 3.12 3.13 8.2 0 11.3l-8.68 8.7c-3.13 3.12-8.2 3.12-11.32 0l-8.68-8.7c-3.13-3.1-3.13-8.18 0-11.3z" stroke="#009985" stroke-width="4" fill="#fff"/><path d="M1980 580.5v35.47" stroke="#333" fill="none"/><path d="M1980.5 580.5h-1v-.5h1z" fill="#333"/><path d="M1980 630.73l-4.64-14.26h9.28z" stroke="#333" fill="#333"/><path d="M1680.5 663.1v73.3h-1V663l.35-2.63h1zm280.3-11.54h-254.77v-1h254.77z" fill="#333"/><path d="M1961.3 651.06l.06.5h-.58v-1h.58zM1680 751.16l-4.64-14.27h9.28z" fill="#333"/><path d="M1680 752.77l-5.32-16.38h10.64zm-3.95-15.38l3.95 12.14 3.95-12.15z" fill="#333"/><use xlink:href="#p" transform="matrix(1,0,0,1,1675.307077359612,641.7226050733794) translate(0 12.444444444444446)"/><path d="M1476 881.06c-8.84 0-16 7.16-16 16v48c0 8.83 7.16 16 16 16h128c8.84 0 16-7.17 16-16v-48c0-8.84-7.16-16-16-16z" stroke="#000" stroke-opacity="0" fill="#77e5d7"/><use xlink:href="#q" transform="matrix(1,0,0,1,1468,889.0559384067128) translate(-9.333333333333332 37.15555555555556)"/><path d="M2120.5 968.03l-.42 3.2-1.24 3-2 2.6-2.6 2-3 1.25-3.2.42h-92.95v-1h92.87l3-.4 2.77-1.14 2.4-1.83 1.82-2.4 1.14-2.75.4-3V712.05h1zm-9.26-317.05l3 1.24 2.6 2 2 2.6 1.24 3 .42 3.2v30.37h-1v-30.3l-.4-3.03-1.14-2.75-1.83-2.4-2.4-1.83-2.75-1.15-3-.4H1999.2v-1h108.83z" fill="#333"/><path d="M1999.22 651.56h-.58l.06-.5-.06-.5h.58zM2014.6 984.64L2000.3 980l14.27-4.64z" fill="#333"/><path d="M2015.1 985.32l-16.4-5.32 16.4-5.32zm-13.16-5.32l12.15 3.95v-7.9z" fill="#333"/><use xlink:href="#r" transform="matrix(1,0,0,1,2101.0308641975307,693.3926660478681) translate(0 12.444444444444446)"/><path d="M1974.34 965.66c3.13-3.13 8.2-3.13 11.32 0l8.68 8.68c3.13 3.13 3.13 8.2 0 11.32l-8.68 8.68c-3.13 3.13-8.2 3.13-11.32 0l-8.68-8.68c-3.13-3.13-3.13-8.2 0-11.32z" stroke="#009985" stroke-width="4" fill="#fff"/><path d="M1540 961.56V968c0 6.63 5.37 12 12 12h392.9" stroke="#333" fill="none"/><path d="M1540.5 961.57h-1v-.5h1z" fill="#333"/><path d="M1959.68 980l-14.27 4.64v-9.28z" stroke="#333" fill="#333"/><path d="M1980 999.2v45.82" stroke="#333" fill="none"/><path d="M1980.5 999.22h-1v-.58l.5.06.5-.06z" fill="#333"/><path d="M1980 1059.8l-4.64-14.28h9.28z" stroke="#333" fill="#333"/><path d="M2000 1081.9c0 11.05-8.95 20-20 20s-20-8.95-20-20c0-11.04 8.95-20 20-20s20 8.96 20 20z" stroke="#666" fill="#fff"/><path d="M1992 1081.9c0 6.63-5.37 12-12 12s-12-5.37-12-12c0-6.62 5.37-12 12-12s12 5.38 12 12zM1600 761.27c0-4.4 3.58-8 8-8h144c4.42 0 8 3.6 8 8v4c0 4.42-3.58 8-8 8h-144c-4.42 0-8-3.58-8-8z" stroke="#666"/><path d="M1640 773.77v10.3c0 6.6-5.37 12-12 12h-76c-6.63 0-12 5.36-12 12v56.6" stroke="#333" fill="none"/><path d="M1640.5 773.8h-1v-.03h1z" fill="#333"/><path d="M1540 879.44l-4.64-14.27h9.28z" stroke="#333" fill="#333"/><path d="M1720 773.77v10.3c0 6.6 5.37 12 12 12h76c6.63 0 12 5.36 12 12v56.6" stroke="#333" fill="none"/><path d="M1720.5 773.8h-1v-.03h1z" fill="#333"/><path d="M1820 879.44l-4.64-14.27h9.28z" stroke="#333" fill="#333"/><path d="M1756 881.06c-8.84 0-16 7.16-16 16v48c0 8.83 7.16 16 16 16h128c8.84 0 16-7.17 16-16v-48c0-8.84-7.16-16-16-16z" stroke="#000" stroke-opacity="0" fill="#77e5d7"/><use xlink:href="#s" transform="matrix(1,0,0,1,1748,889.0559384067128) translate(-3.9506172839505957 37.15555555555556)"/><path d="M1820 961.56V968c0 6.63 5.37 12 12 12h112.9" stroke="#333" fill="none"/><path d="M1820.5 961.57h-1v-.5h1z" fill="#333"/><path d="M1959.68 980l-14.27 4.64v-9.28z" stroke="#333" fill="#333"/><path d="M2780 220.1c0 11.05-8.95 20-20 20s-20-8.95-20-20c0-11.04 8.95-20 20-20s20 8.96 20 20z" stroke="#666"/><path d="M2760 241.1v32.62" stroke="#333" fill="none"/><path d="M2759.98 240.6h.52v.52h-1v-.58z" fill="#333"/><path d="M2760 288.5l-4.64-14.28h9.28z" stroke="#333" fill="#333"/><path d="M2696 290.1c-8.84 0-16 7.17-16 16v48c0 8.84 7.16 16 16 16h128c8.84 0 16-7.16 16-16v-48c0-8.83-7.16-16-16-16z" stroke="#000" stroke-opacity="0" fill="#00b098"/><use xlink:href="#t" transform="matrix(1,0,0,1,2688,298.10340466531113) translate(10.69135802469135 37.15555555555556)"/><path d="M2760 370.6v113.12" stroke="#333" fill="none"/><path d="M2760.5 370.62h-1v-.52h1z" fill="#333"/><path d="M2760 498.5l-4.64-14.28h9.28z" stroke="#333" fill="#333"/><path d="M2696 500.1c-8.84 0-16 7.17-16 16v48c0 8.84 7.16 16 16 16h128c8.84 0 16-7.16 16-16v-48c0-8.83-7.16-16-16-16z" stroke="#000" stroke-opacity="0" fill="#00c2a8"/><use xlink:href="#o" transform="matrix(1,0,0,1,2688,508.10340466531113) translate(6.913580246913593 37.15555555555556)"/><path d="M2754.34 636.82c3.13-3.13 8.2-3.13 11.32 0l8.68 8.68c3.13 3.13 3.13 8.2 0 11.32l-8.68 8.68c-3.13 3.13-8.2 3.13-11.32 0l-8.68-8.68c-3.13-3.13-3.13-8.2 0-11.32z" stroke="#009985" stroke-width="4" fill="#fff"/><path d="M2760 580.6v35.47" stroke="#333" fill="none"/><path d="M2760.5 580.62h-1v-.52h1z" fill="#333"/><path d="M2760 630.84l-4.64-14.27h9.28z" stroke="#333" fill="#333"/><path d="M2478.54 651.66h-26.5l-3.02.4-2.76 1.14-2.4 1.83-1.82 2.4-1.14 2.75-.4 3v20.44h-1v-20.5l.42-3.2 1.24-3 2-2.6 2.6-2 3-1.24 3.2-.42h26.58zm262.26 0h-231.54v-1h231.54z" fill="#333"/><path d="M2741.3 651.16l.06.5h-.58v-1h.58zM2440 698.38l-4.64-14.26h9.28z" fill="#333"/><path d="M2440 700l-5.32-16.38h10.64zm-3.95-15.38l3.95 12.14 3.95-12.14z" fill="#333"/><use xlink:href="#p" transform="matrix(1,0,0,1,2478.53776186392,641.8260097386907) translate(0 12.444444444444446)"/><path d="M2536 830c-8.84 0-16 7.16-16 16v48c0 8.84 7.16 16 16 16h128c8.84 0 16-7.16 16-16v-48c0-8.84-7.16-16-16-16z" stroke="#000" stroke-opacity="0" fill="#77e5d7"/><use xlink:href="#u" transform="matrix(1,0,0,1,2528,838) translate(28.66666666666666 37.15555555555556)"/><path d="M2900.5 968.14l-.42 3.2-1.24 3-2 2.6-2.6 2-3 1.24-3.2.42h-92.95v-1h92.87l3-.4 2.77-1.13 2.4-1.84 1.82-2.4 1.14-2.74.4-3.03v-255.9h1zm-9.26-317.06l3 1.24 2.6 2 2 2.6 1.24 3 .42 3.2v30.38h-1v-30.3l-.4-3.02-1.14-2.76-1.83-2.4-2.4-1.82-2.75-1.15-3-.4H2779.2v-1h108.83z" fill="#333"/><path d="M2779.22 651.66h-.58l.06-.5-.06-.5h.58zM2794.6 984.74l-14.28-4.64 14.27-4.63z" fill="#333"/><path d="M2795.1 985.43l-16.4-5.33 16.4-5.32zm-13.16-5.33l12.15 3.95v-7.9z" fill="#333"/><use xlink:href="#r" transform="matrix(1,0,0,1,2881.0308641975307,693.4960707131795) translate(0 12.444444444444446)"/><path d="M2754.34 965.76c3.13-3.12 8.2-3.12 11.32 0l8.68 8.7c3.13 3.1 3.13 8.18 0 11.3l-8.68 8.7c-3.13 3.1-8.2 3.1-11.32 0l-8.68-8.7c-3.13-3.12-3.13-8.2 0-11.3z" stroke="#009985" stroke-width="4" fill="#fff"/><path d="M2600 910.5v57.6c0 6.63 5.37 12 12 12h112.9" stroke="#333" fill="none"/><path d="M2600.5 910.5h-1v-.5h1z" fill="#333"/><path d="M2739.68 980.1l-14.27 4.64v-9.27z" stroke="#333" fill="#333"/><path d="M2760 999.3v45.82" stroke="#333" fill="none"/><path d="M2760.5 999.32h-1v-.58l.5.07.5-.06z" fill="#333"/><path d="M2760 1059.9l-4.64-14.28h9.28z" stroke="#333" fill="#333"/><path d="M2780 1082c0 11.05-8.95 20-20 20s-20-8.95-20-20c0-11.04 8.95-20 20-20s20 8.96 20 20z" stroke="#666" fill="#fff"/><path d="M2772 1082c0 6.64-5.37 12-12 12s-12-5.36-12-12c0-6.62 5.37-12 12-12s12 5.38 12 12z" stroke="#666"/><path d="M2376 700c-8.84 0-16 7.16-16 16v48c0 8.84 7.16 16 16 16h128c8.84 0 16-7.16 16-16v-48c0-8.84-7.16-16-16-16z" stroke="#000" stroke-opacity="0" fill="#00c2a8"/><use xlink:href="#v" transform="matrix(1,0,0,1,2368,708) translate(8.444444444444454 37.15555555555556)"/><path d="M2320.5 968.07l.4 3.02 1.14 2.74 1.83 2.4 2.4 1.83 2.75 1.14 3 .4h392.9v1h-392.95l-3.2-.42-3-1.24-2.6-2-2-2.6-1.25-3-.42-3.2V780.62h1zm39-227.57h-27.47l-3 .4-2.77 1.14-2.4 1.83-1.82 2.4-1.14 2.75-.4 3v7h-1v-7.05l.42-3.2 1.24-3 2-2.6 2.6-2 3-1.25 3.2-.42h27.54zM2360 740.5h-.5v-1h.5zM2739.68 980.1l-14.27 4.64v-9.27z" fill="#333"/><path d="M2741.3 980.1l-16.4 5.33v-10.65zm-15.4 3.95l12.16-3.95-12.15-3.94z" fill="#333"/><use xlink:href="#w" transform="matrix(1,0,0,1,2298.05,759.0215195756763) translate(0.004999999999999005 14.4)"/><path d="M2600.5 813.62h-1v-36h1zm-9.26-73.7l3 1.24 2.6 2 2 2.6 1.24 3 .42 3.2v4.06h-1v-4l-.4-3-1.14-2.76-1.83-2.4-2.4-1.82-2.75-1.14-3-.4h-67.48v-1h67.53z" fill="#333"/><path d="M2520.5 740.5h-.5v-1h.5zM2600 828.38l-4.64-14.26h9.28z" fill="#333"/><path d="M2600 830l-5.32-16.38h10.64zm-3.95-15.38l3.95 12.14 3.95-12.14z" fill="#333"/><use xlink:href="#x" transform="matrix(1,0,0,1,2581.875,756.0202660880518) translate(0.004999999999999005 14.4)"/><path d="M3540 220.2c0 11.05-8.95 20-20 20s-20-8.95-20-20c0-11.04 8.95-20 20-20s20 8.96 20 20z" stroke="#666"/><path d="M3520 241.2v32.62" stroke="#333" fill="none"/><path d="M3519.98 240.7h.52v.52h-1v-.57z" fill="#333"/><path d="M3520 288.6l-4.64-14.28h9.28z" stroke="#333" fill="#333"/><path d="M3456 290.2c-8.84 0-16 7.17-16 16v48c0 8.84 7.16 16 16 16h128c8.84 0 16-7.16 16-16v-48c0-8.83-7.16-16-16-16z" stroke="#000" stroke-opacity="0" fill="#00b098"/><use xlink:href="#y" transform="matrix(1,0,0,1,3448,298.20680933062243) translate(16.469135802469136 37.15555555555556)"/><path d="M3520 370.7v113.12" stroke="#333" fill="none"/><path d="M3520.5 370.72h-1v-.5h1z" fill="#333"/><path d="M3520 498.6l-4.64-14.28h9.28z" stroke="#333" fill="#333"/><path d="M3456 500.2c-8.84 0-16 7.17-16 16v48c0 8.84 7.16 16 16 16h128c8.84 0 16-7.16 16-16v-48c0-8.83-7.16-16-16-16z" stroke="#000" stroke-opacity="0" fill="#00c2a8"/><use xlink:href="#o" transform="matrix(1,0,0,1,3448,508.2068093306225) translate(6.913580246913593 37.15555555555556)"/><path d="M3514.34 636.92c3.13-3.12 8.2-3.12 11.32 0l8.68 8.7c3.13 3.1 3.13 8.18 0 11.3l-8.68 8.7c-3.13 3.1-8.2 3.1-11.32 0l-8.68-8.7c-3.13-3.12-3.13-8.2 0-11.3z" stroke="#009985" stroke-width="4" fill="#fff"/><path d="M3520 580.7v35.48" stroke="#333" fill="none"/><path d="M3520.5 580.72h-1v-.5h1z" fill="#333"/><path d="M3520 630.94l-4.64-14.26h9.28z" stroke="#333" fill="#333"/><path d="M3360.5 756.9h-1v-51.55h1zm140.3-105.14h-128.77l-3 .4-2.77 1.14-2.4 1.83-1.82 2.4-1.14 2.75-.4 3.02v23.38h-1v-23.45l.42-3.2 1.24-3 2-2.6 2.6-2 3-1.25 3.2-.42h128.84z" fill="#333"/><path d="M3501.3 651.26l.06.5h-.58v-1h.58zM3360 771.66l-4.64-14.27h9.28z" fill="#333"/><path d="M3360 773.27l-5.32-16.38h10.64zm-3.95-15.38l3.95 12.14 3.95-12.15z" fill="#333"/><use xlink:href="#p" transform="matrix(1,0,0,1,3344.6388888888887,686.6795682109945) translate(0 12.444444444444446)"/><path d="M3660.5 756.9h-1v-57.42h1zm-9.26-105.72l3 1.25 2.6 2 2 2.6 1.24 3 .42 3.2v17.58h-1v-17.5l-.4-3.02-1.14-2.76-1.83-2.4-2.4-1.82-2.75-1.14-3-.4H3539.2v-1h108.83z" fill="#333"/><path d="M3539.22 651.76h-.58l.06-.5-.06-.5h.58zM3660 771.66l-4.64-14.27h9.28z" fill="#333"/><path d="M3660 773.27l-5.32-16.38h10.64zm-3.95-15.38l3.95 12.14 3.95-12.15z" fill="#333"/><use xlink:href="#r" transform="matrix(1,0,0,1,3641.0308641975307,680.8129777747466) translate(0 12.444444444444446)"/><path d="M3660 853.77V968.2c0 6.63-5.37 12-12 12h-92.9" stroke="#333" fill="none"/><path d="M3660.5 853.8h-1v-.53h1z" fill="#333"/><path d="M3540.32 980.2l14.27-4.63v9.27z" stroke="#333" fill="#333"/><path d="M3514.34 965.86c3.13-3.12 8.2-3.12 11.32 0l8.68 8.7c3.13 3.1 3.13 8.18 0 11.3l-8.68 8.7c-3.13 3.1-8.2 3.1-11.32 0l-8.68-8.7c-3.13-3.12-3.13-8.2 0-11.3z" stroke="#009985" stroke-width="4" fill="#fff"/><path d="M3360 853.77V968.2c0 6.63 5.37 12 12 12h112.9" stroke="#333" fill="none"/><path d="M3360.5 853.8h-1v-.53h1z" fill="#333"/><path d="M3499.68 980.2l-14.27 4.64v-9.27z" stroke="#333" fill="#333"/><path d="M3520 999.4v45.83" stroke="#333" fill="none"/><path d="M3520.5 999.42h-1v-.58l.5.07.5-.06z" fill="#333"/><path d="M3520 1060l-4.64-14.27h9.28z" stroke="#333" fill="#333"/><path d="M3540 1082.1c0 11.06-8.95 20-20 20s-20-8.94-20-20c0-11.03 8.95-20 20-20s20 8.97 20 20z" stroke="#666" fill="#fff"/><path d="M3532 1082.1c0 6.64-5.37 12-12 12s-12-5.36-12-12c0-6.62 5.37-12 12-12s12 5.38 12 12z" stroke="#666"/><path d="M3296 773.27c-8.84 0-16 7.17-16 16v48c0 8.84 7.16 16 16 16h128c8.84 0 16-7.16 16-16v-48c0-8.83-7.16-16-16-16z" stroke="#000" stroke-opacity="0" fill="#00c2a8"/><use xlink:href="#z" transform="matrix(1,0,0,1,3288,781.2745406890795) translate(44.91358024691358 37.15555555555556)"/><path d="M3596 773.27c-8.84 0-16 7.17-16 16v48c0 8.84 7.16 16 16 16h128c8.84 0 16-7.16 16-16v-48c0-8.83-7.16-16-16-16z" stroke="#000" stroke-opacity="0" fill="#00c2a8"/><use xlink:href="#A" transform="matrix(1,0,0,1,3588,781.2745406890795) translate(37.01234567901234 37.15555555555556)"/><path d="M4100 220.3c0 11.06-8.95 20-20 20s-20-8.94-20-20c0-11.04 8.95-20 20-20s20 8.96 20 20z" stroke="#666"/><path d="M4080 241.3v32.63" stroke="#333" fill="none"/><path d="M4079.98 240.8h.52v.52h-1v-.57z" fill="#333"/><path d="M4080 288.7l-4.64-14.27h9.28z" stroke="#333" fill="#333"/><path d="M4016 290.3c-8.84 0-16 7.17-16 16v48c0 8.85 7.16 16 16 16h128c8.84 0 16-7.15 16-16v-48c0-8.83-7.16-16-16-16z" stroke="#000" stroke-opacity="0" fill="#00b098"/><use xlink:href="#B" transform="matrix(1,0,0,1,4008,298.31021399593374) translate(5.2345679012345805 37.15555555555556)"/><path d="M4080 370.8v113.13" stroke="#333" fill="none"/><path d="M4080.5 370.82h-1v-.5h1z" fill="#333"/><path d="M4080 498.7l-4.64-14.27h9.28z" stroke="#333" fill="#333"/><path d="M4016 500.3c-8.84 0-16 7.17-16 16v48c0 8.85 7.16 16 16 16h128c8.84 0 16-7.15 16-16v-48c0-8.83-7.16-16-16-16z" stroke="#000" stroke-opacity="0" fill="#00c2a8"/><use xlink:href="#o" transform="matrix(1,0,0,1,4008,508.31021399593374) translate(6.913580246913593 37.15555555555556)"/><path d="M4074.34 637.02c3.13-3.12 8.2-3.12 11.32 0l8.68 8.7c3.13 3.1 3.13 8.18 0 11.3l-8.68 8.7c-3.13 3.1-8.2 3.1-11.32 0l-8.68-8.7c-3.13-3.12-3.13-8.2 0-11.3z" stroke="#009985" stroke-width="4" fill="#fff"/><path d="M4080 580.8v35.48" stroke="#333" fill="none"/><path d="M4080.5 580.82h-1v-.5h1z" fill="#333"/><path d="M4080 631.04l-4.64-14.26h9.28z" stroke="#333" fill="#333"/><path d="M3920.5 757h-1v-51.55h1zm140.3-105.13h-128.77l-3 .4-2.77 1.13-2.4 1.84-1.82 2.4-1.14 2.74-.4 3.02v23.38h-1v-23.45l.42-3.2 1.24-3 2-2.6 2.6-2 3-1.24 3.2-.43h128.84z" fill="#333"/><path d="M4061.3 651.37l.06.5h-.58v-1h.58zM3920 771.76l-4.64-14.27h9.28z" fill="#333"/><path d="M3920 773.38l-5.32-16.4h10.64zm-3.95-15.4l3.95 12.16 3.95-12.15z" fill="#333"/><use xlink:href="#p" transform="matrix(1,0,0,1,3904.6388888888887,686.7829728763057) translate(0 12.444444444444446)"/><path d="M4240.5 968.34l-.42 3.2-1.24 3-2 2.6-2.6 2-3 1.25-3.2.4h-112.95v-1h112.87l3-.38 2.77-1.15 2.4-1.83 1.82-2.4 1.14-2.75.4-3.02V722.33h1zm-9.26-317.05l3 1.23 2.6 2 2 2.6 1.24 3 .42 3.2v40.33h-1V663.4l-.4-3.02-1.14-2.75-1.83-2.4-2.4-1.83-2.75-1.14-3-.4H4099.2v-1h128.83z" fill="#333"/><path d="M4099.22 651.87h-.58l.06-.5-.06-.5h.58zM4114.6 984.95l-14.28-4.64 14.27-4.63z" fill="#333"/><path d="M4115.1 985.63l-16.4-5.32 16.4-5.3zm-13.16-5.32l12.15 3.96v-7.9z" fill="#333"/><use xlink:href="#r" transform="matrix(1,0,0,1,4221.030864197531,703.6645666457554) translate(0 12.444444444444446)"/><path d="M4074.34 965.97c3.13-3.13 8.2-3.13 11.32 0l8.68 8.68c3.13 3.13 3.13 8.2 0 11.32l-8.68 8.68c-3.13 3.13-8.2 3.13-11.32 0l-8.68-8.68c-3.13-3.13-3.13-8.2 0-11.32z" stroke="#009985" stroke-width="4" fill="#fff"/><path d="M3920 853.88V968.3c0 6.64 5.37 12 12 12h112.9" stroke="#333" fill="none"/><path d="M3920.5 853.9h-1v-.52h1z" fill="#333"/><path d="M4059.68 980.3l-14.27 4.65v-9.28z" stroke="#333" fill="#333"/><path d="M4080 999.5v45.83" stroke="#333" fill="none"/><path d="M4080.5 999.53h-1v-.58l.5.06.5-.05z" fill="#333"/><path d="M4080 1060.1l-4.64-14.27h9.28z" stroke="#333" fill="#333"/><path d="M4100 1082.22c0 11.04-8.95 20-20 20s-20-8.96-20-20c0-11.05 8.95-20 20-20s20 8.95 20 20z" stroke="#666" fill="#fff"/><path d="M4092 1082.22c0 6.62-5.37 12-12 12s-12-5.38-12-12c0-6.63 5.37-12 12-12s12 5.37 12 12z" stroke="#666"/><path d="M3856 773.38c-8.84 0-16 7.16-16 16v48c0 8.83 7.16 16 16 16h128c8.84 0 16-7.17 16-16v-48c0-8.84-7.16-16-16-16z" stroke="#000" stroke-opacity="0" fill="#00c2a8"/><use xlink:href="#C" transform="matrix(1,0,0,1,3848,781.3779453543907) translate(9.456790123456795 37.15555555555556)"/><path d="M4660 220.4c0 11.06-8.95 20-20 20s-20-8.94-20-20c0-11.03 8.95-20 20-20s20 8.97 20 20z" stroke="#666"/><path d="M4640 241.4v32.63" stroke="#333" fill="none"/><path d="M4639.98 240.9h.52v.53h-1v-.58z" fill="#333"/><path d="M4640 288.8l-4.64-14.27h9.28z" stroke="#333" fill="#333"/><path d="M4576 290.4c-8.84 0-16 7.18-16 16v48c0 8.85 7.16 16 16 16h128c8.84 0 16-7.15 16-16v-48c0-8.82-7.16-16-16-16z" stroke="#000" stroke-opacity="0" fill="#00b098"/><use xlink:href="#D" transform="matrix(1,0,0,1,4568,298.413618661245) translate(7.901234567901252 37.15555555555556)"/><path d="M4640 370.9v113.13" stroke="#333" fill="none"/><path d="M4640.5 370.93h-1v-.52h1z" fill="#333"/><path d="M4640 498.8l-4.64-14.27h9.28z" stroke="#333" fill="#333"/><path d="M4576 500.4c-8.84 0-16 7.18-16 16v48c0 8.85 7.16 16 16 16h128c8.84 0 16-7.15 16-16v-48c0-8.82-7.16-16-16-16z" stroke="#000" stroke-opacity="0" fill="#00c2a8"/><use xlink:href="#o" transform="matrix(1,0,0,1,4568,508.413618661245) translate(6.913580246913593 37.15555555555556)"/><path d="M4634.34 637.13c3.13-3.13 8.2-3.13 11.32 0l8.68 8.68c3.13 3.14 3.13 8.2 0 11.33l-8.68 8.68c-3.13 3.14-8.2 3.14-11.32 0l-8.68-8.67c-3.13-3.13-3.13-8.2 0-11.32z" stroke="#009985" stroke-width="4" fill="#fff"/><path d="M4640 580.9v35.48" stroke="#333" fill="none"/><path d="M4640.5 580.93h-1v-.52h1z" fill="#333"/><path d="M4640 631.15l-4.64-14.27h9.28z" stroke="#333" fill="#333"/><path d="M4480.5 757.1h-1v-51.55h1zm140.3-105.13h-128.77l-3 .4-2.77 1.14-2.4 1.84-1.82 2.4-1.14 2.75-.4 3v23.4h-1v-23.46l.42-3.2 1.24-3 2-2.6 2.6-2 3-1.25 3.2-.43h128.84z" fill="#333"/><path d="M4621.3 651.47l.06.5h-.58v-1h.58zM4480 771.86l-4.64-14.26h9.28z" fill="#333"/><path d="M4480 773.48l-5.32-16.38h10.64zm-3.95-15.38l3.95 12.15 3.95-12.15z" fill="#333"/><use xlink:href="#p" transform="matrix(1,0,0,1,4464.638888888889,686.886377541617) translate(0 12.444444444444446)"/><path d="M4800.5 968.45l-.42 3.2-1.24 3-2 2.6-2.6 2-3 1.24-3.2.4h-112.95v-1h112.87l3-.38 2.77-1.14 2.4-1.84 1.82-2.4 1.14-2.74.4-3.02V711.74h1zm-9.26-317.06l3 1.23 2.6 2 2 2.6 1.24 3 .42 3.2v29.65h-1V663.5l-.4-3-1.14-2.77-1.83-2.4-2.4-1.82-2.75-1.14-3-.4H4659.2v-1h128.83z" fill="#333"/><path d="M4659.22 651.97h-.58l.06-.5-.06-.5h.58zM4674.6 985.05l-14.28-4.64 14.27-4.62z" fill="#333"/><path d="M4675.1 985.74l-16.4-5.33 16.4-5.3zm-13.16-5.33l12.15 3.96v-7.9z" fill="#333"/><use xlink:href="#r" transform="matrix(1,0,0,1,4781.030864197531,693.0764482852745) translate(0 12.444444444444446)"/><path d="M4634.34 966.07c3.13-3.12 8.2-3.12 11.32 0l8.68 8.7c3.13 3.1 3.13 8.18 0 11.3l-8.68 8.7c-3.13 3.1-8.2 3.1-11.32 0l-8.68-8.7c-3.13-3.12-3.13-8.2 0-11.3z" stroke="#009985" stroke-width="4" fill="#fff"/><path d="M4480 853.98V968.4c0 6.64 5.37 12 12 12h112.9" stroke="#333" fill="none"/><path d="M4480.5 854h-1v-.52h1z" fill="#333"/><path d="M4619.68 980.4l-14.27 4.65v-9.27z" stroke="#333" fill="#333"/><path d="M4640 999.62v45.8" stroke="#333" fill="none"/><path d="M4640.5 999.63h-1v-.58l.5.07.5-.07z" fill="#333"/><path d="M4640 1060.2l-4.64-14.27h9.28z" stroke="#333" fill="#333"/><path d="M4660 1082.32c0 11.04-8.95 20-20 20s-20-8.96-20-20c0-11.05 8.95-20 20-20s20 8.95 20 20z" stroke="#666" fill="#fff"/><path d="M4652 1082.32c0 6.63-5.37 12-12 12s-12-5.37-12-12 5.37-12 12-12 12 5.37 12 12z" stroke="#666"/><path d="M4416 773.48c-8.84 0-16 7.16-16 16v48c0 8.84 7.16 16 16 16h128c8.84 0 16-7.16 16-16v-48c0-8.84-7.16-16-16-16z" stroke="#000" stroke-opacity="0" fill="#00c2a8"/><g><use xlink:href="#E" transform="matrix(1,0,0,1,4408,781.481350019702) translate(49.358024691358025 37.15555555555556)"/></g><defs><path fill="#fff" d="M179 0l23-115H67L45 0H11l48-248h34L72-143h135l21-105h32L212 0h-33" id="F"/><path fill="#fff" d="M67 3c-93-2-31-127-26-193h32L48-50c-3 39 53 32 70 12 30-34 30-101 43-152h32L157 0h-30c1-10 6-24 4-33-14 20-29 37-64 36" id="G"/><path fill="#fff" d="M248-111c6-24 9-61-24-58-72 9-57 108-77 169h-31l26-142c3-37-50-30-64-10C52-115 50-51 37 0H6l36-190h30c-1 10-6 24-4 32 13-43 101-52 105 5 13-22 29-41 61-41 90 0 28 129 23 194h-31" id="H"/><path fill="#fff" d="M165-48c-4 18 1 34 23 27l-3 20c-29 8-62 0-52-35h-2C116-14 99 4 63 4 30 4 8-16 8-49c0-68 71-67 138-67 10-26 0-56-31-54-26 1-42 9-47 31l-32-5c8-67 160-71 144 15-5 28-9 54-15 81zM42-50c3 52 80 24 89-6 7-12 7-24 11-38-47 1-103-4-100 44" id="I"/><path fill="#fff" d="M67-158c22-48 132-52 116 29L158 0h-32l25-140c3-38-53-32-70-12C52-117 51-52 38 0H6l36-190h30" id="J"/><path fill="#fff" d="M14 0l8-38h34L48 0H14" id="K"/><path fill="#fff" d="M67-162c32-53 139-36 121 50C175-51 163 2 97 4 68 4 52-11 42-31 38 6 28 39 22 75H-9l50-265h29c-1 10 0 20-3 28zm89 36c0-26-10-43-35-43-54 0-67 50-69 103-1 29 14 45 42 46 53 0 62-58 62-106" id="L"/><path fill="#fff" d="M133-28C103 26-5 8 13-77c13-62 24-115 90-117 29-1 46 15 56 35l19-102h32L160 0h-30zM45-64c-2 27 10 43 35 43 54-1 69-50 69-103 0-29-15-46-42-46-53-1-58 58-62 106" id="M"/><path fill="#fff" d="M51-54c-9 22 5 41 31 30L79-1C43 14 10-4 19-52l22-115H19l5-23h22l19-43h21l-9 43h35l-4 23H73" id="N"/><path fill="#fff" d="M111-194c62-3 86 47 72 106H45c-7 38 6 69 45 68 27-1 43-14 53-32l24 11C152-15 129 4 87 4 38 3 12-23 12-71c0-70 32-119 99-123zm44 81c14-66-71-72-95-28-4 8-8 17-11 28h106" id="O"/><path fill="#fff" d="M17-49c1-102 45-165 103-212h30C92-210 49-145 49-46 49 4 63 43 85 75H54C30 43 18 2 17-49" id="P"/><path fill="#fff" d="M98-137C97-35 54 29-4 75h-31C23 23 67-41 67-140c0-50-15-89-37-121h31c24 32 36 73 37 124" id="Q"/><g id="a"><use transform="matrix(0.04938271604938272,0,0,0.04938271604938272,0,0)" xlink:href="#F"/><use transform="matrix(0.04938271604938272,0,0,0.04938271604938272,12.790123456790125,0)" xlink:href="#G"/><use transform="matrix(0.04938271604938272,0,0,0.04938271604938272,22.66666666666667,0)" xlink:href="#H"/><use transform="matrix(0.04938271604938272,0,0,0.04938271604938272,37.4320987654321,0)" xlink:href="#I"/><use transform="matrix(0.04938271604938272,0,0,0.04938271604938272,47.308641975308646,0)" xlink:href="#J"/><use transform="matrix(0.04938271604938272,0,0,0.04938271604938272,57.18518518518519,0)" xlink:href="#K"/><use transform="matrix(0.04938271604938272,0,0,0.04938271604938272,62.12345679012346,0)" xlink:href="#G"/><use transform="matrix(0.04938271604938272,0,0,0.04938271604938272,72,0)" xlink:href="#L"/><use transform="matrix(0.04938271604938272,0,0,0.04938271604938272,81.87654320987654,0)" xlink:href="#M"/><use transform="matrix(0.04938271604938272,0,0,0.04938271604938272,91.75308641975309,0)" xlink:href="#I"/><use transform="matrix(0.04938271604938272,0,0,0.04938271604938272,101.62962962962963,0)" xlink:href="#N"/><use transform="matrix(0.04938271604938272,0,0,0.04938271604938272,106.56790123456788,0)" xlink:href="#O"/><use transform="matrix(0.04938271604938272,0,0,0.04938271604938272,116.44444444444443,0)" xlink:href="#P"/><use transform="matrix(0.04938271604938272,0,0,0.04938271604938272,122.320987654321,0)" xlink:href="#Q"/></g><path fill="#fff" d="M44-68c0 29 11 47 38 47 30 0 42-19 51-41l28 9C148-21 126 4 82 4 31 4 10-29 12-85c3-77 74-140 146-93 12 8 15 23 18 40l-31 5c-1-22-13-36-36-36-52 0-65 49-65 101" id="R"/><path fill="#fff" d="M67-158c15-20 31-36 64-36 94 0 33 127 27 194h-32l25-140c3-38-53-32-70-12C52-117 51-51 37 0H6l51-261h31" id="S"/><path fill="#fff" d="M127 0L80-88 50-66 37 0H6l51-261h31L57-100l99-90h39l-93 82L161 0h-34" id="T"/><path fill="#fff" d="M-28 44V31h207v13H-28" id="U"/><path fill="#fff" d="M50-231l6-30h32l-6 30H50zM6 0l37-190h31L37 0H6" id="V"/><path fill="#fff" d="M76-167L44 0H12l33-167H18l4-23h27c3-47 25-81 82-69l-4 24c-35-8-44 15-46 45h37l-5 23H76" id="W"/><g id="b"><use transform="matrix(0.04938271604938272,0,0,0.04938271604938272,0,0)" xlink:href="#R"/><use transform="matrix(0.04938271604938272,0,0,0.04938271604938272,8.88888888888889,0)" xlink:href="#S"/><use transform="matrix(0.04938271604938272,0,0,0.04938271604938272,18.765432098765434,0)" xlink:href="#O"/><use transform="matrix(0.04938271604938272,0,0,0.04938271604938272,28.641975308641978,0)" xlink:href="#R"/><use transform="matrix(0.04938271604938272,0,0,0.04938271604938272,37.53086419753087,0)" xlink:href="#T"/><use transform="matrix(0.04938271604938272,0,0,0.04938271604938272,46.41975308641976,0)" xlink:href="#U"/><use transform="matrix(0.04938271604938272,0,0,0.04938271604938272,56.2962962962963,0)" xlink:href="#V"/><use transform="matrix(0.04938271604938272,0,0,0.04938271604938272,60.19753086419754,0)" xlink:href="#W"/><use transform="matrix(0.04938271604938272,0,0,0.04938271604938272,65.13580246913581,0)" xlink:href="#U"/><use transform="matrix(0.04938271604938272,0,0,0.04938271604938272,75.01234567901236,0)" xlink:href="#V"/><use transform="matrix(0.04938271604938272,0,0,0.04938271604938272,78.9135802469136,0)" xlink:href="#J"/><use transform="matrix(0.04938271604938272,0,0,0.04938271604938272,88.79012345679014,0)" xlink:href="#W"/><use transform="matrix(0.04938271604938272,0,0,0.04938271604938272,93.7283950617284,0)" xlink:href="#O"/><use transform="matrix(0.04938271604938272,0,0,0.04938271604938272,103.60493827160495,0)" xlink:href="#R"/><use transform="matrix(0.04938271604938272,0,0,0.04938271604938272,112.49382716049384,0)" xlink:href="#N"/><use transform="matrix(0.04938271604938272,0,0,0.04938271604938272,117.43209876543212,0)" xlink:href="#O"/><use transform="matrix(0.04938271604938272,0,0,0.04938271604938272,127.30864197530865,0)" xlink:href="#M"/><use transform="matrix(0.04938271604938272,0,0,0.04938271604938272,137.1851851851852,0)" xlink:href="#P"/><use transform="matrix(0.04938271604938272,0,0,0.04938271604938272,143.06172839506172,0)" xlink:href="#Q"/></g><path fill="#fff" d="M30-147c31-64 166-65 159 27C183-49 158 1 86 4 9 8 1-88 30-147zM88-20c53 0 68-48 68-100 0-31-11-51-44-50-52 1-68 46-68 97 0 32 13 53 44 53" id="X"/><g id="c"><use transform="matrix(0.04938271604938272,0,0,0.04938271604938272,0,0)" xlink:href="#R"/><use transform="matrix(0.04938271604938272,0,0,0.04938271604938272,8.88888888888889,0)" xlink:href="#S"/><use transform="matrix(0.04938271604938272,0,0,0.04938271604938272,18.765432098765434,0)" xlink:href="#O"/><use transform="matrix(0.04938271604938272,0,0,0.04938271604938272,28.641975308641978,0)" xlink:href="#R"/><use transform="matrix(0.04938271604938272,0,0,0.04938271604938272,37.53086419753087,0)" xlink:href="#T"/><use transform="matrix(0.04938271604938272,0,0,0.04938271604938272,46.41975308641976,0)" xlink:href="#U"/><use transform="matrix(0.04938271604938272,0,0,0.04938271604938272,56.2962962962963,0)" xlink:href="#V"/><use transform="matrix(0.04938271604938272,0,0,0.04938271604938272,60.19753086419754,0)" xlink:href="#W"/><use transform="matrix(0.04938271604938272,0,0,0.04938271604938272,65.13580246913581,0)" xlink:href="#U"/><use transform="matrix(0.04938271604938272,0,0,0.04938271604938272,75.01234567901236,0)" xlink:href="#X"/><use transform="matrix(0.04938271604938272,0,0,0.04938271604938272,84.8888888888889,0)" xlink:href="#R"/><use transform="matrix(0.04938271604938272,0,0,0.04938271604938272,93.77777777777779,0)" xlink:href="#R"/><use transform="matrix(0.04938271604938272,0,0,0.04938271604938272,102.66666666666667,0)" xlink:href="#G"/><use transform="matrix(0.04938271604938272,0,0,0.04938271604938272,112.54320987654322,0)" xlink:href="#L"/><use transform="matrix(0.04938271604938272,0,0,0.04938271604938272,122.41975308641976,0)" xlink:href="#V"/><use transform="matrix(0.04938271604938272,0,0,0.04938271604938272,126.320987654321,0)" xlink:href="#O"/><use transform="matrix(0.04938271604938272,0,0,0.04938271604938272,136.19753086419755,0)" xlink:href="#M"/><use transform="matrix(0.04938271604938272,0,0,0.04938271604938272,146.07407407407408,0)" xlink:href="#P"/><use transform="matrix(0.04938271604938272,0,0,0.04938271604938272,151.9506172839506,0)" xlink:href="#Q"/></g><path fill="#333" d="M50-231l6-30h32l-6 30H50zM6 0l37-190h31L37 0H6" id="Y"/><path fill="#333" d="M67-158c22-48 132-52 116 29L158 0h-32l25-140c3-38-53-32-70-12C52-117 51-52 38 0H6l36-190h30" id="Z"/><path fill="#333" d="M76-167L44 0H12l33-167H18l4-23h27c3-47 25-81 82-69l-4 24c-35-8-44 15-46 45h37l-5 23H76" id="aa"/><path fill="#333" d="M111-194c62-3 86 47 72 106H45c-7 38 6 69 45 68 27-1 43-14 53-32l24 11C152-15 129 4 87 4 38 3 12-23 12-71c0-70 32-119 99-123zm44 81c14-66-71-72-95-28-4 8-8 17-11 28h106" id="ab"/><path fill="#333" d="M44-68c0 29 11 47 38 47 30 0 42-19 51-41l28 9C148-21 126 4 82 4 31 4 10-29 12-85c3-77 74-140 146-93 12 8 15 23 18 40l-31 5c-1-22-13-36-36-36-52 0-65 49-65 101" id="ac"/><path fill="#333" d="M51-54c-9 22 5 41 31 30L79-1C43 14 10-4 19-52l22-115H19l5-23h22l19-43h21l-9 43h35l-4 23H73" id="ad"/><path fill="#333" d="M133-28C103 26-5 8 13-77c13-62 24-115 90-117 29-1 46 15 56 35l19-102h32L160 0h-30zM45-64c-2 27 10 43 35 43 54-1 69-50 69-103 0-29-15-46-42-46-53-1-58 58-62 106" id="ae"/><g id="d"><use transform="matrix(0.04320987654320988,0,0,0.04320987654320988,0,0)" xlink:href="#Y"/><use transform="matrix(0.04320987654320988,0,0,0.04320987654320988,3.4135802469135808,0)" xlink:href="#Z"/><use transform="matrix(0.04320987654320988,0,0,0.04320987654320988,12.055555555555557,0)" xlink:href="#aa"/><use transform="matrix(0.04320987654320988,0,0,0.04320987654320988,16.376543209876544,0)" xlink:href="#ab"/><use transform="matrix(0.04320987654320988,0,0,0.04320987654320988,25.018518518518523,0)" xlink:href="#ac"/><use transform="matrix(0.04320987654320988,0,0,0.04320987654320988,32.7962962962963,0)" xlink:href="#ad"/><use transform="matrix(0.04320987654320988,0,0,0.04320987654320988,37.117283950617285,0)" xlink:href="#ab"/><use transform="matrix(0.04320987654320988,0,0,0.04320987654320988,45.75925925925927,0)" xlink:href="#ae"/></g><path fill="#333" d="M23-150v-26h175v26H23zm0 90v-26h175v26H23" id="af"/><g id="e"><use transform="matrix(0.04320987654320988,0,0,0.04320987654320988,0,0)" xlink:href="#af"/><use transform="matrix(0.04320987654320988,0,0,0.04320987654320988,9.074074074074074,0)" xlink:href="#af"/></g><path fill="#333" d="M151-220L108 0H75l42-220H32l6-28h203l-5 28h-85" id="ag"/><path fill="#333" d="M66-151c12-25 30-51 66-40l-6 26C45-176 58-65 38 0H6l36-190h30" id="ah"/><path fill="#333" d="M67 3c-93-2-31-127-26-193h32L48-50c-3 39 53 32 70 12 30-34 30-101 43-152h32L157 0h-30c1-10 6-24 4-33-14 20-29 37-64 36" id="ai"/><g id="f"><use transform="matrix(0.04320987654320988,0,0,0.04320987654320988,0,0)" xlink:href="#ag"/><use transform="matrix(0.04320987654320988,0,0,0.04320987654320988,8.296296296296298,0)" xlink:href="#ah"/><use transform="matrix(0.04320987654320988,0,0,0.04320987654320988,13.438271604938272,0)" xlink:href="#ai"/><use transform="matrix(0.04320987654320988,0,0,0.04320987654320988,22.080246913580247,0)" xlink:href="#ab"/></g><path fill="#333" d="M114-163C36-179 61-72 57 0H25l-1-190h30c1 12-1 29 2 39 6-27 23-49 58-41v29" id="aj"/><path fill="#333" d="M100-194c63 0 86 42 84 106H49c0 40 14 67 53 68 26 1 43-12 49-29l28 8c-11 28-37 45-77 45C44 4 14-33 15-96c1-61 26-98 85-98zm52 81c6-60-76-77-97-28-3 7-6 17-6 28h103" id="ak"/><path fill="#333" d="M85-194c31 0 48 13 60 33l-1-100h32l1 261h-30c-2-10 0-23-3-31C134-8 116 4 85 4 32 4 16-35 15-94c0-66 23-100 70-100zm9 24c-40 0-46 34-46 75 0 40 6 74 45 74 42 0 51-32 51-76 0-42-9-74-50-73" id="al"/><path fill="#333" d="M84 4C-5 8 30-112 23-190h32v120c0 31 7 50 39 49 72-2 45-101 50-169h31l1 190h-30c-1-10 1-25-2-33-11 22-28 36-60 37" id="am"/><path fill="#333" d="M96-169c-40 0-48 33-48 73s9 75 48 75c24 0 41-14 43-38l32 2c-6 37-31 61-74 61-59 0-76-41-82-99-10-93 101-131 147-64 4 7 5 14 7 22l-32 3c-4-21-16-35-41-35" id="an"/><path fill="#333" d="M-5 72V49h209v23H-5" id="ao"/><path fill="#333" d="M106-169C34-169 62-67 57 0H25v-261h32l-1 103c12-21 28-36 61-36 89 0 53 116 60 194h-32v-121c2-32-8-49-39-48" id="ap"/><path fill="#333" d="M141-36C126-15 110 5 73 4 37 3 15-17 15-53c-1-64 63-63 125-63 3-35-9-54-41-54-24 1-41 7-42 31l-33-3c5-37 33-52 76-52 45 0 72 20 72 64v82c-1 20 7 32 28 27v20c-31 9-61-2-59-35zM48-53c0 20 12 33 32 33 41-3 63-29 60-74-43 2-92-5-92 41" id="aq"/><path fill="#333" d="M24 0v-261h32V0H24" id="ar"/><path fill="#333" d="M59-47c-2 24 18 29 38 22v24C64 9 27 4 27-40v-127H5v-23h24l9-43h21v43h35v23H59v120" id="as"/><path fill="#333" d="M115-194c53 0 69 39 70 98 0 66-23 100-70 100C84 3 66-7 56-30L54 0H23l1-261h32v101c10-23 28-34 59-34zm-8 174c40 0 45-34 45-75 0-40-5-75-45-74-42 0-51 32-51 76 0 43 10 73 51 73" id="at"/><path fill="#333" d="M87 75C49 33 22-17 22-94c0-76 28-126 65-167h31c-38 41-64 92-64 168S80 34 118 75H87" id="au"/><path fill="#333" d="M33-261c38 41 65 92 65 168S71 34 33 75H2C39 34 66-17 66-93S39-220 2-261h31" id="av"/><g id="g"><use transform="matrix(0.04938271604938272,0,0,0.04938271604938272,0,0)" xlink:href="#aj"/><use transform="matrix(0.04938271604938272,0,0,0.04938271604938272,5.8765432098765435,0)" xlink:href="#ak"/><use transform="matrix(0.04938271604938272,0,0,0.04938271604938272,15.753086419753087,0)" xlink:href="#al"/><use transform="matrix(0.04938271604938272,0,0,0.04938271604938272,25.629629629629633,0)" xlink:href="#am"/><use transform="matrix(0.04938271604938272,0,0,0.04938271604938272,35.50617283950618,0)" xlink:href="#an"/><use transform="matrix(0.04938271604938272,0,0,0.04938271604938272,44.39506172839506,0)" xlink:href="#ak"/><use transform="matrix(0.04938271604938272,0,0,0.04938271604938272,54.27160493827161,0)" xlink:href="#ao"/><use transform="matrix(0.04938271604938272,0,0,0.04938271604938272,64.14814814814815,0)" xlink:href="#ap"/><use transform="matrix(0.04938271604938272,0,0,0.04938271604938272,74.0246913580247,0)" xlink:href="#ak"/><use transform="matrix(0.04938271604938272,0,0,0.04938271604938272,83.90123456790124,0)" xlink:href="#aq"/><use transform="matrix(0.04938271604938272,0,0,0.04938271604938272,93.77777777777779,0)" xlink:href="#ar"/><use transform="matrix(0.04938271604938272,0,0,0.04938271604938272,97.67901234567903,0)" xlink:href="#as"/><use transform="matrix(0.04938271604938272,0,0,0.04938271604938272,102.61728395061729,0)" xlink:href="#ap"/><use transform="matrix(0.04938271604938272,0,0,0.04938271604938272,112.49382716049384,0)" xlink:href="#ao"/><use transform="matrix(0.04938271604938272,0,0,0.04938271604938272,122.37037037037038,0)" xlink:href="#at"/><use transform="matrix(0.04938271604938272,0,0,0.04938271604938272,132.24691358024694,0)" xlink:href="#aq"/><use transform="matrix(0.04938271604938272,0,0,0.04938271604938272,142.1234567901235,0)" xlink:href="#aj"/><use transform="matrix(0.04938271604938272,0,0,0.04938271604938272,148.00000000000003,0)" xlink:href="#au"/><use transform="matrix(0.04938271604938272,0,0,0.04938271604938272,153.87654320987656,0)" xlink:href="#av"/></g><path fill="#333" d="M87-220l-18 92h140l-5 28H64L45 0H11l48-248h178l-5 28H87" id="aw"/><path fill="#333" d="M165-48c-4 18 1 34 23 27l-3 20c-29 8-62 0-52-35h-2C116-14 99 4 63 4 30 4 8-16 8-49c0-68 71-67 138-67 10-26 0-56-31-54-26 1-42 9-47 31l-32-5c8-67 160-71 144 15-5 28-9 54-15 81zM42-50c3 52 80 24 89-6 7-12 7-24 11-38-47 1-103-4-100 44" id="ax"/><path fill="#333" d="M6 0l50-261h32L37 0H6" id="ay"/><path fill="#333" d="M55-144c13 50 104 24 104 88C159 21 15 23 1-39l26-10c6 40 102 42 102-4-13-50-104-23-104-87 0-71 143-71 148-8l-29 4c-5-35-85-37-89 0" id="az"/><g id="h"><use transform="matrix(0.04320987654320988,0,0,0.04320987654320988,0,0)" xlink:href="#aw"/><use transform="matrix(0.04320987654320988,0,0,0.04320987654320988,9.462962962962964,0)" xlink:href="#ax"/><use transform="matrix(0.04320987654320988,0,0,0.04320987654320988,18.10493827160494,0)" xlink:href="#ay"/><use transform="matrix(0.04320987654320988,0,0,0.04320987654320988,21.51851851851852,0)" xlink:href="#az"/><use transform="matrix(0.04320987654320988,0,0,0.04320987654320988,29.296296296296298,0)" xlink:href="#ab"/></g><path fill="#333" d="M30-147c31-64 166-65 159 27C183-49 158 1 86 4 9 8 1-88 30-147zM88-20c53 0 68-48 68-100 0-31-11-51-44-50-52 1-68 46-68 97 0 32 13 53 44 53" id="aA"/><path fill="#333" d="M67-162c32-53 139-36 121 50C175-51 163 2 97 4 68 4 52-11 42-31 38 6 28 39 22 75H-9l50-265h29c-1 10 0 20-3 28zm89 36c0-26-10-43-35-43-54 0-67 50-69 103-1 29 14 45 42 46 53 0 62-58 62-106" id="aB"/><g id="i"><use transform="matrix(0.04320987654320988,0,0,0.04320987654320988,0,0)" xlink:href="#aA"/><use transform="matrix(0.04320987654320988,0,0,0.04320987654320988,8.641975308641976,0)" xlink:href="#ac"/><use transform="matrix(0.04320987654320988,0,0,0.04320987654320988,16.419753086419753,0)" xlink:href="#ac"/><use transform="matrix(0.04320987654320988,0,0,0.04320987654320988,24.19753086419753,0)" xlink:href="#ai"/><use transform="matrix(0.04320987654320988,0,0,0.04320987654320988,32.839506172839506,0)" xlink:href="#aB"/><use transform="matrix(0.04320987654320988,0,0,0.04320987654320988,41.48148148148148,0)" xlink:href="#Y"/><use transform="matrix(0.04320987654320988,0,0,0.04320987654320988,44.89506172839506,0)" xlink:href="#ab"/><use transform="matrix(0.04320987654320988,0,0,0.04320987654320988,53.537037037037045,0)" xlink:href="#ae"/></g><path fill="#333" d="M210-169c-67 3-38 105-44 169h-31v-121c0-29-5-50-35-48C34-165 62-65 56 0H25l-1-190h30c1 10-1 24 2 32 10-44 99-50 107 0 11-21 27-35 58-36 85-2 47 119 55 194h-31v-121c0-29-5-49-35-48" id="aC"/><path fill="#333" d="M100-194c62-1 85 37 85 99 1 63-27 99-86 99S16-35 15-95c0-66 28-99 85-99zM99-20c44 1 53-31 53-75 0-43-8-75-51-75s-53 32-53 75 10 74 51 75" id="aD"/><path fill="#333" d="M108 0H70L1-190h34L89-25l56-165h34" id="aE"/><g id="j"><use transform="matrix(0.04938271604938272,0,0,0.04938271604938272,0,0)" xlink:href="#aC"/><use transform="matrix(0.04938271604938272,0,0,0.04938271604938272,14.765432098765434,0)" xlink:href="#aD"/><use transform="matrix(0.04938271604938272,0,0,0.04938271604938272,24.641975308641978,0)" xlink:href="#aE"/><use transform="matrix(0.04938271604938272,0,0,0.04938271604938272,33.53086419753087,0)" xlink:href="#ak"/><use transform="matrix(0.04938271604938272,0,0,0.04938271604938272,43.40740740740741,0)" xlink:href="#au"/><use transform="matrix(0.04938271604938272,0,0,0.04938271604938272,49.283950617283956,0)" xlink:href="#av"/></g><path fill="#333" d="M115-194c55 1 70 41 70 98S169 2 115 4C84 4 66-9 55-30l1 105H24l-1-265h31l2 30c10-21 28-34 59-34zm-8 174c40 0 45-34 45-75s-6-73-45-74c-42 0-51 32-51 76 0 43 10 73 51 73" id="aF"/><path fill="#333" d="M24-231v-30h32v30H24zM24 0v-190h32V0H24" id="aG"/><g id="k"><use transform="matrix(0.05,0,0,0.05,0,0)" xlink:href="#aD"/><use transform="matrix(0.05,0,0,0.05,10,0)" xlink:href="#an"/><use transform="matrix(0.05,0,0,0.05,19,0)" xlink:href="#an"/><use transform="matrix(0.05,0,0,0.05,28,0)" xlink:href="#am"/><use transform="matrix(0.05,0,0,0.05,38,0)" xlink:href="#aF"/><use transform="matrix(0.05,0,0,0.05,48,0)" xlink:href="#aG"/><use transform="matrix(0.05,0,0,0.05,51.95,0)" xlink:href="#ak"/><use transform="matrix(0.05,0,0,0.05,61.95,0)" xlink:href="#al"/></g><path fill="#333" d="M18-150v-26h174v26H18zm0 90v-26h174v26H18" id="aH"/><g id="l"><use transform="matrix(0.05,0,0,0.05,0,0)" xlink:href="#aH"/><use transform="matrix(0.05,0,0,0.05,10.5,0)" xlink:href="#aH"/></g><path fill="#333" d="M63-220v92h138v28H63V0H30v-248h175v28H63" id="aI"/><path fill="#333" d="M135-143c-3-34-86-38-87 0 15 53 115 12 119 90S17 21 10-45l28-5c4 36 97 45 98 0-10-56-113-15-118-90-4-57 82-63 122-42 12 7 21 19 24 35" id="aJ"/><g id="m"><use transform="matrix(0.05,0,0,0.05,0,0)" xlink:href="#aI"/><use transform="matrix(0.05,0,0,0.05,10.950000000000001,0)" xlink:href="#aq"/><use transform="matrix(0.05,0,0,0.05,20.950000000000003,0)" xlink:href="#ar"/><use transform="matrix(0.05,0,0,0.05,24.900000000000002,0)" xlink:href="#aJ"/><use transform="matrix(0.05,0,0,0.05,33.900000000000006,0)" xlink:href="#ak"/></g><path fill="#fff" d="M125-24c46 0 70-25 89-51l25 16C214-24 183 4 123 4 8 4-5-146 60-208c32-50 158-61 191-5 5 7 9 14 11 22l-32 10c-9-28-33-43-69-43-74 0-108 51-108 125 0 46 24 75 72 75" id="aK"/><path fill="#fff" d="M55-144c13 50 104 24 104 88C159 21 15 23 1-39l26-10c6 40 102 42 102-4-13-50-104-23-104-87 0-71 143-71 148-8l-29 4c-5-35-85-37-89 0" id="aL"/><g id="n"><use transform="matrix(0.04938271604938272,0,0,0.04938271604938272,0,0)" xlink:href="#aK"/><use transform="matrix(0.04938271604938272,0,0,0.04938271604938272,12.790123456790125,0)" xlink:href="#S"/><use transform="matrix(0.04938271604938272,0,0,0.04938271604938272,22.66666666666667,0)" xlink:href="#O"/><use transform="matrix(0.04938271604938272,0,0,0.04938271604938272,32.543209876543216,0)" xlink:href="#H"/><use transform="matrix(0.04938271604938272,0,0,0.04938271604938272,47.308641975308646,0)" xlink:href="#V"/><use transform="matrix(0.04938271604938272,0,0,0.04938271604938272,51.20987654320988,0)" xlink:href="#aL"/><use transform="matrix(0.04938271604938272,0,0,0.04938271604938272,60.09876543209877,0)" xlink:href="#N"/><use transform="matrix(0.04938271604938272,0,0,0.04938271604938272,65.03703703703704,0)" xlink:href="#K"/><use transform="matrix(0.04938271604938272,0,0,0.04938271604938272,69.97530864197532,0)" xlink:href="#G"/><use transform="matrix(0.04938271604938272,0,0,0.04938271604938272,79.85185185185186,0)" xlink:href="#L"/><use transform="matrix(0.04938271604938272,0,0,0.04938271604938272,89.7283950617284,0)" xlink:href="#M"/><use transform="matrix(0.04938271604938272,0,0,0.04938271604938272,99.60493827160495,0)" xlink:href="#I"/><use transform="matrix(0.04938271604938272,0,0,0.04938271604938272,109.4814814814815,0)" xlink:href="#N"/><use transform="matrix(0.04938271604938272,0,0,0.04938271604938272,114.41975308641979,0)" xlink:href="#O"/><use transform="matrix(0.04938271604938272,0,0,0.04938271604938272,124.29629629629633,0)" xlink:href="#P"/><use transform="matrix(0.04938271604938272,0,0,0.04938271604938272,130.17283950617286,0)" xlink:href="#Q"/></g><path fill="#fff" d="M66-151c12-25 30-51 66-40l-6 26C45-176 58-65 38 0H6l36-190h30" id="aM"/><path fill="#fff" d="M68-162c25-46 127-43 121 31C183-60 169 1 98 4 69 5 53-11 43-31L36 0H5l52-261h31zm88 36c2-27-9-43-34-43-55 0-70 51-70 103 0 29 15 45 43 46 52 0 58-58 61-106" id="aN"/><path fill="#fff" d="M198-190L69 30C53 58 25 83-20 72c4-11-1-27 19-22 33-1 43-29 59-52L20-190h32L79-34l84-156h35" id="aO"/><g id="o"><use transform="matrix(0.04938271604938272,0,0,0.04938271604938272,0,0)" xlink:href="#S"/><use transform="matrix(0.04938271604938272,0,0,0.04938271604938272,9.876543209876544,0)" xlink:href="#G"/><use transform="matrix(0.04938271604938272,0,0,0.04938271604938272,19.75308641975309,0)" xlink:href="#H"/><use transform="matrix(0.04938271604938272,0,0,0.04938271604938272,34.51851851851852,0)" xlink:href="#I"/><use transform="matrix(0.04938271604938272,0,0,0.04938271604938272,44.39506172839506,0)" xlink:href="#J"/><use transform="matrix(0.04938271604938272,0,0,0.04938271604938272,54.27160493827161,0)" xlink:href="#U"/><use transform="matrix(0.04938271604938272,0,0,0.04938271604938272,64.14814814814815,0)" xlink:href="#J"/><use transform="matrix(0.04938271604938272,0,0,0.04938271604938272,74.0246913580247,0)" xlink:href="#O"/><use transform="matrix(0.04938271604938272,0,0,0.04938271604938272,83.90123456790124,0)" xlink:href="#I"/><use transform="matrix(0.04938271604938272,0,0,0.04938271604938272,93.77777777777779,0)" xlink:href="#aM"/><use transform="matrix(0.04938271604938272,0,0,0.04938271604938272,99.65432098765433,0)" xlink:href="#aN"/><use transform="matrix(0.04938271604938272,0,0,0.04938271604938272,109.53086419753087,0)" xlink:href="#aO"/><use transform="matrix(0.04938271604938272,0,0,0.04938271604938272,118.41975308641976,0)" xlink:href="#P"/><use transform="matrix(0.04938271604938272,0,0,0.04938271604938272,124.2962962962963,0)" xlink:href="#Q"/></g><g id="p"><use transform="matrix(0.04320987654320988,0,0,0.04320987654320988,0,0)" xlink:href="#ag"/><use transform="matrix(0.04320987654320988,0,0,0.04320987654320988,8.296296296296298,0)" xlink:href="#ah"/><use transform="matrix(0.04320987654320988,0,0,0.04320987654320988,13.438271604938272,0)" xlink:href="#ai"/><use transform="matrix(0.04320987654320988,0,0,0.04320987654320988,22.080246913580247,0)" xlink:href="#ab"/></g><path fill="#333" d="M177-190C167-65 218 103 67 71c-23-6-38-20-44-43l32-5c15 47 100 32 89-28v-30C133-14 115 1 83 1 29 1 15-40 15-95c0-56 16-97 71-98 29-1 48 16 59 35 1-10 0-23 2-32h30zM94-22c36 0 50-32 50-73 0-42-14-75-50-75-39 0-46 34-46 75s6 73 46 73" id="aP"/><path fill="#333" d="M117-194c89-4 53 116 60 194h-32v-121c0-31-8-49-39-48C34-167 62-67 57 0H25l-1-190h30c1 10-1 24 2 32 11-22 29-35 61-36" id="aQ"/><g id="q"><use transform="matrix(0.04938271604938272,0,0,0.04938271604938272,0,0)" xlink:href="#aP"/><use transform="matrix(0.04938271604938272,0,0,0.04938271604938272,9.876543209876544,0)" xlink:href="#ak"/><use transform="matrix(0.04938271604938272,0,0,0.04938271604938272,19.75308641975309,0)" xlink:href="#aQ"/><use transform="matrix(0.04938271604938272,0,0,0.04938271604938272,29.629629629629633,0)" xlink:href="#ak"/><use transform="matrix(0.04938271604938272,0,0,0.04938271604938272,39.50617283950618,0)" xlink:href="#aj"/><use transform="matrix(0.04938271604938272,0,0,0.04938271604938272,45.38271604938272,0)" xlink:href="#aq"/><use transform="matrix(0.04938271604938272,0,0,0.04938271604938272,55.25925925925927,0)" xlink:href="#as"/><use transform="matrix(0.04938271604938272,0,0,0.04938271604938272,60.19753086419754,0)" xlink:href="#ak"/><use transform="matrix(0.04938271604938272,0,0,0.04938271604938272,70.07407407407408,0)" xlink:href="#ao"/><use transform="matrix(0.04938271604938272,0,0,0.04938271604938272,79.95061728395062,0)" xlink:href="#aC"/><use transform="matrix(0.04938271604938272,0,0,0.04938271604938272,94.71604938271605,0)" xlink:href="#ak"/><use transform="matrix(0.04938271604938272,0,0,0.04938271604938272,104.5925925925926,0)" xlink:href="#al"/><use transform="matrix(0.04938271604938272,0,0,0.04938271604938272,114.46913580246914,0)" xlink:href="#aG"/><use transform="matrix(0.04938271604938272,0,0,0.04938271604938272,118.37037037037038,0)" xlink:href="#an"/><use transform="matrix(0.04938271604938272,0,0,0.04938271604938272,127.25925925925927,0)" xlink:href="#aG"/><use transform="matrix(0.04938271604938272,0,0,0.04938271604938272,131.1604938271605,0)" xlink:href="#aQ"/><use transform="matrix(0.04938271604938272,0,0,0.04938271604938272,141.03703703703707,0)" xlink:href="#ak"/><use transform="matrix(0.04938271604938272,0,0,0.04938271604938272,150.91358024691363,0)" xlink:href="#au"/><use transform="matrix(0.04938271604938272,0,0,0.04938271604938272,156.79012345679016,0)" xlink:href="#av"/></g><g id="r"><use transform="matrix(0.04320987654320988,0,0,0.04320987654320988,0,0)" xlink:href="#aw"/><use transform="matrix(0.04320987654320988,0,0,0.04320987654320988,9.462962962962964,0)" xlink:href="#ax"/><use transform="matrix(0.04320987654320988,0,0,0.04320987654320988,18.10493827160494,0)" xlink:href="#ay"/><use transform="matrix(0.04320987654320988,0,0,0.04320987654320988,21.51851851851852,0)" xlink:href="#az"/><use transform="matrix(0.04320987654320988,0,0,0.04320987654320988,29.296296296296298,0)" xlink:href="#ab"/></g><g id="s"><use transform="matrix(0.04938271604938272,0,0,0.04938271604938272,0,0)" xlink:href="#aP"/><use transform="matrix(0.04938271604938272,0,0,0.04938271604938272,9.876543209876544,0)" xlink:href="#ak"/><use transform="matrix(0.04938271604938272,0,0,0.04938271604938272,19.75308641975309,0)" xlink:href="#aQ"/><use transform="matrix(0.04938271604938272,0,0,0.04938271604938272,29.629629629629633,0)" xlink:href="#ak"/><use transform="matrix(0.04938271604938272,0,0,0.04938271604938272,39.50617283950618,0)" xlink:href="#aj"/><use transform="matrix(0.04938271604938272,0,0,0.04938271604938272,45.38271604938272,0)" xlink:href="#aq"/><use transform="matrix(0.04938271604938272,0,0,0.04938271604938272,55.25925925925927,0)" xlink:href="#as"/><use transform="matrix(0.04938271604938272,0,0,0.04938271604938272,60.19753086419754,0)" xlink:href="#ak"/><use transform="matrix(0.04938271604938272,0,0,0.04938271604938272,70.07407407407408,0)" xlink:href="#ao"/><use transform="matrix(0.04938271604938272,0,0,0.04938271604938272,79.95061728395062,0)" xlink:href="#aE"/><use transform="matrix(0.04938271604938272,0,0,0.04938271604938272,88.8395061728395,0)" xlink:href="#aq"/><use transform="matrix(0.04938271604938272,0,0,0.04938271604938272,98.71604938271605,0)" xlink:href="#an"/><use transform="matrix(0.04938271604938272,0,0,0.04938271604938272,107.60493827160495,0)" xlink:href="#an"/><use transform="matrix(0.04938271604938272,0,0,0.04938271604938272,116.49382716049381,0)" xlink:href="#aG"/><use transform="matrix(0.04938271604938272,0,0,0.04938271604938272,120.39506172839508,0)" xlink:href="#aQ"/><use transform="matrix(0.04938271604938272,0,0,0.04938271604938272,130.2716049382716,0)" xlink:href="#ak"/><use transform="matrix(0.04938271604938272,0,0,0.04938271604938272,140.14814814814815,0)" xlink:href="#au"/><use transform="matrix(0.04938271604938272,0,0,0.04938271604938272,146.02469135802468,0)" xlink:href="#av"/></g><path fill="#fff" d="M248-139C247-14 144 9 11 0l48-248c105-6 190 8 189 109zm-34 0c1-70-52-87-126-82L50-27c98 7 163-21 164-112" id="aR"/><g id="t"><use transform="matrix(0.04938271604938272,0,0,0.04938271604938272,0,0)" xlink:href="#aR"/><use transform="matrix(0.04938271604938272,0,0,0.04938271604938272,12.790123456790125,0)" xlink:href="#X"/><use transform="matrix(0.04938271604938272,0,0,0.04938271604938272,22.66666666666667,0)" xlink:href="#R"/><use transform="matrix(0.04938271604938272,0,0,0.04938271604938272,31.555555555555557,0)" xlink:href="#N"/><use transform="matrix(0.04938271604938272,0,0,0.04938271604938272,36.49382716049384,0)" xlink:href="#X"/><use transform="matrix(0.04938271604938272,0,0,0.04938271604938272,46.37037037037038,0)" xlink:href="#aM"/><use transform="matrix(0.04938271604938272,0,0,0.04938271604938272,51.60493827160495,0)" xlink:href="#K"/><use transform="matrix(0.04938271604938272,0,0,0.04938271604938272,56.54320987654322,0)" xlink:href="#G"/><use transform="matrix(0.04938271604938272,0,0,0.04938271604938272,66.41975308641977,0)" xlink:href="#L"/><use transform="matrix(0.04938271604938272,0,0,0.04938271604938272,76.29629629629632,0)" xlink:href="#M"/><use transform="matrix(0.04938271604938272,0,0,0.04938271604938272,86.17283950617286,0)" xlink:href="#I"/><use transform="matrix(0.04938271604938272,0,0,0.04938271604938272,96.04938271604941,0)" xlink:href="#N"/><use transform="matrix(0.04938271604938272,0,0,0.04938271604938272,100.98765432098767,0)" xlink:href="#O"/><use transform="matrix(0.04938271604938272,0,0,0.04938271604938272,110.8641975308642,0)" xlink:href="#P"/><use transform="matrix(0.04938271604938272,0,0,0.04938271604938272,116.74074074074075,0)" xlink:href="#Q"/></g><path fill="#333" d="M101-234c-31-9-42 10-38 44h38v23H63V0H32v-167H5v-23h27c-7-52 17-82 69-68v24" id="aS"/><path fill="#333" d="M179-190L93 31C79 59 56 82 12 73V49c39 6 53-20 64-50L1-190h34L92-34l54-156h33" id="aT"/><g id="u"><use transform="matrix(0.04938271604938272,0,0,0.04938271604938272,0,0)" xlink:href="#aS"/><use transform="matrix(0.04938271604938272,0,0,0.04938271604938272,4.938271604938272,0)" xlink:href="#am"/><use transform="matrix(0.04938271604938272,0,0,0.04938271604938272,14.814814814814817,0)" xlink:href="#ar"/><use transform="matrix(0.04938271604938272,0,0,0.04938271604938272,18.71604938271605,0)" xlink:href="#ar"/><use transform="matrix(0.04938271604938272,0,0,0.04938271604938272,22.617283950617285,0)" xlink:href="#aT"/><use transform="matrix(0.04938271604938272,0,0,0.04938271604938272,31.506172839506174,0)" xlink:href="#ao"/><use transform="matrix(0.04938271604938272,0,0,0.04938271604938272,41.38271604938272,0)" xlink:href="#ap"/><use transform="matrix(0.04938271604938272,0,0,0.04938271604938272,51.25925925925927,0)" xlink:href="#ak"/><use transform="matrix(0.04938271604938272,0,0,0.04938271604938272,61.13580246913581,0)" xlink:href="#aq"/><use transform="matrix(0.04938271604938272,0,0,0.04938271604938272,71.01234567901236,0)" xlink:href="#ar"/><use transform="matrix(0.04938271604938272,0,0,0.04938271604938272,74.9135802469136,0)" xlink:href="#au"/><use transform="matrix(0.04938271604938272,0,0,0.04938271604938272,80.79012345679014,0)" xlink:href="#av"/></g><g id="v"><use transform="matrix(0.04938271604938272,0,0,0.04938271604938272,0,0)" xlink:href="#F"/><use transform="matrix(0.04938271604938272,0,0,0.04938271604938272,12.790123456790125,0)" xlink:href="#G"/><use transform="matrix(0.04938271604938272,0,0,0.04938271604938272,22.66666666666667,0)" xlink:href="#H"/><use transform="matrix(0.04938271604938272,0,0,0.04938271604938272,37.4320987654321,0)" xlink:href="#I"/><use transform="matrix(0.04938271604938272,0,0,0.04938271604938272,47.308641975308646,0)" xlink:href="#J"/><use transform="matrix(0.04938271604938272,0,0,0.04938271604938272,57.18518518518519,0)" xlink:href="#K"/><use transform="matrix(0.04938271604938272,0,0,0.04938271604938272,62.12345679012346,0)" xlink:href="#V"/><use transform="matrix(0.04938271604938272,0,0,0.04938271604938272,66.0246913580247,0)" xlink:href="#aL"/><use transform="matrix(0.04938271604938272,0,0,0.04938271604938272,74.91358024691358,0)" xlink:href="#U"/><use transform="matrix(0.04938271604938272,0,0,0.04938271604938272,84.79012345679013,0)" xlink:href="#aL"/><use transform="matrix(0.04938271604938272,0,0,0.04938271604938272,93.67901234567901,0)" xlink:href="#V"/><use transform="matrix(0.04938271604938272,0,0,0.04938271604938272,97.58024691358025,0)" xlink:href="#R"/><use transform="matrix(0.04938271604938272,0,0,0.04938271604938272,106.46913580246914,0)" xlink:href="#T"/><use transform="matrix(0.04938271604938272,0,0,0.04938271604938272,115.35802469135804,0)" xlink:href="#P"/><use transform="matrix(0.04938271604938272,0,0,0.04938271604938272,121.23456790123458,0)" xlink:href="#Q"/></g><g id="w"><use transform="matrix(0.05,0,0,0.05,0,0)" xlink:href="#aI"/><use transform="matrix(0.05,0,0,0.05,10.950000000000001,0)" xlink:href="#aq"/><use transform="matrix(0.05,0,0,0.05,20.950000000000003,0)" xlink:href="#ar"/><use transform="matrix(0.05,0,0,0.05,24.900000000000002,0)" xlink:href="#aJ"/><use transform="matrix(0.05,0,0,0.05,33.900000000000006,0)" xlink:href="#ak"/></g><path fill="#333" d="M127-220V0H93v-220H8v-28h204v28h-85" id="aU"/><g id="x"><use transform="matrix(0.05,0,0,0.05,0,0)" xlink:href="#aU"/><use transform="matrix(0.05,0,0,0.05,10.3,0)" xlink:href="#aj"/><use transform="matrix(0.05,0,0,0.05,16.25,0)" xlink:href="#am"/><use transform="matrix(0.05,0,0,0.05,26.25,0)" xlink:href="#ak"/></g><path fill="#fff" d="M119 0H84L31-248h34l41 218 126-218h36" id="aV"/><g id="y"><use transform="matrix(0.04938271604938272,0,0,0.04938271604938272,0,0)" xlink:href="#aV"/><use transform="matrix(0.04938271604938272,0,0,0.04938271604938272,11.506172839506174,0)" xlink:href="#V"/><use transform="matrix(0.04938271604938272,0,0,0.04938271604938272,15.407407407407408,0)" xlink:href="#aM"/><use transform="matrix(0.04938271604938272,0,0,0.04938271604938272,21.283950617283953,0)" xlink:href="#G"/><use transform="matrix(0.04938271604938272,0,0,0.04938271604938272,31.160493827160497,0)" xlink:href="#aL"/><use transform="matrix(0.04938271604938272,0,0,0.04938271604938272,40.04938271604939,0)" xlink:href="#K"/><use transform="matrix(0.04938271604938272,0,0,0.04938271604938272,44.98765432098766,0)" xlink:href="#G"/><use transform="matrix(0.04938271604938272,0,0,0.04938271604938272,54.8641975308642,0)" xlink:href="#L"/><use transform="matrix(0.04938271604938272,0,0,0.04938271604938272,64.74074074074075,0)" xlink:href="#M"/><use transform="matrix(0.04938271604938272,0,0,0.04938271604938272,74.61728395061729,0)" xlink:href="#I"/><use transform="matrix(0.04938271604938272,0,0,0.04938271604938272,84.49382716049384,0)" xlink:href="#N"/><use transform="matrix(0.04938271604938272,0,0,0.04938271604938272,89.4320987654321,0)" xlink:href="#O"/><use transform="matrix(0.04938271604938272,0,0,0.04938271604938272,99.30864197530865,0)" xlink:href="#P"/><use transform="matrix(0.04938271604938272,0,0,0.04938271604938272,105.18518518518519,0)" xlink:href="#Q"/></g><g id="z"><use transform="matrix(0.04938271604938272,0,0,0.04938271604938272,0,0)" xlink:href="#V"/><use transform="matrix(0.04938271604938272,0,0,0.04938271604938272,3.901234567901235,0)" xlink:href="#J"/><use transform="matrix(0.04938271604938272,0,0,0.04938271604938272,13.777777777777779,0)" xlink:href="#W"/><use transform="matrix(0.04938271604938272,0,0,0.04938271604938272,18.71604938271605,0)" xlink:href="#O"/><use transform="matrix(0.04938271604938272,0,0,0.04938271604938272,28.592592592592595,0)" xlink:href="#R"/><use transform="matrix(0.04938271604938272,0,0,0.04938271604938272,37.48148148148148,0)" xlink:href="#N"/><use transform="matrix(0.04938271604938272,0,0,0.04938271604938272,42.41975308641975,0)" xlink:href="#P"/><use transform="matrix(0.04938271604938272,0,0,0.04938271604938272,48.2962962962963,0)" xlink:href="#Q"/></g><g id="A"><use transform="matrix(0.04938271604938272,0,0,0.04938271604938272,0,0)" xlink:href="#M"/><use transform="matrix(0.04938271604938272,0,0,0.04938271604938272,9.876543209876544,0)" xlink:href="#O"/><use transform="matrix(0.04938271604938272,0,0,0.04938271604938272,19.75308641975309,0)" xlink:href="#aL"/><use transform="matrix(0.04938271604938272,0,0,0.04938271604938272,28.641975308641978,0)" xlink:href="#N"/><use transform="matrix(0.04938271604938272,0,0,0.04938271604938272,33.580246913580254,0)" xlink:href="#aM"/><use transform="matrix(0.04938271604938272,0,0,0.04938271604938272,39.4567901234568,0)" xlink:href="#X"/><use transform="matrix(0.04938271604938272,0,0,0.04938271604938272,49.33333333333334,0)" xlink:href="#aO"/><use transform="matrix(0.04938271604938272,0,0,0.04938271604938272,58.22222222222223,0)" xlink:href="#P"/><use transform="matrix(0.04938271604938272,0,0,0.04938271604938272,64.09876543209877,0)" xlink:href="#Q"/></g><g id="B"><use transform="matrix(0.04938271604938272,0,0,0.04938271604938272,0,0)" xlink:href="#aV"/><use transform="matrix(0.04938271604938272,0,0,0.04938271604938272,11.209876543209878,0)" xlink:href="#I"/><use transform="matrix(0.04938271604938272,0,0,0.04938271604938272,21.086419753086425,0)" xlink:href="#R"/><use transform="matrix(0.04938271604938272,0,0,0.04938271604938272,29.97530864197531,0)" xlink:href="#R"/><use transform="matrix(0.04938271604938272,0,0,0.04938271604938272,38.8641975308642,0)" xlink:href="#V"/><use transform="matrix(0.04938271604938272,0,0,0.04938271604938272,42.76543209876544,0)" xlink:href="#J"/><use transform="matrix(0.04938271604938272,0,0,0.04938271604938272,52.64197530864198,0)" xlink:href="#O"/><use transform="matrix(0.04938271604938272,0,0,0.04938271604938272,62.518518518518526,0)" xlink:href="#K"/><use transform="matrix(0.04938271604938272,0,0,0.04938271604938272,67.4567901234568,0)" xlink:href="#G"/><use transform="matrix(0.04938271604938272,0,0,0.04938271604938272,77.33333333333334,0)" xlink:href="#L"/><use transform="matrix(0.04938271604938272,0,0,0.04938271604938272,87.20987654320989,0)" xlink:href="#M"/><use transform="matrix(0.04938271604938272,0,0,0.04938271604938272,97.08641975308643,0)" xlink:href="#I"/><use transform="matrix(0.04938271604938272,0,0,0.04938271604938272,106.96296296296298,0)" xlink:href="#N"/><use transform="matrix(0.04938271604938272,0,0,0.04938271604938272,111.90123456790124,0)" xlink:href="#O"/><use transform="matrix(0.04938271604938272,0,0,0.04938271604938272,121.77777777777779,0)" xlink:href="#P"/><use transform="matrix(0.04938271604938272,0,0,0.04938271604938272,127.65432098765433,0)" xlink:href="#Q"/></g><path fill="#fff" d="M103-194c29 0 47 14 56 36 2-11 5-23 8-32h30L160-5C157 61 82 97 21 62 9 55 4 45 1 30l28-7c7 42 83 31 92-3 4-16 9-38 13-55-13 20-29 36-62 36-40 0-60-25-60-64 0-71 23-131 91-131zm4 24c-53 0-58 54-61 104-2 27 10 44 36 44 49 0 65-50 67-102 1-29-15-46-42-46" id="aW"/><path fill="#fff" d="M89 0H52L20-190h33L74-25l89-165h34" id="aX"/><g id="C"><use transform="matrix(0.04938271604938272,0,0,0.04938271604938272,0,0)" xlink:href="#aW"/><use transform="matrix(0.04938271604938272,0,0,0.04938271604938272,9.876543209876544,0)" xlink:href="#V"/><use transform="matrix(0.04938271604938272,0,0,0.04938271604938272,13.777777777777779,0)" xlink:href="#aX"/><use transform="matrix(0.04938271604938272,0,0,0.04938271604938272,22.666666666666668,0)" xlink:href="#O"/><use transform="matrix(0.04938271604938272,0,0,0.04938271604938272,32.543209876543216,0)" xlink:href="#U"/><use transform="matrix(0.04938271604938272,0,0,0.04938271604938272,42.41975308641976,0)" xlink:href="#V"/><use transform="matrix(0.04938271604938272,0,0,0.04938271604938272,46.320987654320994,0)" xlink:href="#H"/><use transform="matrix(0.04938271604938272,0,0,0.04938271604938272,61.08641975308644,0)" xlink:href="#H"/><use transform="matrix(0.04938271604938272,0,0,0.04938271604938272,75.85185185185186,0)" xlink:href="#G"/><use transform="matrix(0.04938271604938272,0,0,0.04938271604938272,85.7283950617284,0)" xlink:href="#J"/><use transform="matrix(0.04938271604938272,0,0,0.04938271604938272,95.60493827160495,0)" xlink:href="#V"/><use transform="matrix(0.04938271604938272,0,0,0.04938271604938272,99.50617283950619,0)" xlink:href="#N"/><use transform="matrix(0.04938271604938272,0,0,0.04938271604938272,104.44444444444446,0)" xlink:href="#aO"/><use transform="matrix(0.04938271604938272,0,0,0.04938271604938272,113.33333333333334,0)" xlink:href="#P"/><use transform="matrix(0.04938271604938272,0,0,0.04938271604938272,119.20987654320989,0)" xlink:href="#Q"/></g><path fill="#fff" d="M222 0l43-216c-8 16-17 34-26 49L143 0h-22L81-216 41 0H11l48-248h42l38 208 116-208h45L252 0h-30" id="aY"/><g id="D"><use transform="matrix(0.04938271604938272,0,0,0.04938271604938272,0,0)" xlink:href="#aY"/><use transform="matrix(0.04938271604938272,0,0,0.04938271604938272,14.765432098765434,0)" xlink:href="#O"/><use transform="matrix(0.04938271604938272,0,0,0.04938271604938272,24.641975308641978,0)" xlink:href="#M"/><use transform="matrix(0.04938271604938272,0,0,0.04938271604938272,34.51851851851852,0)" xlink:href="#V"/><use transform="matrix(0.04938271604938272,0,0,0.04938271604938272,38.41975308641975,0)" xlink:href="#R"/><use transform="matrix(0.04938271604938272,0,0,0.04938271604938272,47.308641975308646,0)" xlink:href="#O"/><use transform="matrix(0.04938271604938272,0,0,0.04938271604938272,57.18518518518519,0)" xlink:href="#K"/><use transform="matrix(0.04938271604938272,0,0,0.04938271604938272,62.12345679012346,0)" xlink:href="#G"/><use transform="matrix(0.04938271604938272,0,0,0.04938271604938272,72,0)" xlink:href="#L"/><use transform="matrix(0.04938271604938272,0,0,0.04938271604938272,81.87654320987654,0)" xlink:href="#M"/><use transform="matrix(0.04938271604938272,0,0,0.04938271604938272,91.75308641975309,0)" xlink:href="#I"/><use transform="matrix(0.04938271604938272,0,0,0.04938271604938272,101.62962962962963,0)" xlink:href="#N"/><use transform="matrix(0.04938271604938272,0,0,0.04938271604938272,106.56790123456788,0)" xlink:href="#O"/><use transform="matrix(0.04938271604938272,0,0,0.04938271604938272,116.44444444444443,0)" xlink:href="#P"/><use transform="matrix(0.04938271604938272,0,0,0.04938271604938272,122.320987654321,0)" xlink:href="#Q"/></g><path fill="#fff" d="M6 0l50-261h32L37 0H6" id="aZ"/><g id="E"><use transform="matrix(0.04938271604938272,0,0,0.04938271604938272,0,0)" xlink:href="#S"/><use transform="matrix(0.04938271604938272,0,0,0.04938271604938272,9.876543209876544,0)" xlink:href="#O"/><use transform="matrix(0.04938271604938272,0,0,0.04938271604938272,19.75308641975309,0)" xlink:href="#I"/><use transform="matrix(0.04938271604938272,0,0,0.04938271604938272,29.629629629629633,0)" xlink:href="#aZ"/><use transform="matrix(0.04938271604938272,0,0,0.04938271604938272,33.53086419753087,0)" xlink:href="#P"/><use transform="matrix(0.04938271604938272,0,0,0.04938271604938272,39.40740740740741,0)" xlink:href="#Q"/></g></defs></g></svg>