<svg xmlns="http://www.w3.org/2000/svg" xmlns:xlink="http://www.w3.org/1999/xlink" xmlns:lucid="lucid" width="1900" height="397.3"><g transform="translate(0 -982.7)" lucid:page-tab-id="0_0"><path d="M0 0h2320v1625.3H0z" fill="#fff"/><path d="M60 1083c0 11.05-8.95 20-20 20s-20-8.95-20-20 8.95-20 20-20 20 8.95 20 20z" stroke="#666"/><path d="M96.14 1083.5H61v-1h35.14zm146.98 0h-40.28v-1h40.28zM61 1083.5h-.56l.06-.48-.02-.52H61zM257.88 1083l-14.26 4.64v-9.28z" fill="#333"/><path d="M259.5 1083l-16.38 5.32v-10.64zm-15.38 3.95l12.14-3.95-12.14-3.95z" fill="#333"/><use xlink:href="#a" transform="matrix(1,0,0,1,96.13824044396958,1072.2) translate(0.005000000000002558 14.4)"/><path d="M636 1040c-8.84 0-16 7.16-16 16v48c0 8.84 7.16 16 16 16h128c8.84 0 16-7.16 16-16v-48c0-8.84-7.16-16-16-16z" stroke="#333" fill="#fff"/><use xlink:href="#b" transform="matrix(1,0,0,1,628,1048) translate(40.525 35.6)"/><path d="M817.17 1080.5H781v-1h36.17zm145.95 0h-20.3v-1h20.3zM781 1080.5h-.5v-1h.5zM977.88 1080l-14.26 4.64v-9.28z" fill="#333"/><path d="M979.5 1080l-16.38 5.32v-10.64zm-15.38 3.95l12.14-3.95-12.14-3.95z" fill="#333"/><use xlink:href="#c" transform="matrix(1,0,0,1,817.1734567901235,1069.2) translate(0.005000000000002558 14.4)"/><path d="M996 1040c-8.84 0-16 7.16-16 16v48c0 8.84 7.16 16 16 16h128c8.84 0 16-7.16 16-16v-48c0-8.84-7.16-16-16-16z" stroke="#333" fill="#fff"/><use xlink:href="#d" transform="matrix(1,0,0,1,988,1048) translate(45.075 35.6)"/><path d="M276 1043c-8.84 0-16 7.16-16 16v48c0 8.84 7.16 16 16 16h128c8.84 0 16-7.16 16-16v-48c0-8.84-7.16-16-16-16z" stroke="#333" fill="#fff"/><use xlink:href="#e" transform="matrix(1,0,0,1,268,1051) translate(43.025 35.6)"/><path d="M492.9 1083.5H421v-1h71.9zm110.22 0H547.1v-1h56.02zM421 1083.5h-.5v-1h.5zM617.88 1083l-14.26 4.64v-9.28z" fill="#333"/><path d="M619.5 1083l-16.38 5.32v-10.64zm-15.38 3.95l12.14-3.95-12.14-3.95z" fill="#333"/><use xlink:href="#f" transform="matrix(1,0,0,1,492.91358024691357,1072.3333333333333) translate(0.004999999999999005 14.222222222222223)"/><path d="M691.24 999.42l3 1.24 2.6 2 2 2.6 1.24 3 .42 3.2V1039h-1v-27.47l-.4-3-1.14-2.77-1.83-2.4-2.4-1.82-2.75-1.14-3-.4H541.84v-1h146.18zm-196.1.58h-143.1l-3.02.4-2.76 1.14-2.4 1.83-1.82 2.4-1.14 2.75-.4 3v14.6h-1v-14.65l.42-3.2 1.24-3 2-2.6 2.6-2 3-1.25 3.2-.42h143.2zM700.5 1039.5h-1v-.5h1zM340 1040.88l-4.64-14.26h9.28z" fill="#333"/><path d="M340 1042.5l-5.32-16.38h10.64zm-3.95-15.38l3.95 12.14 3.95-12.14z" fill="#333"/><use xlink:href="#g" transform="matrix(1,0,0,1,495.1484567901235,988.7) translate(0.004999999999999005 14.4)"/><path d="M1060.5 1304.9h-1v-73.2h1zm0-94.8h-1V1121h1zM1060.5 1121h-1v-.5h1zM1060 1319.68l-4.64-14.27h9.28z" fill="#333"/><path d="M1060 1321.3l-5.32-16.4h10.64zm-3.95-15.4l3.95 12.16 3.95-12.15z" fill="#333"/><use xlink:href="#h" transform="matrix(1,0,0,1,1037.1484567901234,1210.0982584840829) translate(0.004999999999999005 14.4)"/><path d="M1187.82 1083.5h-47.32v-1h47.32zm157.1 0h-31.45v-1h31.44zM1140.5 1083.5h-.5v-1h.5zM1359.68 1083l-14.27 4.64v-9.28z" fill="#333"/><path d="M1361.3 1083l-16.4 5.32v-10.64zm-15.4 3.95l12.16-3.95-12.15-3.95z" fill="#333"/><use xlink:href="#c" transform="matrix(1,0,0,1,1187.8217152742063,1072.2) translate(0.005000000000002558 14.4)"/><path d="M1636 1040c-8.84 0-16 7.16-16 16v48c0 8.84 7.16 16 16 16h128c8.84 0 16-7.16 16-16v-48c0-8.84-7.16-16-16-16z" stroke="#333" fill="#fff"/><use xlink:href="#i" transform="matrix(1,0,0,1,1628,1048) translate(52 35.6)"/><path d="M1880 1080c0 11.05-8.95 20-20 20s-20-8.95-20-20 8.95-20 20-20 20 8.95 20 20z" stroke="#666" fill="#fff"/><path d="M1872 1080c0 6.63-5.37 12-12 12s-12-5.37-12-12 5.37-12 12-12 12 5.37 12 12z" stroke="#666"/><path d="M1781 1080h42.12" stroke="#333" fill="none"/><path d="M1781 1080.5h-.5v-1h.5z" fill="#333"/><path d="M1837.88 1080l-14.26 4.64v-9.28z" stroke="#333" fill="#333"/><path d="M1374.34 1068.66c3.13-3.13 8.2-3.13 11.32 0l8.68 8.68c3.13 3.13 3.13 8.2 0 11.32l-8.68 8.68c-3.13 3.13-8.2 3.13-11.32 0l-8.68-8.68c-3.13-3.13-3.13-8.2 0-11.32z" stroke="#ffa000" stroke-width="4" fill="#fff"/><path d="M1371.24 999.42l3 1.24 2.6 2 2 2.6 1.24 3 .42 3.2v52.34h-1v-52.27l-.4-3-1.14-2.77-1.83-2.4-2.4-1.82-2.75-1.14-3-.4h-83.88v-1h83.93zm-190.54.58h-108.67l-3 .4-2.77 1.14-2.4 1.83-1.82 2.4-1.14 2.75-.4 3v11.6h-1v-11.65l.42-3.2 1.24-3 2-2.6 2.6-2 3-1.25 3.2-.42h108.74z" fill="#333"/><path d="M1380.5 1064.36l-.5-.06-.5.06v-.58h1zM1060 1037.88l-4.64-14.26h9.28z" fill="#333"/><path d="M1060 1039.5l-5.32-16.38h10.64zm-3.95-15.38l3.95 12.14 3.95-12.14z" fill="#333"/><use xlink:href="#j" transform="matrix(1,0,0,1,1180.6982584840828,988.7) translate(0.005000000000002558 14.4)"/><path d="M1449.65 1083.5h-50.45v-1h50.45zm153.47 0h-34.57v-1h34.57z" fill="#333"/><path d="M1399.22 1083.5h-.58l.06-.5-.06-.5h.58zM1617.88 1083l-14.26 4.64v-9.28z" fill="#333"/><path d="M1619.5 1083l-16.38 5.32v-10.64zm-15.38 3.95l12.14-3.95-12.14-3.95z" fill="#333"/><use xlink:href="#k" transform="matrix(1,0,0,1,1449.6517415159171,1072.2) translate(0.005000000000002558 14.4)"/><use xlink:href="#l" transform="matrix(1,0,0,1,1449.6517415159171,1072.2) translate(87.905 14.4)"/><path d="M1054.34 1325.66c3.13-3.13 8.2-3.13 11.32 0l8.68 8.68c3.13 3.13 3.13 8.2 0 11.32l-8.68 8.68c-3.13 3.13-8.2 3.13-11.32 0l-8.68-8.68c-3.13-3.13-3.13-8.2 0-11.32z" stroke="#ffa000" stroke-width="4" fill="#fff"/><path d="M1110.23 1328.03l-.42 3.2-1.24 3-2 2.6-2.6 2-3 1.25-3.2.42h-18.56v-1h18.5l3-.4 2.77-1.14 2.38-1.83 1.84-2.4 1.13-2.75.4-3v-191.1h1z" fill="#333"/><path d="M1079.22 1340.5h-.58l.06-.5-.06-.5h.58zM1114.36 1136.38h-9.27l4.63-14.26z" fill="#333"/><path d="M1115.05 1136.88h-10.65l5.33-16.38zm-9.27-1h7.9l-3.95-12.14z" fill="#333"/><use xlink:href="#m" transform="matrix(1,0,0,1,1117.7259615384614,1329.2) translate(0.005000000000002558 14.4)"/><path d="M700.5 1327.97l.4 3 1.14 2.77 1.83 2.4 2.4 1.82 2.75 1.14 3 .4h328.78v1H711.97l-3.2-.42-3-1.24-2.6-2-2-2.6-1.25-3-.42-3.2v-191.16h1z" fill="#333"/><path d="M1041.3 1340l.06.5h-.58v-1h.58zM704.64 1136.38h-9.28l4.64-14.26z" fill="#333"/><path d="M705.32 1136.88h-10.64l5.32-16.38zm-9.27-1h7.9l-3.95-12.14z" fill="#333"/><use xlink:href="#k" transform="matrix(1,0,0,1,874.8186298076922,1344) translate(0.0049999999999954525 14.4)"/><use xlink:href="#n" transform="matrix(1,0,0,1,874.8186298076922,1344) translate(87.905 14.4)"/><use xlink:href="#o" transform="matrix(1,0,0,1,874.8186298076922,1344) translate(113.905 14.4)"/><path d="M739.87 1148.47l.4 3 1.14 2.77 1.84 2.4 2.4 1.82 2.74 1.14 3.02.4h44.84v1h-44.9l-3.22-.42-3-1.24-2.6-2-2-2.6-1.23-3-.43-3.2v-11.66h1zm273.4.06l-.43 3.2-1.24 3-2 2.6-2.6 2-3 1.25-3.2.42h-44.9v-1h44.83l3-.4 2.77-1.14 2.4-1.83 1.82-2.4 1.14-2.75.4-3V1121h1zM1013.26 1121h-1v-.5h1zM744 1136.38h-9.27l4.64-14.26z" fill="#333"/><path d="M744.7 1136.88h-10.66l5.33-16.38zm-9.28-1h7.9l-3.95-12.14z" fill="#333"/><g><use xlink:href="#p" transform="matrix(1,0,0,1,796.2390024038461,1149.7) translate(0.0049999999999954525 14.4)"/></g><defs><path fill="#333" d="M141-36C126-15 110 5 73 4 37 3 15-17 15-53c-1-64 63-63 125-63 3-35-9-54-41-54-24 1-41 7-42 31l-33-3c5-37 33-52 76-52 45 0 72 20 72 64v82c-1 20 7 32 28 27v20c-31 9-61-2-59-35zM48-53c0 20 12 33 32 33 41-3 63-29 60-74-43 2-92-5-92 41" id="q"/><path fill="#333" d="M85-194c31 0 48 13 60 33l-1-100h32l1 261h-30c-2-10 0-23-3-31C134-8 116 4 85 4 32 4 16-35 15-94c0-66 23-100 70-100zm9 24c-40 0-46 34-46 75 0 40 6 74 45 74 42 0 51-32 51-76 0-42-9-74-50-73" id="r"/><path fill="#333" d="M-5 72V49h209v23H-5" id="s"/><path fill="#333" d="M106-169C34-169 62-67 57 0H25v-261h32l-1 103c12-21 28-36 61-36 89 0 53 116 60 194h-32v-121c2-32-8-49-39-48" id="t"/><path fill="#333" d="M84 4C-5 8 30-112 23-190h32v120c0 31 7 50 39 49 72-2 45-101 50-169h31l1 190h-30c-1-10 1-25-2-33-11 22-28 36-60 37" id="u"/><path fill="#333" d="M210-169c-67 3-38 105-44 169h-31v-121c0-29-5-50-35-48C34-165 62-65 56 0H25l-1-190h30c1 10-1 24 2 32 10-44 99-50 107 0 11-21 27-35 58-36 85-2 47 119 55 194h-31v-121c0-29-5-49-35-48" id="v"/><path fill="#333" d="M117-194c89-4 53 116 60 194h-32v-121c0-31-8-49-39-48C34-167 62-67 57 0H25l-1-190h30c1 10-1 24 2 32 11-22 29-35 61-36" id="w"/><path fill="#333" d="M87 75C49 33 22-17 22-94c0-76 28-126 65-167h31c-38 41-64 92-64 168S80 34 118 75H87" id="x"/><path fill="#333" d="M33-261c38 41 65 92 65 168S71 34 33 75H2C39 34 66-17 66-93S39-220 2-261h31" id="y"/><g id="a"><use transform="matrix(0.05,0,0,0.05,0,0)" xlink:href="#q"/><use transform="matrix(0.05,0,0,0.05,10,0)" xlink:href="#r"/><use transform="matrix(0.05,0,0,0.05,20,0)" xlink:href="#r"/><use transform="matrix(0.05,0,0,0.05,30,0)" xlink:href="#s"/><use transform="matrix(0.05,0,0,0.05,40,0)" xlink:href="#t"/><use transform="matrix(0.05,0,0,0.05,50,0)" xlink:href="#u"/><use transform="matrix(0.05,0,0,0.05,60,0)" xlink:href="#v"/><use transform="matrix(0.05,0,0,0.05,74.95,0)" xlink:href="#q"/><use transform="matrix(0.05,0,0,0.05,84.95,0)" xlink:href="#w"/><use transform="matrix(0.04938271604938272,0,0,0.04938271604938272,94.95,0)" xlink:href="#x"/><use transform="matrix(0.04938271604938272,0,0,0.04938271604938272,100.82654320987655,0)" xlink:href="#y"/></g><path fill="#333" d="M24-231v-30h32v30H24zM24 0v-190h32V0H24" id="z"/><path fill="#333" d="M101-234c-31-9-42 10-38 44h38v23H63V0H32v-167H5v-23h27c-7-52 17-82 69-68v24" id="A"/><path fill="#333" d="M100-194c63 0 86 42 84 106H49c0 40 14 67 53 68 26 1 43-12 49-29l28 8c-11 28-37 45-77 45C44 4 14-33 15-96c1-61 26-98 85-98zm52 81c6-60-76-77-97-28-3 7-6 17-6 28h103" id="B"/><path fill="#333" d="M96-169c-40 0-48 33-48 73s9 75 48 75c24 0 41-14 43-38l32 2c-6 37-31 61-74 61-59 0-76-41-82-99-10-93 101-131 147-64 4 7 5 14 7 22l-32 3c-4-21-16-35-41-35" id="C"/><path fill="#333" d="M59-47c-2 24 18 29 38 22v24C64 9 27 4 27-40v-127H5v-23h24l9-43h21v43h35v23H59v120" id="D"/><g id="b"><use transform="matrix(0.05,0,0,0.05,0,0)" xlink:href="#z"/><use transform="matrix(0.05,0,0,0.05,3.95,0)" xlink:href="#w"/><use transform="matrix(0.05,0,0,0.05,13.949999999999998,0)" xlink:href="#A"/><use transform="matrix(0.05,0,0,0.05,18.95,0)" xlink:href="#B"/><use transform="matrix(0.05,0,0,0.05,28.950000000000003,0)" xlink:href="#C"/><use transform="matrix(0.05,0,0,0.05,37.95,0)" xlink:href="#D"/><use transform="matrix(0.05,0,0,0.05,42.95,0)" xlink:href="#B"/><use transform="matrix(0.05,0,0,0.05,52.95,0)" xlink:href="#r"/></g><path fill="#333" d="M114-163C36-179 61-72 57 0H25l-1-190h30c1 12-1 29 2 39 6-27 23-49 58-41v29" id="E"/><path fill="#333" d="M24 0v-261h32V0H24" id="F"/><g id="c"><use transform="matrix(0.05,0,0,0.05,0,0)" xlink:href="#E"/><use transform="matrix(0.05,0,0,0.05,5.95,0)" xlink:href="#B"/><use transform="matrix(0.05,0,0,0.05,15.949999999999998,0)" xlink:href="#r"/><use transform="matrix(0.05,0,0,0.05,25.950000000000003,0)" xlink:href="#u"/><use transform="matrix(0.05,0,0,0.05,35.95,0)" xlink:href="#C"/><use transform="matrix(0.05,0,0,0.05,44.95,0)" xlink:href="#B"/><use transform="matrix(0.05,0,0,0.05,54.95,0)" xlink:href="#s"/><use transform="matrix(0.05,0,0,0.05,64.95,0)" xlink:href="#t"/><use transform="matrix(0.05,0,0,0.05,74.95,0)" xlink:href="#B"/><use transform="matrix(0.05,0,0,0.05,84.95,0)" xlink:href="#q"/><use transform="matrix(0.05,0,0,0.05,94.95,0)" xlink:href="#F"/><use transform="matrix(0.05,0,0,0.05,98.9,0)" xlink:href="#D"/><use transform="matrix(0.05,0,0,0.05,103.9,0)" xlink:href="#t"/><use transform="matrix(0.04938271604938272,0,0,0.04938271604938272,113.9,0)" xlink:href="#x"/><use transform="matrix(0.04938271604938272,0,0,0.04938271604938272,119.77654320987655,0)" xlink:href="#y"/></g><path fill="#333" d="M24-231v-30h32v30H24zM-9 49c24 4 33-6 33-30v-209h32V24c2 40-23 58-65 49V49" id="G"/><g id="d"><use transform="matrix(0.05,0,0,0.05,0,0)" xlink:href="#z"/><use transform="matrix(0.05,0,0,0.05,3.95,0)" xlink:href="#w"/><use transform="matrix(0.05,0,0,0.05,13.949999999999998,0)" xlink:href="#G"/><use transform="matrix(0.05,0,0,0.05,17.9,0)" xlink:href="#u"/><use transform="matrix(0.05,0,0,0.05,27.899999999999995,0)" xlink:href="#E"/><use transform="matrix(0.05,0,0,0.05,33.85,0)" xlink:href="#B"/><use transform="matrix(0.05,0,0,0.05,43.85,0)" xlink:href="#r"/></g><path fill="#333" d="M179-190L93 31C79 59 56 82 12 73V49c39 6 53-20 64-50L1-190h34L92-34l54-156h33" id="H"/><g id="e"><use transform="matrix(0.05,0,0,0.05,0,0)" xlink:href="#t"/><use transform="matrix(0.05,0,0,0.05,10,0)" xlink:href="#B"/><use transform="matrix(0.05,0,0,0.05,20,0)" xlink:href="#q"/><use transform="matrix(0.05,0,0,0.05,30,0)" xlink:href="#F"/><use transform="matrix(0.05,0,0,0.05,33.95,0)" xlink:href="#D"/><use transform="matrix(0.05,0,0,0.05,38.95,0)" xlink:href="#t"/><use transform="matrix(0.05,0,0,0.05,48.95,0)" xlink:href="#H"/></g><g id="f"><use transform="matrix(0.04938271604938272,0,0,0.04938271604938272,0,0)" xlink:href="#z"/><use transform="matrix(0.04938271604938272,0,0,0.04938271604938272,3.901234567901235,0)" xlink:href="#w"/><use transform="matrix(0.04938271604938272,0,0,0.04938271604938272,13.777777777777779,0)" xlink:href="#A"/><use transform="matrix(0.04938271604938272,0,0,0.04938271604938272,18.71604938271605,0)" xlink:href="#B"/><use transform="matrix(0.04938271604938272,0,0,0.04938271604938272,28.592592592592595,0)" xlink:href="#C"/><use transform="matrix(0.04938271604938272,0,0,0.04938271604938272,37.48148148148148,0)" xlink:href="#D"/><use transform="matrix(0.04938271604938272,0,0,0.04938271604938272,42.41975308641975,0)" xlink:href="#x"/><use transform="matrix(0.04938271604938272,0,0,0.04938271604938272,48.2962962962963,0)" xlink:href="#y"/></g><g id="g"><use transform="matrix(0.05,0,0,0.05,0,0)" xlink:href="#C"/><use transform="matrix(0.05,0,0,0.05,9,0)" xlink:href="#u"/><use transform="matrix(0.05,0,0,0.05,19,0)" xlink:href="#E"/><use transform="matrix(0.05,0,0,0.05,24.95,0)" xlink:href="#B"/><use transform="matrix(0.04938271604938272,0,0,0.04938271604938272,34.95,0)" xlink:href="#x"/><use transform="matrix(0.04938271604938272,0,0,0.04938271604938272,40.82654320987655,0)" xlink:href="#y"/></g><g id="h"><use transform="matrix(0.05,0,0,0.05,0,0)" xlink:href="#t"/><use transform="matrix(0.05,0,0,0.05,10,0)" xlink:href="#B"/><use transform="matrix(0.05,0,0,0.05,20,0)" xlink:href="#q"/><use transform="matrix(0.05,0,0,0.05,30,0)" xlink:href="#F"/><use transform="matrix(0.04938271604938272,0,0,0.04938271604938272,33.95,0)" xlink:href="#x"/><use transform="matrix(0.04938271604938272,0,0,0.04938271604938272,39.82654320987655,0)" xlink:href="#y"/></g><g id="i"><use transform="matrix(0.05,0,0,0.05,0,0)" xlink:href="#r"/><use transform="matrix(0.05,0,0,0.05,10,0)" xlink:href="#B"/><use transform="matrix(0.05,0,0,0.05,20,0)" xlink:href="#q"/><use transform="matrix(0.05,0,0,0.05,30,0)" xlink:href="#r"/></g><path fill="#333" d="M197 0v-115H63V0H30v-248h33v105h134v-105h34V0h-34" id="I"/><path fill="#333" d="M30-248c87 1 191-15 191 75 0 78-77 80-158 76V0H30v-248zm33 125c57 0 124 11 124-50 0-59-68-47-124-48v98" id="J"/><path fill="#333" d="M115-194c55 1 70 41 70 98S169 2 115 4C84 4 66-9 55-30l1 105H24l-1-265h31l2 30c10-21 28-34 59-34zm-8 174c40 0 45-34 45-75s-6-73-45-74c-42 0-51 32-51 76 0 43 10 73 51 73" id="K"/><path fill="#333" d="M100-194c62-1 85 37 85 99 1 63-27 99-86 99S16-35 15-95c0-66 28-99 85-99zM99-20c44 1 53-31 53-75 0-43-8-75-51-75s-53 32-53 75 10 74 51 75" id="L"/><path fill="#333" d="M135-143c-3-34-86-38-87 0 15 53 115 12 119 90S17 21 10-45l28-5c4 36 97 45 98 0-10-56-113-15-118-90-4-57 82-63 122-42 12 7 21 19 24 35" id="M"/><path fill="#333" d="M18-27v-27l151-64-151-65v-27l175 74v36" id="N"/><path fill="#333" d="M101-251c68 0 85 55 85 127S166 4 100 4C33 4 14-52 14-124c0-73 17-127 87-127zm-1 229c47 0 54-49 54-102s-4-102-53-102c-51 0-55 48-55 102 0 53 5 102 54 102" id="O"/><g id="j"><use transform="matrix(0.05,0,0,0.05,0,0)" xlink:href="#I"/><use transform="matrix(0.05,0,0,0.05,12.950000000000001,0)" xlink:href="#J"/><use transform="matrix(0.05,0,0,0.05,24.950000000000003,0)" xlink:href="#s"/><use transform="matrix(0.05,0,0,0.05,34.95,0)" xlink:href="#K"/><use transform="matrix(0.05,0,0,0.05,44.95,0)" xlink:href="#L"/><use transform="matrix(0.05,0,0,0.05,54.95,0)" xlink:href="#z"/><use transform="matrix(0.05,0,0,0.05,58.900000000000006,0)" xlink:href="#w"/><use transform="matrix(0.05,0,0,0.05,68.9,0)" xlink:href="#D"/><use transform="matrix(0.05,0,0,0.05,73.9,0)" xlink:href="#M"/><use transform="matrix(0.05,0,0,0.05,82.9,0)" xlink:href="#N"/><use transform="matrix(0.05,0,0,0.05,93.4,0)" xlink:href="#O"/></g><g id="k"><use transform="matrix(0.05,0,0,0.05,0,0)" xlink:href="#I"/><use transform="matrix(0.05,0,0,0.05,12.950000000000001,0)" xlink:href="#J"/><use transform="matrix(0.05,0,0,0.05,24.950000000000003,0)" xlink:href="#s"/><use transform="matrix(0.05,0,0,0.05,34.95,0)" xlink:href="#K"/><use transform="matrix(0.05,0,0,0.05,44.95,0)" xlink:href="#L"/><use transform="matrix(0.05,0,0,0.05,54.95,0)" xlink:href="#z"/><use transform="matrix(0.05,0,0,0.05,58.900000000000006,0)" xlink:href="#w"/><use transform="matrix(0.05,0,0,0.05,68.9,0)" xlink:href="#D"/><use transform="matrix(0.05,0,0,0.05,73.9,0)" xlink:href="#M"/></g><path fill="#333" d="M18-100v-36l175-74v27L42-118l151 64v27" id="P"/><path fill="#333" d="M18-150v-26h174v26H18zm0 90v-26h174v26H18" id="Q"/><g id="l"><use transform="matrix(0.05,0,0,0.05,0,0)" xlink:href="#P"/><use transform="matrix(0.05,0,0,0.05,10.5,0)" xlink:href="#Q"/><use transform="matrix(0.05,0,0,0.05,21,0)" xlink:href="#O"/></g><path fill="#333" d="M27 0v-27h64v-190l-56 39v-29l58-41h29v221h61V0H27" id="R"/><g id="m"><use transform="matrix(0.05,0,0,0.05,0,0)" xlink:href="#I"/><use transform="matrix(0.05,0,0,0.05,12.950000000000001,0)" xlink:href="#J"/><use transform="matrix(0.05,0,0,0.05,24.950000000000003,0)" xlink:href="#s"/><use transform="matrix(0.05,0,0,0.05,34.95,0)" xlink:href="#K"/><use transform="matrix(0.05,0,0,0.05,44.95,0)" xlink:href="#L"/><use transform="matrix(0.05,0,0,0.05,54.95,0)" xlink:href="#z"/><use transform="matrix(0.05,0,0,0.05,58.900000000000006,0)" xlink:href="#w"/><use transform="matrix(0.05,0,0,0.05,68.9,0)" xlink:href="#D"/><use transform="matrix(0.05,0,0,0.05,73.9,0)" xlink:href="#M"/><use transform="matrix(0.05,0,0,0.05,82.9,0)" xlink:href="#P"/><use transform="matrix(0.05,0,0,0.05,93.4,0)" xlink:href="#R"/><use transform="matrix(0.05,0,0,0.05,103.4,0)" xlink:href="#O"/><use transform="matrix(0.05,0,0,0.05,113.4,0)" xlink:href="#O"/></g><g id="n"><use transform="matrix(0.05,0,0,0.05,0,0)" xlink:href="#Q"/><use transform="matrix(0.05,0,0,0.05,10.5,0)" xlink:href="#Q"/></g><g id="o"><use transform="matrix(0.05,0,0,0.05,0,0)" xlink:href="#R"/><use transform="matrix(0.05,0,0,0.05,10,0)" xlink:href="#O"/><use transform="matrix(0.05,0,0,0.05,20,0)" xlink:href="#O"/></g><g id="p"><use transform="matrix(0.05,0,0,0.05,0,0)" xlink:href="#A"/><use transform="matrix(0.05,0,0,0.05,5,0)" xlink:href="#u"/><use transform="matrix(0.05,0,0,0.05,15,0)" xlink:href="#F"/><use transform="matrix(0.05,0,0,0.05,18.95,0)" xlink:href="#F"/><use transform="matrix(0.05,0,0,0.05,22.9,0)" xlink:href="#s"/><use transform="matrix(0.05,0,0,0.05,32.9,0)" xlink:href="#E"/><use transform="matrix(0.05,0,0,0.05,38.85,0)" xlink:href="#B"/><use transform="matrix(0.05,0,0,0.05,48.85,0)" xlink:href="#M"/><use transform="matrix(0.05,0,0,0.05,57.85,0)" xlink:href="#D"/><use transform="matrix(0.05,0,0,0.05,62.85,0)" xlink:href="#L"/><use transform="matrix(0.05,0,0,0.05,72.85,0)" xlink:href="#E"/><use transform="matrix(0.05,0,0,0.05,78.8,0)" xlink:href="#B"/><use transform="matrix(0.05,0,0,0.05,88.8,0)" xlink:href="#s"/><use transform="matrix(0.05,0,0,0.05,98.8,0)" xlink:href="#t"/><use transform="matrix(0.05,0,0,0.05,108.80000000000001,0)" xlink:href="#B"/><use transform="matrix(0.05,0,0,0.05,118.80000000000001,0)" xlink:href="#q"/><use transform="matrix(0.05,0,0,0.05,128.8,0)" xlink:href="#F"/><use transform="matrix(0.05,0,0,0.05,132.75,0)" xlink:href="#D"/><use transform="matrix(0.05,0,0,0.05,137.75,0)" xlink:href="#t"/><use transform="matrix(0.05,0,0,0.05,147.75,0)" xlink:href="#x"/><use transform="matrix(0.05,0,0,0.05,153.7,0)" xlink:href="#y"/></g></defs></g></svg>