<svg xmlns="http://www.w3.org/2000/svg" xmlns:xlink="http://www.w3.org/1999/xlink" xmlns:lucid="lucid" width="4480" height="971"><g transform="translate(-400 -199.03430748259507)" lucid:page-tab-id="0_0"><path d="M0 0h5073.12v1277.75H0z" fill="#fff"/><path d="M420 585.67c0-4.42 3.58-8 8-8h84c4.42 0 8 3.58 8 8v4.92c0 3.9-2.24 9.3-5 12.07-2.76 2.76-8.17 5-12.07 5H428c-4.42 0-8-3.6-8-8z" fill="#fff"/><path d="M520 577.67v20l-10 10h-90" stroke="#333" fill="none"/><path d="M420 585.67c0-4.42 3.58-8 8-8h764c4.42 0 8 3.58 8 8v347.4c0 4.4-3.58 8-8 8H428c-4.42 0-8-3.6-8-8z" stroke="#333" fill="none"/><use xlink:href="#a" transform="matrix(1,0,0,1,428,577.6655519423589) translate(21.24691358024691 18.555555555555557)"/><use xlink:href="#b" transform="matrix(1,0,0,1,432,615.6655519423589) translate(10.469135802469111 18.555555555555557)"/><use xlink:href="#c" transform="matrix(1,0,0,1,432,615.6655519423589) translate(60.69135802469134 18.555555555555557)"/><path d="M698.7 342.5v10m0 10.02v20.02m0 10v20.03m0 10v20.03m0 10v20.03m0 10v20.04m0 10v20.03m0 10v20.03m0 10v20.03m0 10v20.03m0 10v20.02m0 10v20.03m0 10v20.03m0 10v20.03m0 10.02v20.02m0 10v20.03m0 10v20.04m0 10.02v20.02m0 10v20.03m0 10v20.03m0 10v20.03m0 10v20.03m0 10v20.03m0 10v20.02m0 10v20.03m0 10v20.03m0 10v20.04m0 10v10.02" stroke="#333" fill="none"/><path d="M699.2 342.5h-1v-.5h1z" fill="#333"/><path d="M698.7 1153.32v.52" stroke="#333" fill="none"/><path d="M679.76 628c0-4.42 3.58-8 8-8h24c4.42 0 8 3.58 8 8v144c0 4.42-3.58 8-8 8h-24c-4.42 0-8-3.58-8-8z" stroke="#f2f2f2" fill="#ced4db"/><path d="M603.65 228c0-4.42 3.58-8 8-8h174.07c4.42 0 8 3.58 8 8v106c0 4.42-3.58 8-8 8H611.65c-4.42 0-8-3.58-8-8z" stroke="#000" stroke-opacity="0" fill="#ffaf28"/><use xlink:href="#d" transform="matrix(1,0,0,1,611.6496896262572,228) translate(61.37654320987654 56.55555555555555)"/><path d="M1055.04 341.53v9.7m0 9.68v19.4m0 9.67v19.38m0 9.7v19.36m0 9.7v19.38m0 9.7v19.36m0 9.7v19.37m0 9.7v19.37m0 9.7v19.36m0 9.7v19.37m0 9.68v19.38m0 9.7v19.36m0 9.7v19.37m0 9.68v19.37m0 9.7v9.68l.78 1.88 1.88.8 1.88.77.78 1.88v9.68m0 9.7v19.37m0 9.7v19.36m0 9.7v19.37m0 9.68v19.4m0 9.68v19.37m0 9.7v19.37m0 9.68v19.38m0 9.7v19.36m0 9.7V1025m0 9.7v19.37m0 9.7v19.37m0 9.68v19.38m0 9.7v19.36m0 9.7v9.68" stroke="#333" fill="none"/><path d="M1055.54 341.55h-1v-.52h1z" fill="#333"/><path d="M1060.36 1160.63v.5" stroke="#333" fill="none"/><path d="M1040.36 607.03c0-4.4 3.58-8 8-8h24c4.4 0 8 3.6 8 8v164c0 4.42-3.6 8-8 8h-24c-4.42 0-8-3.58-8-8z" stroke="#f2f2f2" fill="#ced4db"/><path d="M960 227.03c0-4.4 3.58-8 8-8h174.08c4.4 0 8 3.6 8 8v106c0 4.42-3.6 8-8 8H968c-4.42 0-8-3.58-8-8z" stroke="#000" stroke-opacity="0" fill="#ffcc78"/><use xlink:href="#e" transform="matrix(1,0,0,1,967.9999999999999,227.03430748259507) translate(58.907407407407405 56.55555555555555)"/><path d="M720.64 627.36H879.3c.4 0 .7-.3.7-.7 0-.38.3-.7.7-.7h142.77" stroke="#333" fill="none"/><path d="M720.65 627.86h-.4l-.2-1h.6z" fill="#333"/><path d="M1038.24 625.97l-14.27 4.63v-9.27z" stroke="#333" fill="#333"/><use xlink:href="#f" transform="matrix(1,0,0,1,719.0824967224338,601.7578983502757) translate(0.0049999999999954525 14.4)"/><path d="M1039.36 666.3H880.54c-.27 0-.48.23-.48.5 0 .26-.22.48-.48.48H736.64" stroke="#333" fill="none"/><path d="M1039.86 666.8h-.52v-1h.52z" fill="#333"/><path d="M721.88 667.28l14.26-4.64v9.27z" stroke="#333" fill="#333"/><use xlink:href="#g" transform="matrix(1,0,0,1,756.5669952331901,671.2788955439945) translate(0.004999999999999005 14.4)"/><path d="M720.68 772.46h158.9c.26 0 .48-.2.48-.48 0-.27.2-.48.48-.48h143.02" stroke="#333" fill="none"/><path d="M720.7 772.96h-.62l.18-.9v-.1h.43z" fill="#333"/><path d="M1038.32 771.5l-14.26 4.63v-9.27z" stroke="#333" fill="#333"/><use xlink:href="#h" transform="matrix(1,0,0,1,765.8034927784163,776.4642438985786) translate(0.004999999999999005 14.4)"/><path d="M719.76 708c0-4.42 3.58-8 8-8h84c4.42 0 8 3.58 8 8v4.93c0 3.9-2.24 9.3-5 12.07-2.76 2.76-8.16 5-12.07 5h-74.94c-4.42 0-8-3.58-8-8z" fill="#fff"/><path d="M819.76 700v20l-10 10h-90" stroke="#333" fill="none"/><path d="M719.76 708c0-4.42 3.58-8 8-8H1032c4.42 0 8 3.58 8 8v144c0 4.42-3.58 8-8 8H727.76c-4.42 0-8-3.58-8-8zM719.76 823.2h20m15 0h20m15 0h20m15 0h20m15 0h20m15 0h20m15 0h20m15 0h20m15 0h20m15 0h5.24" stroke="#333" fill="none"/><use xlink:href="#i" transform="matrix(1,0,0,1,727.7608452295065,700) translate(-1.4249999999999972 18.6)"/><use xlink:href="#j" transform="matrix(1,0,0,1,731.7608452295065,738) translate(4.900000000000006 18.6)"/><use xlink:href="#k" transform="matrix(1,0,0,1,731.7608452295065,738) translate(72.85000000000001 18.6)"/><use xlink:href="#l" transform="matrix(1,0,0,1,731.7608452295065,738) translate(98.85000000000001 18.6)"/><path d="M1320 585.67c0-4.42 3.58-8 8-8h84c4.42 0 8 3.58 8 8v4.92c0 3.9-2.24 9.3-5 12.07-2.76 2.76-8.17 5-12.07 5H1328c-4.42 0-8-3.6-8-8z" fill="#fff"/><path d="M1420 577.67v20l-10 10h-90" stroke="#333" fill="none"/><path d="M1320 585.67c0-4.42 3.58-8 8-8h764c4.42 0 8 3.58 8 8v347.4c0 4.4-3.58 8-8 8h-764c-4.42 0-8-3.6-8-8z" stroke="#333" fill="none"/><use xlink:href="#m" transform="matrix(1,0,0,1,1328,577.6655519423589) translate(21.24691358024691 18.555555555555557)"/><use xlink:href="#n" transform="matrix(1,0,0,1,1332,615.6655519423589) translate(10.469135802469111 18.555555555555557)"/><use xlink:href="#o" transform="matrix(1,0,0,1,1332,615.6655519423589) translate(60.69135802469134 18.555555555555557)"/><path d="M1598.7 342.5v10m0 10.02v20.02m0 10v20.03m0 10v20.03m0 10v20.03m0 10v20.04m0 10v20.03m0 10v20.03m0 10v20.03m0 10v20.03m0 10v20.02m0 10v20.03m0 10v20.03m0 10v20.03m0 10.02v20.02m0 10v20.03m0 10v20.04m0 10.02v20.02m0 10v20.03m0 10v20.03m0 10v20.03m0 10v20.03m0 10v20.03m0 10v20.02m0 10v20.03m0 10v20.03m0 10v20.04m0 10v10.02" stroke="#333" fill="none"/><path d="M1599.2 342.5h-1v-.5h1z" fill="#333"/><path d="M1598.7 1153.32v.52" stroke="#333" fill="none"/><path d="M1579.76 628c0-4.42 3.58-8 8-8h24c4.42 0 8 3.58 8 8v224c0 4.42-3.58 8-8 8h-24c-4.42 0-8-3.58-8-8z" stroke="#f2f2f2" fill="#ced4db"/><path d="M1503.65 228c0-4.42 3.58-8 8-8h174.07c4.42 0 8 3.58 8 8v106c0 4.42-3.58 8-8 8h-174.07c-4.42 0-8-3.58-8-8z" stroke="#000" stroke-opacity="0" fill="#ffaf28"/><use xlink:href="#p" transform="matrix(1,0,0,1,1511.6496896262572,228) translate(67.4753086419753 56.55555555555555)"/><path d="M1955.04 341.53v9.7m0 9.68v19.4m0 9.67v19.38m0 9.7v19.36m0 9.7v19.38m0 9.7v19.36m0 9.7v19.37m0 9.7v19.37m0 9.7v19.36m0 9.7v19.37m0 9.68v19.38m0 9.7v19.36m0 9.7v19.37m0 9.68v19.37m0 9.7v9.68l.78 1.88 1.88.8 1.88.77.78 1.88v9.68m0 9.7v19.37m0 9.7v19.36m0 9.7v19.37m0 9.68v19.4m0 9.68v19.37m0 9.7v19.37m0 9.68v19.38m0 9.7v19.36m0 9.7V1025m0 9.7v19.37m0 9.7v19.37m0 9.68v19.38m0 9.7v19.36m0 9.7v9.68" stroke="#333" fill="none"/><path d="M1955.54 341.55h-1v-.52h1z" fill="#333"/><path d="M1960.36 1160.63v.5" stroke="#333" fill="none"/><path d="M1940.36 607.03c0-4.4 3.58-8 8-8h24c4.4 0 8 3.6 8 8v164c0 4.42-3.6 8-8 8h-24c-4.42 0-8-3.58-8-8z" stroke="#f2f2f2" fill="#ced4db"/><path d="M1860 227.03c0-4.4 3.58-8 8-8h174.08c4.4 0 8 3.6 8 8v106c0 4.42-3.6 8-8 8H1868c-4.42 0-8-3.58-8-8z" stroke="#000" stroke-opacity="0" fill="#ffcc78"/><use xlink:href="#e" transform="matrix(1,0,0,1,1868,227.03430748259507) translate(58.907407407407405 56.55555555555555)"/><path d="M1620.64 627.36h158.66c.4 0 .7-.3.7-.7 0-.38.3-.7.7-.7h142.77" stroke="#333" fill="none"/><path d="M1620.65 627.86h-.4l-.2-1h.6z" fill="#333"/><path d="M1938.24 625.97l-14.27 4.63v-9.27z" stroke="#333" fill="#333"/><use xlink:href="#q" transform="matrix(1,0,0,1,1620.5838547398778,601.7578983502757) translate(0.0049999999999954525 14.4)"/><path d="M1939.36 666.3h-158.82c-.27 0-.48.23-.48.5 0 .26-.22.48-.48.48h-142.94" stroke="#333" fill="none"/><path d="M1939.86 666.8h-.52v-1h.52z" fill="#333"/><path d="M1621.88 667.28l14.26-4.64v9.27z" stroke="#333" fill="#333"/><use xlink:href="#r" transform="matrix(1,0,0,1,1660.568752555643,671.2788955439945) translate(0.004999999999999005 14.4)"/><path d="M1620.76 772.56h158.8c.3 0 .54-.24.54-.53 0-.3.24-.53.53-.53h142.93" stroke="#333" fill="none"/><path d="M1620.77 773.06h-.5v-1h.5z" fill="#333"/><path d="M1938.32 771.5l-14.26 4.63v-9.27z" stroke="#333" fill="#333"/><use xlink:href="#s" transform="matrix(1,0,0,1,1661.36835956845,776.5562716836799) translate(0.004999999999999005 14.4)"/><path d="M1619.76 708c0-4.42 3.58-8 8-8h84c4.42 0 8 3.58 8 8v4.93c0 3.9-2.24 9.3-5 12.07-2.76 2.76-8.16 5-12.07 5h-74.94c-4.42 0-8-3.58-8-8z" fill="#fff"/><path d="M1719.76 700v20l-10 10h-90" stroke="#333" fill="none"/><path d="M1619.76 708c0-4.42 3.58-8 8-8H1932c4.42 0 8 3.58 8 8v184c0 4.42-3.58 8-8 8h-304.24c-4.42 0-8-3.58-8-8zM1619.76 800h20m15 0h20m15 0h20m15 0h20m15 0h20m15 0h20m15 0h20m15 0h20m15 0h20m15 0h5.24" stroke="#333" fill="none"/><use xlink:href="#i" transform="matrix(1,0,0,1,1627.7608452295062,700) translate(-1.4249999999999972 18.6)"/><use xlink:href="#t" transform="matrix(1,0,0,1,1631.7608452295062,738) translate(8.899999999999999 18.6)"/><use xlink:href="#k" transform="matrix(1,0,0,1,1631.7608452295062,738) translate(68.85 18.6)"/><use xlink:href="#l" transform="matrix(1,0,0,1,1631.7608452295062,738) translate(94.85 18.6)"/><path d="M1620.76 824h27.5c6.63 0 12 5.38 12 12v6.17c0 6.63-5.37 12-12 12h-12.04" stroke="#333" fill="none"/><path d="M1620.77 824.5h-.5v-1h.5z" fill="#333"/><path d="M1621.45 854.17l14.27-4.64v9.27z" stroke="#333" fill="#333"/><use xlink:href="#u" transform="matrix(1,0,0,1,1668.2608452295065,828.5036496060122) translate(0.005000000000002558 14.4)"/><path d="M2240 586.63c0-4.42 3.58-8 8-8h84c4.42 0 8 3.58 8 8v4.93c0 3.9-2.24 9.3-5 12.07-2.76 2.76-8.17 5-12.07 5H2248c-4.42 0-8-3.58-8-8z" fill="#fff"/><path d="M2340 578.63v20l-10 10h-90" stroke="#333" fill="none"/><path d="M2240 586.63c0-4.42 3.58-8 8-8h764c4.42 0 8 3.58 8 8V1012c0 4.42-3.58 8-8 8h-764c-4.42 0-8-3.58-8-8z" stroke="#333" fill="none"/><use xlink:href="#m" transform="matrix(1,0,0,1,2248,578.6312444597638) translate(21.24691358024691 18.555555555555557)"/><use xlink:href="#n" transform="matrix(1,0,0,1,2252,616.6312444597638) translate(10.469135802469111 18.555555555555557)"/><use xlink:href="#o" transform="matrix(1,0,0,1,2252,616.6312444597638) translate(60.69135802469134 18.555555555555557)"/><path d="M2518.7 343.47v10m0 10.02v20m0 10.02v20.02m0 10v20.03m0 10v20.03m0 10v20.03m0 10v20.03m0 10v20.03m0 10v20.02m0 10v20.03m0 10v20.04m0 10v20.02m0 10v20.03m0 10v20.03m0 10v20.03m0 10.02v20.02m0 10v20.03m0 10V864m0 10v20.03m0 10v20.03m0 10v20.04m0 10v20.03m0 10v20.03m0 10v20.03m0 10v20.02m0 10v20.03m0 10v20.03m0 10v10.02" stroke="#333" fill="none"/><path d="M2519.2 343.48h-1v-.5h1z" fill="#333"/><path d="M2518.7 1154.3v.5" stroke="#333" fill="none"/><path d="M2499.76 628.97c0-4.42 3.58-8 8-8h24c4.42 0 8 3.58 8 8V892c0 4.42-3.58 8-8 8h-24c-4.42 0-8-3.58-8-8z" stroke="#f2f2f2" fill="#ced4db"/><path d="M2423.65 228.97c0-4.42 3.58-8 8-8h174.07c4.42 0 8 3.58 8 8v106c0 4.4-3.58 8-8 8h-174.07c-4.42 0-8-3.6-8-8z" stroke="#000" stroke-opacity="0" fill="#ffaf28"/><use xlink:href="#v" transform="matrix(1,0,0,1,2431.649689626257,228.96569251740493) translate(54.98148148148148 56.55555555555555)"/><path d="M2875.04 342.5v9.7m0 9.68v19.37m0 9.7v19.37m0 9.68v19.38m0 9.7v19.36m0 9.7v19.37m0 9.7v19.37m0 9.7v19.36m0 9.7v19.37m0 9.7v19.36m0 9.7v19.37m0 9.68v19.4m0 9.68v19.37m0 9.7V730m0 9.7v9.67l.78 1.87 1.88.78 1.88.78.78 1.88v9.7m0 9.7v19.36m0 9.7v19.37m0 9.68v19.4m0 9.68v19.37m0 9.7v19.37m0 9.7v19.36m0 9.7v19.37m0 9.68v19.38m0 9.7v19.37m0 9.7v19.37m0 9.7v19.36m0 9.7v19.37m0 9.68v19.38m0 9.7v9.67" stroke="#333" fill="none"/><path d="M2875.54 342.5h-1v-.5h1z" fill="#333"/><path d="M2880.36 1161.6v.5" stroke="#333" fill="none"/><path d="M2860.36 608c0-4.42 3.58-8 8-8h24c4.4 0 8 3.58 8 8v64c0 4.42-3.6 8-8 8h-24c-4.42 0-8-3.58-8-8z" stroke="#f2f2f2" fill="#ced4db"/><path d="M2780 228c0-4.42 3.58-8 8-8h174.08c4.4 0 8 3.58 8 8v106c0 4.42-3.6 8-8 8H2788c-4.42 0-8-3.58-8-8z" stroke="#000" stroke-opacity="0" fill="#ffcc78"/><use xlink:href="#e" transform="matrix(1,0,0,1,2787.9999999999995,228) translate(58.907407407407405 56.55555555555555)"/><path d="M2540.64 628.32h158.66c.4 0 .7-.3.7-.7 0-.38.3-.7.7-.7h142.77" stroke="#333" fill="none"/><path d="M2540.65 628.82h-.4l-.2-1h.6z" fill="#333"/><path d="M2858.24 626.93l-14.27 4.64v-9.27z" stroke="#333" fill="#333"/><use xlink:href="#q" transform="matrix(1,0,0,1,2540.5838547398776,602.7235908676806) translate(0.0049999999999954525 14.4)"/><path d="M2859.36 667.28h-158.82c-.27 0-.48.22-.48.48 0 .27-.22.48-.48.48h-142.94" stroke="#333" fill="none"/><path d="M2859.86 667.78h-.52v-1h.52z" fill="#333"/><path d="M2541.88 668.24l14.26-4.63v9.28z" stroke="#333" fill="#333"/><use xlink:href="#r" transform="matrix(1,0,0,1,2580.5687525556427,672.2445880613996) translate(0.004999999999999005 14.4)"/><path d="M2540.76 769.7h27.5c6.63 0 12 5.37 12 12v27.2c0 6.64-5.37 12-12 12h-11.62" stroke="#333" fill="none"/><path d="M2540.77 770.2h-.5v-1h.5z" fill="#333"/><path d="M2541.88 820.9l14.26-4.63v9.27z" stroke="#333" fill="#333"/><use xlink:href="#w" transform="matrix(1,0,0,1,2463.360845229506,773.6984469530727) translate(0.0049999999999954525 14.4)"/><path d="M2539.76 708.97c0-4.42 3.58-8 8-8h84c4.42 0 8 3.58 8 8v4.92c0 3.9-2.24 9.3-5 12.07-2.76 2.76-8.16 5-12.07 5h-74.94c-4.42 0-8-3.6-8-8z" fill="#fff"/><path d="M2639.76 700.97v20l-10 10h-90" stroke="#333" fill="none"/><path d="M2539.76 708.97c0-4.42 3.58-8 8-8H2852c4.42 0 8 3.58 8 8V972c0 4.42-3.58 8-8 8h-304.24c-4.42 0-8-3.58-8-8zM2539.76 921.4h20m15 0h20m15 0h20m15 0h20m15 0h20m15 0h20m15 0h20m15 0h20m15 0h20m15 0h5.24" stroke="#333" fill="none"/><use xlink:href="#i" transform="matrix(1,0,0,1,2547.760845204413,700.965692517405) translate(-1.4249999999999972 18.6)"/><use xlink:href="#t" transform="matrix(1,0,0,1,2551.760845204413,738.965692517405) translate(8.899999999999999 18.6)"/><use xlink:href="#k" transform="matrix(1,0,0,1,2551.760845204413,738.965692517405) translate(68.85 18.6)"/><use xlink:href="#l" transform="matrix(1,0,0,1,2551.760845204413,738.965692517405) translate(94.85 18.6)"/><path d="M2540.76 837.98h27.5c6.63 0 12 5.37 12 12v30.18c0 6.62-5.37 12-12 12h-11.64" stroke="#333" fill="none"/><path d="M2540.77 838.48h-.5v-1h.5z" fill="#333"/><path d="M2541.86 892.16l14.26-4.64v9.27z" stroke="#333" fill="#333"/><use xlink:href="#x" transform="matrix(1,0,0,1,2457.9108452295063,841.9781478924583) translate(0.0049999999999954525 14.4)"/><path d="M3160 587.6c0-4.42 3.58-8 8-8h84c4.42 0 8 3.58 8 8v4.93c0 3.9-2.24 9.3-5 12.07-2.76 2.76-8.17 5-12.07 5H3168c-4.42 0-8-3.58-8-8z" fill="#fff"/><path d="M3260 579.6v20l-10 10h-90" stroke="#333" fill="none"/><path d="M3160 587.6c0-4.42 3.58-8 8-8h764c4.42 0 8 3.58 8 8V935c0 4.4-3.58 8-8 8h-764c-4.42 0-8-3.6-8-8z" stroke="#333" fill="none"/><use xlink:href="#m" transform="matrix(1,0,0,1,3168,579.5969369771688) translate(21.24691358024691 18.555555555555557)"/><use xlink:href="#n" transform="matrix(1,0,0,1,3172,617.5969369771688) translate(10.469135802469111 18.555555555555557)"/><use xlink:href="#o" transform="matrix(1,0,0,1,3172,617.5969369771688) translate(60.69135802469134 18.555555555555557)"/><path d="M3438.7 344.43v10m0 10.02v20.02m0 10v20.03m0 10v20.03m0 10v20.04m0 10v20.03m0 10v20.03m0 10v20.03m0 10v20.03m0 10v20.02m0 10v20.03m0 10v20.03m0 10v20.03m0 10.02v20.02m0 10v20.04m0 10v20.03m0 10.02v20.02m0 10v20.03m0 10V895m0 10v20.03m0 10v20.03m0 10v20.03m0 10v20.02m0 10v20.03m0 10v20.03m0 10v20.04m0 10v20.03m0 10v10.02" stroke="#333" fill="none"/><path d="M3439.2 344.44h-1v-.5h1z" fill="#333"/><path d="M3438.7 1155.25v.52" stroke="#333" fill="none"/><path d="M3419.76 629.93c0-4.42 3.58-8 8-8h24c4.42 0 8 3.58 8 8V772c0 4.42-3.58 8-8 8h-24c-4.42 0-8-3.58-8-8z" stroke="#f2f2f2" fill="#ced4db"/><path d="M3343.65 229.93c0-4.42 3.58-8 8-8h174.07c4.42 0 8 3.58 8 8v106c0 4.42-3.58 8-8 8h-174.07c-4.42 0-8-3.58-8-8z" stroke="#000" stroke-opacity="0" fill="#ffaf28"/><use xlink:href="#y" transform="matrix(1,0,0,1,3351.6496896262574,229.93138503480986) translate(52.01851851851852 56.55555555555555)"/><path d="M3795.04 343.47v9.68m0 9.7v19.37m0 9.7v19.36m0 9.7v19.37m0 9.68v19.38m0 9.7v19.37m0 9.7v19.37m0 9.68v19.38m0 9.7v19.36m0 9.7v19.37m0 9.7v19.36m0 9.68v19.38m0 9.68v19.38m0 9.7v19.36m0 9.7v9.68l.78 1.88 1.88.78 1.88.78.78 1.88v9.68m0 9.7v19.37m0 9.7v19.36m0 9.68v19.38m0 9.68v19.38m0 9.7v19.36m0 9.7v19.37m0 9.7v19.36m0 9.7v19.38m0 9.68v19.38m0 9.7V1056m0 9.7v19.37m0 9.7v19.36m0 9.7v19.36m0 9.68v9.7" stroke="#333" fill="none"/><path d="M3795.54 343.48h-1v-.5h1z" fill="#333"/><path d="M3800.36 1162.56v.5" stroke="#333" fill="none"/><path d="M3780.36 608.97c0-4.42 3.58-8 8-8h24c4.4 0 8 3.58 8 8v164c0 4.4-3.6 8-8 8h-24c-4.42 0-8-3.6-8-8z" stroke="#f2f2f2" fill="#ced4db"/><path d="M3700 228.97c0-4.42 3.58-8 8-8h174.08c4.4 0 8 3.58 8 8v106c0 4.4-3.6 8-8 8H3708c-4.42 0-8-3.6-8-8z" stroke="#000" stroke-opacity="0" fill="#ffcc78"/><use xlink:href="#e" transform="matrix(1,0,0,1,3708,228.96569251740493) translate(58.907407407407405 56.55555555555555)"/><path d="M3460.64 629.3h158.66c.4 0 .7-.32.7-.7 0-.4.3-.7.7-.7h142.77" stroke="#333" fill="none"/><path d="M3460.65 629.8h-.4l-.2-1h.6z" fill="#333"/><path d="M3778.24 627.9l-14.27 4.63v-9.27z" stroke="#333" fill="#333"/><use xlink:href="#q" transform="matrix(1,0,0,1,3460.583854739878,603.6892833850856) translate(0.0049999999999954525 14.4)"/><path d="M3779.36 668.24h-158.82c-.27 0-.48.22-.48.5 0 .25-.22.47-.48.47h-142.94" stroke="#333" fill="none"/><path d="M3779.86 668.74h-.52v-1h.52z" fill="#333"/><path d="M3461.88 669.2l14.26-4.63v9.28z" stroke="#333" fill="#333"/><use xlink:href="#r" transform="matrix(1,0,0,1,3500.568752555643,673.2102805788044) translate(0.004999999999999005 14.4)"/><path d="M3460.48 773.46H3619.96v-.03h143.6" stroke="#333" fill="none"/><path d="M3460.5 773.96h-.63l.2-1h.42z" fill="#333"/><path d="M3778.32 773.43l-14.26 4.64v-9.28z" stroke="#333" fill="#333"/><use xlink:href="#h" transform="matrix(1,0,0,1,3505.6253260916415,777.4638845783202) translate(0.004999999999999005 14.4)"/><path d="M3459.76 709.93c0-4.42 3.58-8 8-8h84c4.42 0 8 3.58 8 8v4.93c0 3.9-2.24 9.3-5 12.07-2.76 2.76-8.16 5-12.07 5h-74.94c-4.42 0-8-3.58-8-8z" fill="#fff"/><path d="M3559.76 701.93v20l-10 10h-90" stroke="#333" fill="none"/><path d="M3459.76 709.93c0-4.42 3.58-8 8-8H3772c4.42 0 8 3.58 8 8V832c0 4.42-3.58 8-8 8h-304.24c-4.42 0-8-3.58-8-8zM3459.76 808.24h20m15 0h20m15 0h20m15 0h20m15 0h20m15 0h20m15 0h20m15 0h20m15 0h20m15 0h5.24" stroke="#333" fill="none"/><use xlink:href="#i" transform="matrix(1,0,0,1,3467.7608452295062,701.9313850348099) translate(-1.4249999999999972 18.6)"/><use xlink:href="#t" transform="matrix(1,0,0,1,3471.7608452295062,739.9313850348099) translate(8.899999999999999 18.6)"/><use xlink:href="#k" transform="matrix(1,0,0,1,3471.7608452295062,739.9313850348099) translate(68.85 18.6)"/><use xlink:href="#l" transform="matrix(1,0,0,1,3471.7608452295062,739.9313850348099) translate(94.85 18.6)"/><path d="M4080 588.56c0-4.42 3.58-8 8-8h84c4.42 0 8 3.58 8 8v4.93c0 3.9-2.24 9.3-5 12.06s-8.17 5-12.07 5H4088c-4.42 0-8-3.58-8-8z" fill="#fff"/><path d="M4180 580.56v20l-10 10h-90" stroke="#333" fill="none"/><path d="M4080 588.56c0-4.42 3.58-8 8-8h764c4.42 0 8 3.58 8 8v347.4c0 4.42-3.58 8-8 8h-764c-4.42 0-8-3.58-8-8z" stroke="#333" fill="none"/><use xlink:href="#m" transform="matrix(1,0,0,1,4088,580.5626294945737) translate(21.24691358024691 18.555555555555557)"/><use xlink:href="#n" transform="matrix(1,0,0,1,4092,618.5626294945737) translate(10.469135802469111 18.555555555555557)"/><use xlink:href="#o" transform="matrix(1,0,0,1,4092,618.5626294945737) translate(60.69135802469134 18.555555555555557)"/><path d="M4358.7 345.4v10m0 10.02v20.02m0 10v20.03m0 10v20.03m0 10v20.03m0 10v20.03m0 10v20.03m0 10v20.02m0 10v20.04m0 10v20.03m0 10v20.02m0 10v20.03m0 10v20.03m0 10v20.03m0 10.02v20.02m0 10v20.03m0 10v20.03m0 10v20.03m0 10v20.03m0 10V926m0 10v20.03m0 10v20.03m0 10v20.03m0 10v20.02m0 10v20.03m0 10v20.03m0 10v20.03m0 10.02v10" stroke="#333" fill="none"/><path d="M4359.2 345.4h-1v-.5h1z" fill="#333"/><path d="M4358.7 1156.22v.5" stroke="#333" fill="none"/><path d="M4339.76 630.9c0-4.42 3.58-8 8-8h24c4.42 0 8 3.58 8 8v142.07c0 4.4-3.58 8-8 8h-24c-4.42 0-8-3.6-8-8z" stroke="#f2f2f2" fill="#ced4db"/><path d="M4263.65 230.9c0-4.42 3.58-8 8-8h174.07c4.42 0 8 3.58 8 8v106c0 4.42-3.58 8-8 8h-174.07c-4.42 0-8-3.58-8-8z" stroke="#000" stroke-opacity="0" fill="#ffaf28"/><use xlink:href="#z" transform="matrix(1,0,0,1,4271.649689626258,230.8970775522148) translate(56.24074074074073 56.55555555555555)"/><path d="M4715.04 344.43v9.7m0 9.68v19.38m0 9.7v19.37m0 9.68v19.38m0 9.7v19.37m0 9.7v19.37m0 9.7v19.36m0 9.7v19.37m0 9.68v19.38m0 9.7v19.36m0 9.68v19.38m0 9.7v19.36m0 9.7v19.37m0 9.67v19.38m0 9.7v9.68l.78 1.88 1.88.78 1.88.78.78 1.88v9.7m0 9.68v19.37m0 9.68v19.38m0 9.7v19.36m0 9.7v19.37m0 9.67v19.38m0 9.7v19.36m0 9.7v19.38m0 9.7v19.36m0 9.7v19.37m0 9.7v19.37m0 9.7v19.36m0 9.7v19.37m0 9.68v19.38m0 9.7v9.68" stroke="#333" fill="none"/><path d="M4715.54 344.44h-1v-.5h1z" fill="#333"/><path d="M4720.36 1163.52v.52" stroke="#333" fill="none"/><path d="M4700.36 609.93c0-4.42 3.58-8 8-8h24c4.4 0 8 3.58 8 8v164c0 4.42-3.6 8-8 8h-24c-4.42 0-8-3.58-8-8z" stroke="#f2f2f2" fill="#ced4db"/><path d="M4620 229.93c0-4.42 3.58-8 8-8h174.08c4.4 0 8 3.58 8 8v106c0 4.42-3.6 8-8 8H4628c-4.42 0-8-3.58-8-8z" stroke="#000" stroke-opacity="0" fill="#ffcc78"/><use xlink:href="#e" transform="matrix(1,0,0,1,4628.000000000001,229.93138503480986) translate(58.907407407407405 56.55555555555555)"/><path d="M4380.64 630.25h158.66c.4 0 .7-.3.7-.7 0-.38.3-.7.7-.7h142.77" stroke="#333" fill="none"/><path d="M4380.65 630.75h-.4l-.2-1h.6z" fill="#333"/><path d="M4698.24 628.86l-14.27 4.64v-9.27z" stroke="#333" fill="#333"/><use xlink:href="#q" transform="matrix(1,0,0,1,4380.583854739878,604.6549759024903) translate(0.0049999999999954525 14.4)"/><path d="M4699.36 669.2h-158.82c-.27 0-.48.23-.48.5 0 .26-.22.48-.48.48h-142.94" stroke="#333" fill="none"/><path d="M4699.86 669.7h-.52v-1h.52z" fill="#333"/><path d="M4381.88 670.18l14.26-4.64v9.27z" stroke="#333" fill="#333"/><g><use xlink:href="#r" transform="matrix(1,0,0,1,4420.568752555642,674.1759730962093) translate(0.004999999999999005 14.4)"/></g><path d="M4380.48 774.43h159.46s.02 0 .02-.02h143.6" stroke="#333" fill="none"/><path d="M4380.5 774.93h-.63l.2-1h.42z" fill="#333"/><path d="M4698.32 774.4l-14.26 4.63v-9.27z" stroke="#333" fill="#333"/><g><use xlink:href="#A" transform="matrix(1,0,0,1,4385.224923992784,778.4295770957254) translate(0.005000000000002558 14.4)"/></g><path d="M4379.76 710.9c0-4.42 3.58-8 8-8h84c4.42 0 8 3.58 8 8v4.93c0 3.9-2.24 9.3-5 12.07-2.76 2.76-8.16 5-12.07 5h-74.94c-4.42 0-8-3.58-8-8z" fill="#fff"/><path d="M4479.76 702.9v20l-10 10h-90" stroke="#333" fill="none"/><path d="M4379.76 710.9c0-4.42 3.58-8 8-8H4692c4.42 0 8 3.58 8 8v122.07c0 4.4-3.58 8-8 8h-304.24c-4.42 0-8-3.6-8-8zM4379.76 794.97h20m15 0h20m15 0h20m15 0h20m15 0h20m15 0h20m15 0h20m15 0h20m15 0h20m15 0h5.24" stroke="#333" fill="none"/><g><use xlink:href="#i" transform="matrix(1,0,0,1,4387.760845229506,702.8970775522148) translate(-1.4249999999999972 18.6)"/></g><g><use xlink:href="#t" transform="matrix(1,0,0,1,4391.760845229506,740.8970775522148) translate(8.899999999999999 18.6)"/><use xlink:href="#k" transform="matrix(1,0,0,1,4391.760845229506,740.8970775522148) translate(68.85 18.6)"/><use xlink:href="#l" transform="matrix(1,0,0,1,4391.760845229506,740.8970775522148) translate(94.85 18.6)"/></g><defs><path fill="#333" d="M11 0l48-248h34L50-27h125l-5 27H11" id="B"/><path fill="#333" d="M30-147c31-64 166-65 159 27C183-49 158 1 86 4 9 8 1-88 30-147zM88-20c53 0 68-48 68-100 0-31-11-51-44-50-52 1-68 46-68 97 0 32 13 53 44 53" id="C"/><path fill="#333" d="M67-162c32-53 139-36 121 50C175-51 163 2 97 4 68 4 52-11 42-31 38 6 28 39 22 75H-9l50-265h29c-1 10 0 20-3 28zm89 36c0-26-10-43-35-43-54 0-67 50-69 103-1 29 14 45 42 46 53 0 62-58 62-106" id="D"/><g id="a"><use transform="matrix(0.04938271604938272,0,0,0.04938271604938272,0,0)" xlink:href="#B"/><use transform="matrix(0.04938271604938272,0,0,0.04938271604938272,9.876543209876544,0)" xlink:href="#C"/><use transform="matrix(0.04938271604938272,0,0,0.04938271604938272,19.75308641975309,0)" xlink:href="#C"/><use transform="matrix(0.04938271604938272,0,0,0.04938271604938272,29.629629629629633,0)" xlink:href="#D"/></g><path fill="#333" d="M188 0h-37l-8-164L71 0H34L18-190h31l8 164 75-164h34l8 164 74-164h31" id="E"/><path fill="#333" d="M67-158c15-20 31-36 64-36 94 0 33 127 27 194h-32l25-140c3-38-53-32-70-12C52-117 51-51 37 0H6l51-261h31" id="F"/><path fill="#333" d="M50-231l6-30h32l-6 30H50zM6 0l37-190h31L37 0H6" id="G"/><path fill="#333" d="M6 0l50-261h32L37 0H6" id="H"/><path fill="#333" d="M111-194c62-3 86 47 72 106H45c-7 38 6 69 45 68 27-1 43-14 53-32l24 11C152-15 129 4 87 4 38 3 12-23 12-71c0-70 32-119 99-123zm44 81c14-66-71-72-95-28-4 8-8 17-11 28h106" id="I"/><path fill="#333" d="M44-154l7-36h35l-8 36H44zM14 0l7-36h35L49 0H14" id="J"/><g id="b"><use transform="matrix(0.04938271604938272,0,0,0.04938271604938272,0,0)" xlink:href="#E"/><use transform="matrix(0.04938271604938272,0,0,0.04938271604938272,12.790123456790125,0)" xlink:href="#F"/><use transform="matrix(0.04938271604938272,0,0,0.04938271604938272,22.66666666666667,0)" xlink:href="#G"/><use transform="matrix(0.04938271604938272,0,0,0.04938271604938272,26.567901234567902,0)" xlink:href="#H"/><use transform="matrix(0.04938271604938272,0,0,0.04938271604938272,30.46913580246914,0)" xlink:href="#I"/><use transform="matrix(0.04938271604938272,0,0,0.04938271604938272,40.345679012345684,0)" xlink:href="#J"/></g><path fill="#333" d="M55-144c13 50 104 24 104 88C159 21 15 23 1-39l26-10c6 40 102 42 102-4-13-50-104-23-104-87 0-71 143-71 148-8l-29 4c-5-35-85-37-89 0" id="K"/><path fill="#333" d="M248-111c6-24 9-61-24-58-72 9-57 108-77 169h-31l26-142c3-37-50-30-64-10C52-115 50-51 37 0H6l36-190h30c-1 10-6 24-4 32 13-43 101-52 105 5 13-22 29-41 61-41 90 0 28 129 23 194h-31" id="L"/><path fill="#333" d="M67 3c-93-2-31-127-26-193h32L48-50c-3 39 53 32 70 12 30-34 30-101 43-152h32L157 0h-30c1-10 6-24 4-33-14 20-29 37-64 36" id="M"/><path fill="#333" d="M165-48c-4 18 1 34 23 27l-3 20c-29 8-62 0-52-35h-2C116-14 99 4 63 4 30 4 8-16 8-49c0-68 71-67 138-67 10-26 0-56-31-54-26 1-42 9-47 31l-32-5c8-67 160-71 144 15-5 28-9 54-15 81zM42-50c3 52 80 24 89-6 7-12 7-24 11-38-47 1-103-4-100 44" id="N"/><path fill="#333" d="M51-54c-9 22 5 41 31 30L79-1C43 14 10-4 19-52l22-115H19l5-23h22l19-43h21l-9 43h35l-4 23H73" id="O"/><path fill="#333" d="M67-158c22-48 132-52 116 29L158 0h-32l25-140c3-38-53-32-70-12C52-117 51-52 38 0H6l36-190h30" id="P"/><path fill="#333" d="M-28 44V31h207v13H-28" id="Q"/><path fill="#333" d="M66-151c12-25 30-51 66-40l-6 26C45-176 58-65 38 0H6l36-190h30" id="R"/><path fill="#333" d="M103-194c29 0 47 14 56 36 2-11 5-23 8-32h30L160-5C157 61 82 97 21 62 9 55 4 45 1 30l28-7c7 42 83 31 92-3 4-16 9-38 13-55-13 20-29 36-62 36-40 0-60-25-60-64 0-71 23-131 91-131zm4 24c-53 0-58 54-61 104-2 27 10 44 36 44 49 0 65-50 67-102 1-29-15-46-42-46" id="S"/><g id="c"><use transform="matrix(0.04938271604938272,0,0,0.04938271604938272,0,0)" xlink:href="#K"/><use transform="matrix(0.04938271604938272,0,0,0.04938271604938272,8.88888888888889,0)" xlink:href="#G"/><use transform="matrix(0.04938271604938272,0,0,0.04938271604938272,12.790123456790125,0)" xlink:href="#L"/><use transform="matrix(0.04938271604938272,0,0,0.04938271604938272,27.555555555555557,0)" xlink:href="#M"/><use transform="matrix(0.04938271604938272,0,0,0.04938271604938272,37.4320987654321,0)" xlink:href="#H"/><use transform="matrix(0.04938271604938272,0,0,0.04938271604938272,41.333333333333336,0)" xlink:href="#N"/><use transform="matrix(0.04938271604938272,0,0,0.04938271604938272,51.20987654320988,0)" xlink:href="#O"/><use transform="matrix(0.04938271604938272,0,0,0.04938271604938272,56.14814814814815,0)" xlink:href="#G"/><use transform="matrix(0.04938271604938272,0,0,0.04938271604938272,60.04938271604939,0)" xlink:href="#C"/><use transform="matrix(0.04938271604938272,0,0,0.04938271604938272,69.92592592592592,0)" xlink:href="#P"/><use transform="matrix(0.04938271604938272,0,0,0.04938271604938272,79.80246913580247,0)" xlink:href="#Q"/><use transform="matrix(0.04938271604938272,0,0,0.04938271604938272,89.67901234567901,0)" xlink:href="#R"/><use transform="matrix(0.04938271604938272,0,0,0.04938271604938272,95.55555555555556,0)" xlink:href="#M"/><use transform="matrix(0.04938271604938272,0,0,0.04938271604938272,105.4320987654321,0)" xlink:href="#P"/><use transform="matrix(0.04938271604938272,0,0,0.04938271604938272,115.30864197530865,0)" xlink:href="#P"/><use transform="matrix(0.04938271604938272,0,0,0.04938271604938272,125.18518518518519,0)" xlink:href="#G"/><use transform="matrix(0.04938271604938272,0,0,0.04938271604938272,129.08641975308643,0)" xlink:href="#P"/><use transform="matrix(0.04938271604938272,0,0,0.04938271604938272,138.962962962963,0)" xlink:href="#S"/></g><path fill="#333" d="M248-139C247-14 144 9 11 0l48-248c105-6 190 8 189 109zm-34 0c1-70-52-87-126-82L50-27c98 7 163-21 164-112" id="T"/><path fill="#333" d="M44-68c0 29 11 47 38 47 30 0 42-19 51-41l28 9C148-21 126 4 82 4 31 4 10-29 12-85c3-77 74-140 146-93 12 8 15 23 18 40l-31 5c-1-22-13-36-36-36-52 0-65 49-65 101" id="U"/><g id="d"><use transform="matrix(0.04938271604938272,0,0,0.04938271604938272,0,0)" xlink:href="#T"/><use transform="matrix(0.04938271604938272,0,0,0.04938271604938272,12.790123456790125,0)" xlink:href="#C"/><use transform="matrix(0.04938271604938272,0,0,0.04938271604938272,22.66666666666667,0)" xlink:href="#U"/><use transform="matrix(0.04938271604938272,0,0,0.04938271604938272,31.555555555555557,0)" xlink:href="#O"/><use transform="matrix(0.04938271604938272,0,0,0.04938271604938272,36.49382716049384,0)" xlink:href="#C"/><use transform="matrix(0.04938271604938272,0,0,0.04938271604938272,46.37037037037038,0)" xlink:href="#R"/><path fill="#333" d="M-.9 1.23h54.03v1.3H-.9z"/></g><path fill="#333" d="M179 0l23-115H67L45 0H11l48-248h34L72-143h135l21-105h32L212 0h-33" id="V"/><g id="e"><use transform="matrix(0.04938271604938272,0,0,0.04938271604938272,0,0)" xlink:href="#V"/><use transform="matrix(0.04938271604938272,0,0,0.04938271604938272,12.790123456790125,0)" xlink:href="#M"/><use transform="matrix(0.04938271604938272,0,0,0.04938271604938272,22.66666666666667,0)" xlink:href="#L"/><use transform="matrix(0.04938271604938272,0,0,0.04938271604938272,37.4320987654321,0)" xlink:href="#N"/><use transform="matrix(0.04938271604938272,0,0,0.04938271604938272,47.308641975308646,0)" xlink:href="#P"/><path fill="#333" d="M-.9 1.23h58.97v1.3H-.9z"/></g><path fill="#333" d="M96-169c-40 0-48 33-48 73s9 75 48 75c24 0 41-14 43-38l32 2c-6 37-31 61-74 61-59 0-76-41-82-99-10-93 101-131 147-64 4 7 5 14 7 22l-32 3c-4-21-16-35-41-35" id="W"/><path fill="#333" d="M106-169C34-169 62-67 57 0H25v-261h32l-1 103c12-21 28-36 61-36 89 0 53 116 60 194h-32v-121c2-32-8-49-39-48" id="X"/><path fill="#333" d="M100-194c63 0 86 42 84 106H49c0 40 14 67 53 68 26 1 43-12 49-29l28 8c-11 28-37 45-77 45C44 4 14-33 15-96c1-61 26-98 85-98zm52 81c6-60-76-77-97-28-3 7-6 17-6 28h103" id="Y"/><path fill="#333" d="M143 0L79-87 56-68V0H24v-261h32v163l83-92h37l-77 82L181 0h-38" id="Z"/><path fill="#333" d="M-5 72V49h209v23H-5" id="aa"/><path fill="#333" d="M24-231v-30h32v30H24zM24 0v-190h32V0H24" id="ab"/><path fill="#333" d="M101-234c-31-9-42 10-38 44h38v23H63V0H32v-167H5v-23h27c-7-52 17-82 69-68v24" id="ac"/><path fill="#333" d="M117-194c89-4 53 116 60 194h-32v-121c0-31-8-49-39-48C34-167 62-67 57 0H25l-1-190h30c1 10-1 24 2 32 11-22 29-35 61-36" id="ad"/><path fill="#333" d="M59-47c-2 24 18 29 38 22v24C64 9 27 4 27-40v-127H5v-23h24l9-43h21v43h35v23H59v120" id="ae"/><path fill="#333" d="M85-194c31 0 48 13 60 33l-1-100h32l1 261h-30c-2-10 0-23-3-31C134-8 116 4 85 4 32 4 16-35 15-94c0-66 23-100 70-100zm9 24c-40 0-46 34-46 75 0 40 6 74 45 74 42 0 51-32 51-76 0-42-9-74-50-73" id="af"/><path fill="#333" d="M87 75C49 33 22-17 22-94c0-76 28-126 65-167h31c-38 41-64 92-64 168S80 34 118 75H87" id="ag"/><path fill="#333" d="M33-261c38 41 65 92 65 168S71 34 33 75H2C39 34 66-17 66-93S39-220 2-261h31" id="ah"/><g id="f"><use transform="matrix(0.05,0,0,0.05,0,0)" xlink:href="#W"/><use transform="matrix(0.05,0,0,0.05,9,0)" xlink:href="#X"/><use transform="matrix(0.05,0,0,0.05,19,0)" xlink:href="#Y"/><use transform="matrix(0.05,0,0,0.05,29,0)" xlink:href="#W"/><use transform="matrix(0.05,0,0,0.05,38,0)" xlink:href="#Z"/><use transform="matrix(0.05,0,0,0.05,47,0)" xlink:href="#aa"/><use transform="matrix(0.05,0,0,0.05,57,0)" xlink:href="#ab"/><use transform="matrix(0.05,0,0,0.05,60.95,0)" xlink:href="#ac"/><use transform="matrix(0.05,0,0,0.05,65.95,0)" xlink:href="#aa"/><use transform="matrix(0.05,0,0,0.05,75.95,0)" xlink:href="#ab"/><use transform="matrix(0.05,0,0,0.05,79.9,0)" xlink:href="#ad"/><use transform="matrix(0.05,0,0,0.05,89.9,0)" xlink:href="#ac"/><use transform="matrix(0.05,0,0,0.05,94.9,0)" xlink:href="#Y"/><use transform="matrix(0.05,0,0,0.05,104.9,0)" xlink:href="#W"/><use transform="matrix(0.05,0,0,0.05,113.9,0)" xlink:href="#ae"/><use transform="matrix(0.05,0,0,0.05,118.9,0)" xlink:href="#Y"/><use transform="matrix(0.05,0,0,0.05,128.9,0)" xlink:href="#af"/><use transform="matrix(0.05,0,0,0.05,138.9,0)" xlink:href="#ag"/><use transform="matrix(0.05,0,0,0.05,144.85,0)" xlink:href="#ah"/></g><g id="g"><use transform="matrix(0.05,0,0,0.05,0,0)" xlink:href="#ab"/><use transform="matrix(0.05,0,0,0.05,3.95,0)" xlink:href="#ad"/><use transform="matrix(0.05,0,0,0.05,13.949999999999998,0)" xlink:href="#ac"/><use transform="matrix(0.05,0,0,0.05,18.95,0)" xlink:href="#Y"/><use transform="matrix(0.05,0,0,0.05,28.950000000000003,0)" xlink:href="#W"/><use transform="matrix(0.05,0,0,0.05,37.95,0)" xlink:href="#ae"/><use transform="matrix(0.05,0,0,0.05,42.95,0)" xlink:href="#Y"/><use transform="matrix(0.05,0,0,0.05,52.95,0)" xlink:href="#af"/></g><path fill="#333" d="M141-36C126-15 110 5 73 4 37 3 15-17 15-53c-1-64 63-63 125-63 3-35-9-54-41-54-24 1-41 7-42 31l-33-3c5-37 33-52 76-52 45 0 72 20 72 64v82c-1 20 7 32 28 27v20c-31 9-61-2-59-35zM48-53c0 20 12 33 32 33 41-3 63-29 60-74-43 2-92-5-92 41" id="ai"/><path fill="#333" d="M24 0v-261h32V0H24" id="aj"/><g id="h"><use transform="matrix(0.05,0,0,0.05,0,0)" xlink:href="#X"/><use transform="matrix(0.05,0,0,0.05,10,0)" xlink:href="#Y"/><use transform="matrix(0.05,0,0,0.05,20,0)" xlink:href="#ai"/><use transform="matrix(0.05,0,0,0.05,30,0)" xlink:href="#aj"/><use transform="matrix(0.05,0,0,0.05,33.95,0)" xlink:href="#ag"/><use transform="matrix(0.05,0,0,0.05,39.900000000000006,0)" xlink:href="#ah"/></g><path fill="#333" d="M205 0l-28-72H64L36 0H1l101-248h38L239 0h-34zm-38-99l-47-123c-12 45-31 82-46 123h93" id="ak"/><path fill="#333" d="M114-163C36-179 61-72 57 0H25l-1-190h30c1 12-1 29 2 39 6-27 23-49 58-41v29" id="al"/><path fill="#333" d="M108 0H70L1-190h34L89-25l56-165h34" id="am"/><g id="i"><use transform="matrix(0.05,0,0,0.05,0,0)" xlink:href="#ak"/><use transform="matrix(0.05,0,0,0.05,12,0)" xlink:href="#aj"/><use transform="matrix(0.05,0,0,0.05,15.949999999999998,0)" xlink:href="#ae"/><use transform="matrix(0.05,0,0,0.05,20.95,0)" xlink:href="#Y"/><use transform="matrix(0.05,0,0,0.05,30.950000000000003,0)" xlink:href="#al"/><use transform="matrix(0.05,0,0,0.05,36.9,0)" xlink:href="#ad"/><use transform="matrix(0.05,0,0,0.05,46.9,0)" xlink:href="#ai"/><use transform="matrix(0.05,0,0,0.05,56.900000000000006,0)" xlink:href="#ae"/><use transform="matrix(0.05,0,0,0.05,61.900000000000006,0)" xlink:href="#ab"/><use transform="matrix(0.05,0,0,0.05,65.85,0)" xlink:href="#am"/><use transform="matrix(0.05,0,0,0.05,74.85,0)" xlink:href="#Y"/></g><g id="j"><use transform="matrix(0.05,0,0,0.05,0,0)" xlink:href="#ab"/><use transform="matrix(0.05,0,0,0.05,3.95,0)" xlink:href="#ad"/><use transform="matrix(0.05,0,0,0.05,13.949999999999998,0)" xlink:href="#ac"/><use transform="matrix(0.05,0,0,0.05,18.95,0)" xlink:href="#Y"/><use transform="matrix(0.05,0,0,0.05,28.950000000000003,0)" xlink:href="#W"/><use transform="matrix(0.05,0,0,0.05,37.95,0)" xlink:href="#ae"/><use transform="matrix(0.05,0,0,0.05,42.95,0)" xlink:href="#Y"/><use transform="matrix(0.05,0,0,0.05,52.95,0)" xlink:href="#af"/></g><path fill="#333" d="M18-150v-26h174v26H18zm0 90v-26h174v26H18" id="an"/><g id="k"><use transform="matrix(0.05,0,0,0.05,0,0)" xlink:href="#an"/><use transform="matrix(0.05,0,0,0.05,10.5,0)" xlink:href="#an"/></g><path fill="#333" d="M127-220V0H93v-220H8v-28h204v28h-85" id="ao"/><path fill="#333" d="M84 4C-5 8 30-112 23-190h32v120c0 31 7 50 39 49 72-2 45-101 50-169h31l1 190h-30c-1-10 1-25-2-33-11 22-28 36-60 37" id="ap"/><g id="l"><use transform="matrix(0.05,0,0,0.05,0,0)" xlink:href="#ao"/><use transform="matrix(0.05,0,0,0.05,10.3,0)" xlink:href="#al"/><use transform="matrix(0.05,0,0,0.05,16.25,0)" xlink:href="#ap"/><use transform="matrix(0.05,0,0,0.05,26.25,0)" xlink:href="#Y"/></g><g id="m"><use transform="matrix(0.04938271604938272,0,0,0.04938271604938272,0,0)" xlink:href="#B"/><use transform="matrix(0.04938271604938272,0,0,0.04938271604938272,9.876543209876544,0)" xlink:href="#C"/><use transform="matrix(0.04938271604938272,0,0,0.04938271604938272,19.75308641975309,0)" xlink:href="#C"/><use transform="matrix(0.04938271604938272,0,0,0.04938271604938272,29.629629629629633,0)" xlink:href="#D"/></g><g id="n"><use transform="matrix(0.04938271604938272,0,0,0.04938271604938272,0,0)" xlink:href="#E"/><use transform="matrix(0.04938271604938272,0,0,0.04938271604938272,12.790123456790125,0)" xlink:href="#F"/><use transform="matrix(0.04938271604938272,0,0,0.04938271604938272,22.66666666666667,0)" xlink:href="#G"/><use transform="matrix(0.04938271604938272,0,0,0.04938271604938272,26.567901234567902,0)" xlink:href="#H"/><use transform="matrix(0.04938271604938272,0,0,0.04938271604938272,30.46913580246914,0)" xlink:href="#I"/><use transform="matrix(0.04938271604938272,0,0,0.04938271604938272,40.345679012345684,0)" xlink:href="#J"/></g><g id="o"><use transform="matrix(0.04938271604938272,0,0,0.04938271604938272,0,0)" xlink:href="#K"/><use transform="matrix(0.04938271604938272,0,0,0.04938271604938272,8.88888888888889,0)" xlink:href="#G"/><use transform="matrix(0.04938271604938272,0,0,0.04938271604938272,12.790123456790125,0)" xlink:href="#L"/><use transform="matrix(0.04938271604938272,0,0,0.04938271604938272,27.555555555555557,0)" xlink:href="#M"/><use transform="matrix(0.04938271604938272,0,0,0.04938271604938272,37.4320987654321,0)" xlink:href="#H"/><use transform="matrix(0.04938271604938272,0,0,0.04938271604938272,41.333333333333336,0)" xlink:href="#N"/><use transform="matrix(0.04938271604938272,0,0,0.04938271604938272,51.20987654320988,0)" xlink:href="#O"/><use transform="matrix(0.04938271604938272,0,0,0.04938271604938272,56.14814814814815,0)" xlink:href="#G"/><use transform="matrix(0.04938271604938272,0,0,0.04938271604938272,60.04938271604939,0)" xlink:href="#C"/><use transform="matrix(0.04938271604938272,0,0,0.04938271604938272,69.92592592592592,0)" xlink:href="#P"/><use transform="matrix(0.04938271604938272,0,0,0.04938271604938272,79.80246913580247,0)" xlink:href="#Q"/><use transform="matrix(0.04938271604938272,0,0,0.04938271604938272,89.67901234567901,0)" xlink:href="#R"/><use transform="matrix(0.04938271604938272,0,0,0.04938271604938272,95.55555555555556,0)" xlink:href="#M"/><use transform="matrix(0.04938271604938272,0,0,0.04938271604938272,105.4320987654321,0)" xlink:href="#P"/><use transform="matrix(0.04938271604938272,0,0,0.04938271604938272,115.30864197530865,0)" xlink:href="#P"/><use transform="matrix(0.04938271604938272,0,0,0.04938271604938272,125.18518518518519,0)" xlink:href="#G"/><use transform="matrix(0.04938271604938272,0,0,0.04938271604938272,129.08641975308643,0)" xlink:href="#P"/><use transform="matrix(0.04938271604938272,0,0,0.04938271604938272,138.962962962963,0)" xlink:href="#S"/></g><path fill="#333" d="M119 0H84L31-248h34l41 218 126-218h36" id="aq"/><g id="p"><use transform="matrix(0.04938271604938272,0,0,0.04938271604938272,0,0)" xlink:href="#aq"/><use transform="matrix(0.04938271604938272,0,0,0.04938271604938272,11.506172839506174,0)" xlink:href="#G"/><use transform="matrix(0.04938271604938272,0,0,0.04938271604938272,15.407407407407408,0)" xlink:href="#R"/><use transform="matrix(0.04938271604938272,0,0,0.04938271604938272,21.283950617283953,0)" xlink:href="#M"/><use transform="matrix(0.04938271604938272,0,0,0.04938271604938272,31.160493827160497,0)" xlink:href="#K"/><path fill="#333" d="M-.9 1.23h41.84v1.3H-.9z"/></g><path fill="#333" d="M210-169c-67 3-38 105-44 169h-31v-121c0-29-5-50-35-48C34-165 62-65 56 0H25l-1-190h30c1 10-1 24 2 32 10-44 99-50 107 0 11-21 27-35 58-36 85-2 47 119 55 194h-31v-121c0-29-5-49-35-48" id="ar"/><path fill="#333" d="M115-194c53 0 69 39 70 98 0 66-23 100-70 100C84 3 66-7 56-30L54 0H23l1-261h32v101c10-23 28-34 59-34zm-8 174c40 0 45-34 45-75 0-40-5-75-45-74-42 0-51 32-51 76 0 43 10 73 51 73" id="as"/><path fill="#333" d="M179-190L93 31C79 59 56 82 12 73V49c39 6 53-20 64-50L1-190h34L92-34l54-156h33" id="at"/><g id="q"><use transform="matrix(0.05,0,0,0.05,0,0)" xlink:href="#X"/><use transform="matrix(0.05,0,0,0.05,10,0)" xlink:href="#ap"/><use transform="matrix(0.05,0,0,0.05,20,0)" xlink:href="#ar"/><use transform="matrix(0.05,0,0,0.05,34.95,0)" xlink:href="#ai"/><use transform="matrix(0.05,0,0,0.05,44.95,0)" xlink:href="#ad"/><use transform="matrix(0.05,0,0,0.05,54.95,0)" xlink:href="#aa"/><use transform="matrix(0.05,0,0,0.05,64.95,0)" xlink:href="#ad"/><use transform="matrix(0.05,0,0,0.05,74.95,0)" xlink:href="#Y"/><use transform="matrix(0.05,0,0,0.05,84.95,0)" xlink:href="#ai"/><use transform="matrix(0.05,0,0,0.05,94.95,0)" xlink:href="#al"/><use transform="matrix(0.05,0,0,0.05,100.9,0)" xlink:href="#as"/><use transform="matrix(0.05,0,0,0.05,110.9,0)" xlink:href="#at"/><use transform="matrix(0.05,0,0,0.05,119.9,0)" xlink:href="#ag"/><use transform="matrix(0.05,0,0,0.05,125.85000000000001,0)" xlink:href="#ah"/></g><g id="r"><use transform="matrix(0.05,0,0,0.05,0,0)" xlink:href="#ad"/><use transform="matrix(0.05,0,0,0.05,10,0)" xlink:href="#Y"/><use transform="matrix(0.05,0,0,0.05,20,0)" xlink:href="#ai"/><use transform="matrix(0.05,0,0,0.05,30,0)" xlink:href="#al"/><use transform="matrix(0.05,0,0,0.05,35.95,0)" xlink:href="#as"/><use transform="matrix(0.05,0,0,0.05,45.95,0)" xlink:href="#at"/></g><g id="s"><use transform="matrix(0.05,0,0,0.05,0,0)" xlink:href="#ab"/><use transform="matrix(0.05,0,0,0.05,3.95,0)" xlink:href="#ad"/><use transform="matrix(0.05,0,0,0.05,13.949999999999998,0)" xlink:href="#ac"/><use transform="matrix(0.05,0,0,0.05,18.95,0)" xlink:href="#Y"/><use transform="matrix(0.05,0,0,0.05,28.950000000000003,0)" xlink:href="#W"/><use transform="matrix(0.05,0,0,0.05,37.95,0)" xlink:href="#ae"/><use transform="matrix(0.05,0,0,0.05,42.95,0)" xlink:href="#ag"/><use transform="matrix(0.05,0,0,0.05,48.900000000000006,0)" xlink:href="#ah"/></g><g id="t"><use transform="matrix(0.05,0,0,0.05,0,0)" xlink:href="#ad"/><use transform="matrix(0.05,0,0,0.05,10,0)" xlink:href="#Y"/><use transform="matrix(0.05,0,0,0.05,20,0)" xlink:href="#ai"/><use transform="matrix(0.05,0,0,0.05,30,0)" xlink:href="#al"/><use transform="matrix(0.05,0,0,0.05,35.95,0)" xlink:href="#as"/><use transform="matrix(0.05,0,0,0.05,45.95,0)" xlink:href="#at"/></g><path fill="#333" d="M135-143c-3-34-86-38-87 0 15 53 115 12 119 90S17 21 10-45l28-5c4 36 97 45 98 0-10-56-113-15-118-90-4-57 82-63 122-42 12 7 21 19 24 35" id="au"/><path fill="#333" d="M100-194c62-1 85 37 85 99 1 63-27 99-86 99S16-35 15-95c0-66 28-99 85-99zM99-20c44 1 53-31 53-75 0-43-8-75-51-75s-53 32-53 75 10 74 51 75" id="av"/><g id="u"><use transform="matrix(0.05,0,0,0.05,0,0)" xlink:href="#af"/><use transform="matrix(0.05,0,0,0.05,10,0)" xlink:href="#Y"/><use transform="matrix(0.05,0,0,0.05,20,0)" xlink:href="#au"/><use transform="matrix(0.05,0,0,0.05,29,0)" xlink:href="#ae"/><use transform="matrix(0.05,0,0,0.05,34,0)" xlink:href="#al"/><use transform="matrix(0.05,0,0,0.05,39.95,0)" xlink:href="#av"/><use transform="matrix(0.05,0,0,0.05,49.95,0)" xlink:href="#at"/><use transform="matrix(0.05,0,0,0.05,58.95,0)" xlink:href="#ag"/><use transform="matrix(0.05,0,0,0.05,64.9,0)" xlink:href="#ah"/></g><path fill="#333" d="M125-24c46 0 70-25 89-51l25 16C214-24 183 4 123 4 8 4-5-146 60-208c32-50 158-61 191-5 5 7 9 14 11 22l-32 10c-9-28-33-43-69-43-74 0-108 51-108 125 0 46 24 75 72 75" id="aw"/><g id="v"><use transform="matrix(0.04938271604938272,0,0,0.04938271604938272,0,0)" xlink:href="#aw"/><use transform="matrix(0.04938271604938272,0,0,0.04938271604938272,12.790123456790125,0)" xlink:href="#F"/><use transform="matrix(0.04938271604938272,0,0,0.04938271604938272,22.66666666666667,0)" xlink:href="#I"/><use transform="matrix(0.04938271604938272,0,0,0.04938271604938272,32.543209876543216,0)" xlink:href="#L"/><use transform="matrix(0.04938271604938272,0,0,0.04938271604938272,47.308641975308646,0)" xlink:href="#G"/><use transform="matrix(0.04938271604938272,0,0,0.04938271604938272,51.20987654320988,0)" xlink:href="#K"/><use transform="matrix(0.04938271604938272,0,0,0.04938271604938272,60.09876543209877,0)" xlink:href="#O"/><path fill="#333" d="M-.9 1.23h66.82v1.3H-.88z"/></g><path fill="#333" d="M177-190C167-65 218 103 67 71c-23-6-38-20-44-43l32-5c15 47 100 32 89-28v-30C133-14 115 1 83 1 29 1 15-40 15-95c0-56 16-97 71-98 29-1 48 16 59 35 1-10 0-23 2-32h30zM94-22c36 0 50-32 50-73 0-42-14-75-50-75-39 0-46 34-46 75s6 73 46 73" id="ax"/><g id="w"><use transform="matrix(0.05,0,0,0.05,0,0)" xlink:href="#ax"/><use transform="matrix(0.05,0,0,0.05,10,0)" xlink:href="#Y"/><use transform="matrix(0.05,0,0,0.05,20,0)" xlink:href="#ad"/><use transform="matrix(0.05,0,0,0.05,30,0)" xlink:href="#Y"/><use transform="matrix(0.05,0,0,0.05,40,0)" xlink:href="#al"/><use transform="matrix(0.05,0,0,0.05,45.95,0)" xlink:href="#ai"/><use transform="matrix(0.05,0,0,0.05,55.95,0)" xlink:href="#ae"/><use transform="matrix(0.05,0,0,0.05,60.95,0)" xlink:href="#Y"/><use transform="matrix(0.05,0,0,0.05,70.95,0)" xlink:href="#aa"/><use transform="matrix(0.05,0,0,0.05,80.95,0)" xlink:href="#am"/><use transform="matrix(0.05,0,0,0.05,89.95,0)" xlink:href="#ai"/><use transform="matrix(0.05,0,0,0.05,99.95,0)" xlink:href="#W"/><use transform="matrix(0.05,0,0,0.05,108.95,0)" xlink:href="#W"/><use transform="matrix(0.05,0,0,0.05,117.95,0)" xlink:href="#ab"/><use transform="matrix(0.05,0,0,0.05,121.9,0)" xlink:href="#ad"/><use transform="matrix(0.05,0,0,0.05,131.9,0)" xlink:href="#Y"/><use transform="matrix(0.05,0,0,0.05,141.9,0)" xlink:href="#ag"/><use transform="matrix(0.05,0,0,0.05,147.85,0)" xlink:href="#ah"/></g><g id="x"><use transform="matrix(0.05,0,0,0.05,0,0)" xlink:href="#ax"/><use transform="matrix(0.05,0,0,0.05,10,0)" xlink:href="#Y"/><use transform="matrix(0.05,0,0,0.05,20,0)" xlink:href="#ad"/><use transform="matrix(0.05,0,0,0.05,30,0)" xlink:href="#Y"/><use transform="matrix(0.05,0,0,0.05,40,0)" xlink:href="#al"/><use transform="matrix(0.05,0,0,0.05,45.95,0)" xlink:href="#ai"/><use transform="matrix(0.05,0,0,0.05,55.95,0)" xlink:href="#ae"/><use transform="matrix(0.05,0,0,0.05,60.95,0)" xlink:href="#Y"/><use transform="matrix(0.05,0,0,0.05,70.95,0)" xlink:href="#aa"/><use transform="matrix(0.05,0,0,0.05,80.95,0)" xlink:href="#ar"/><use transform="matrix(0.05,0,0,0.05,95.9,0)" xlink:href="#Y"/><use transform="matrix(0.05,0,0,0.05,105.9,0)" xlink:href="#af"/><use transform="matrix(0.05,0,0,0.05,115.9,0)" xlink:href="#ab"/><use transform="matrix(0.05,0,0,0.05,119.85000000000001,0)" xlink:href="#W"/><use transform="matrix(0.05,0,0,0.05,128.85000000000002,0)" xlink:href="#ab"/><use transform="matrix(0.05,0,0,0.05,132.8,0)" xlink:href="#ad"/><use transform="matrix(0.05,0,0,0.05,142.8,0)" xlink:href="#Y"/><use transform="matrix(0.05,0,0,0.05,152.8,0)" xlink:href="#ag"/><use transform="matrix(0.05,0,0,0.05,158.75,0)" xlink:href="#ah"/></g><path fill="#333" d="M222 0l43-216c-8 16-17 34-26 49L143 0h-22L81-216 41 0H11l48-248h42l38 208 116-208h45L252 0h-30" id="ay"/><path fill="#333" d="M133-28C103 26-5 8 13-77c13-62 24-115 90-117 29-1 46 15 56 35l19-102h32L160 0h-30zM45-64c-2 27 10 43 35 43 54-1 69-50 69-103 0-29-15-46-42-46-53-1-58 58-62 106" id="az"/><g id="y"><use transform="matrix(0.04938271604938272,0,0,0.04938271604938272,0,0)" xlink:href="#ay"/><use transform="matrix(0.04938271604938272,0,0,0.04938271604938272,14.765432098765434,0)" xlink:href="#I"/><use transform="matrix(0.04938271604938272,0,0,0.04938271604938272,24.641975308641978,0)" xlink:href="#az"/><use transform="matrix(0.04938271604938272,0,0,0.04938271604938272,34.51851851851852,0)" xlink:href="#G"/><use transform="matrix(0.04938271604938272,0,0,0.04938271604938272,38.41975308641975,0)" xlink:href="#U"/><use transform="matrix(0.04938271604938272,0,0,0.04938271604938272,47.308641975308646,0)" xlink:href="#G"/><use transform="matrix(0.04938271604938272,0,0,0.04938271604938272,51.20987654320988,0)" xlink:href="#P"/><use transform="matrix(0.04938271604938272,0,0,0.04938271604938272,61.086419753086425,0)" xlink:href="#I"/><path fill="#333" d="M-.9 1.23h72.75v1.3H-.9z"/></g><g id="z"><use transform="matrix(0.04938271604938272,0,0,0.04938271604938272,0,0)" xlink:href="#aq"/><use transform="matrix(0.04938271604938272,0,0,0.04938271604938272,11.209876543209878,0)" xlink:href="#N"/><use transform="matrix(0.04938271604938272,0,0,0.04938271604938272,21.086419753086425,0)" xlink:href="#U"/><use transform="matrix(0.04938271604938272,0,0,0.04938271604938272,29.97530864197531,0)" xlink:href="#U"/><use transform="matrix(0.04938271604938272,0,0,0.04938271604938272,38.8641975308642,0)" xlink:href="#G"/><use transform="matrix(0.04938271604938272,0,0,0.04938271604938272,42.76543209876544,0)" xlink:href="#P"/><use transform="matrix(0.04938271604938272,0,0,0.04938271604938272,52.64197530864198,0)" xlink:href="#I"/><path fill="#333" d="M-.9 1.23h64.3v1.3H-.9z"/></g><g id="A"><use transform="matrix(0.05,0,0,0.05,0,0)" xlink:href="#ax"/><use transform="matrix(0.05,0,0,0.05,10,0)" xlink:href="#ab"/><use transform="matrix(0.05,0,0,0.05,13.949999999999998,0)" xlink:href="#am"/><use transform="matrix(0.05,0,0,0.05,22.95,0)" xlink:href="#Y"/><use transform="matrix(0.05,0,0,0.05,32.95,0)" xlink:href="#aa"/><use transform="matrix(0.05,0,0,0.05,42.95,0)" xlink:href="#ab"/><use transform="matrix(0.05,0,0,0.05,46.900000000000006,0)" xlink:href="#ar"/><use transform="matrix(0.05,0,0,0.05,61.85,0)" xlink:href="#ar"/><use transform="matrix(0.05,0,0,0.05,76.80000000000001,0)" xlink:href="#ap"/><use transform="matrix(0.05,0,0,0.05,86.80000000000001,0)" xlink:href="#ad"/><use transform="matrix(0.05,0,0,0.05,96.80000000000001,0)" xlink:href="#ab"/><use transform="matrix(0.05,0,0,0.05,100.75000000000001,0)" xlink:href="#ae"/><use transform="matrix(0.05,0,0,0.05,105.75,0)" xlink:href="#at"/><use transform="matrix(0.05,0,0,0.05,114.75,0)" xlink:href="#ag"/><use transform="matrix(0.05,0,0,0.05,120.7,0)" xlink:href="#ah"/></g></defs></g></svg>